<?xml version="1.0" encoding="UTF-8"?>
<!-- Created with Inkscape (http://www.inkscape.org/) -->
<svg width="128" height="128" version="1.1" viewBox="0 0 33.867 33.867" xmlns="http://www.w3.org/2000/svg">
 <defs>
  <linearGradient id="paint0_linear" x2="220.37" y2="1138.5" gradientTransform="scale(.125)" gradientUnits="userSpaceOnUse">
   <stop stop-color="#005474" offset="0"/>
   <stop stop-color="#063752" offset="1"/>
  </linearGradient>
 </defs>
 <g transform="translate(-47.323 -68.4)">
  <g transform="matrix(.26458 0 0 .26458 47.323 68.4)" stroke-width=".125">
   <rect width="128" height="128" fill="#fff"/>
   <path d="m0 0h128v128h-128z" fill="url(#paint0_linear)"/>
   <path d="m103.63 91.109-4.0412-3.6695c-3.5158 5.6136-8.2418 10.359-13.828 13.884-5.5859 3.5248-11.888 5.7388-18.44 6.4779-6.5519 0.73925-13.185-0.0155-19.407-2.2081-6.2225-2.1925-11.875-5.7667-16.538-10.458-3.4529-3.4614-6.3041-7.4814-8.435-11.893 13.529 16.093 48.361 12.688 69.664-2.122l-6.1495-5.5261c17.394-7.1183 21.35-16.933 21.435-17.11 2.3366 11.045 0.8325 22.563-4.2606 32.624z" clip-rule="evenodd" fill="#94e7ff" fill-rule="evenodd"/>
   <path d="m18.507 63.875c-0.01951-10.639 3.7876-20.925 10.718-28.958l0.04413-0.04451c0.22-0.26525 0.4835-0.575 0.70275-0.84025 0.43925-0.4865 0.8785-0.9725 1.3619-1.4591 4.0752-4.1099 8.9159-7.3705 14.245-9.5952 5.3288-2.2248 11.041-3.3699 16.81-3.3699s11.481 1.1451 16.81 3.3699c5.3287 2.2248 10.169 5.4854 14.245 9.5952 19.721 19.849-5.666 45.449-36.853 44.477v8.6658l-26.839-19.367 26.838-19.362v8.7536c8.8725-1.3708 24.554-5.3939 19.942-16.624-6.2373-15.518-50.645-11.937-58.024 24.758z" clip-rule="evenodd" fill="#00c5ff" fill-rule="evenodd"/>
  </g>
 </g>
</svg>
