<svg width="18" height="18" version="1.1" viewBox="0 0 4.7625 4.7625" xml:space="preserve" xmlns="http://www.w3.org/2000/svg"><g transform="translate(-102.57 -146.12)"><g transform="matrix(.26458 0 0 .26458 102.57 146.12)" fill="none"><g id="Receive icon"><circle transform="rotate(180,9,9)" cx="9" cy="9" r="9" fill="#fff"/><path d="m9.0009 11.241-0.70711 0.7071c0.39052 0.3905 1.0237 0.3905 1.4142 0zm0.99909-7.2414c-7e-5 -0.55229-0.44784-0.99995-1.0001-0.99988-0.55228 7e-5 -0.99994 0.44784-0.99987 1.0001zm-2.9436 3.8826c-0.39052-0.39052-1.0237-0.39052-1.4142 0-0.39053 0.39053-0.39053 1.0237 0 1.4142zm5.3033 1.4142c0.3905-0.39053 0.3905-1.0237 0-1.4142-0.3906-0.39052-1.0237-0.39052-1.4142 0zm-2.3588 1.9445-9e-4 -7.2413-2 2.5e-4 9.1e-4 7.2413zm0.0607-2.4748-1.7678 1.7678 1.4142 1.4142 1.7678-1.7678zm-0.35359 1.7678-1.7678-1.7678-1.4142 1.4142 1.7678 1.7678zm-1.7678-1.7678-0.88389-0.88389-1.4142 1.4142 0.88388 0.88386zm3.0052-0.88389-0.8839 0.88389 1.4142 1.4142 0.8839-0.88386z" fill="#021c36"/><path d="m6 14h6" stroke="#021c36" stroke-linecap="round" stroke-width="2"/></g></g></g></svg>
