<svg width="8.0017" height="8" version="1.1" viewBox="0 0 2.1171 2.1167" xml:space="preserve" xmlns="http://www.w3.org/2000/svg"><g transform="translate(-85.828 -121.4)"><g transform="matrix(.26458 0 0 .26458 85.828 121.4)" fill="none"><path d="m2.5094 0.78461c0-0.43332 0.35129-0.78461 0.78461-0.78461h3.923c0.43333 0 0.78461 0.35128 0.78461 0.78461v3.9231c0 0.43332-0.35128 0.78461-0.78461 0.78461-0.43332 0-0.78461-0.35129-0.78461-0.78461v-2.0288l-3.3682 3.3682c-0.01041 0.01041-0.02105 0.02047-0.03188 0.03018l-0.35353 0.35352h2.0288c0.43332 0 0.78461 0.35129 0.78461 0.78461 0 0.43333-0.35129 0.78461-0.78461 0.78461h-3.923c-0.43333 0-0.78461-0.35128-0.78461-0.78461v-3.923c0-0.43332 0.35128-0.78461 0.78461-0.78461 0.43332 0 0.78461 0.35129 0.78461 0.78461v2.0288l3.3682-3.3682c0.01041-0.01041 0.02105-0.02047 0.03188-0.03018l0.35353-0.35352h-2.0288c-0.43332 0-0.78461-0.35129-0.78461-0.78461z" clip-rule="evenodd" fill="#021c36" fill-rule="evenodd"/></g></g></svg>
