<svg width="8" height="8" viewBox="0 0 8 8" fill="none" xmlns="http://www.w3.org/2000/svg">
<path fill-rule="evenodd" clip-rule="evenodd" d="M2.50943 0.784609C2.50943 0.351285 2.86072 0 3.29404 0H7.21709C7.65042 0 8.0017 0.351285 8.0017 0.784609V4.70766C8.0017 5.14098 7.65042 5.49227 7.21709 5.49227C6.78377 5.49227 6.43248 5.14098 6.43248 4.70766V2.67883L3.06424 6.04707C3.05383 6.05748 3.04319 6.06754 3.03236 6.07725L2.67883 6.43077H4.70766C5.14098 6.43077 5.49227 6.78206 5.49227 7.21538C5.49227 7.64871 5.14098 7.99999 4.70766 7.99999H0.78461C0.351281 7.99999 0 7.64871 0 7.21538V3.29233C0 2.85901 0.351281 2.50772 0.78461 2.50772C1.21793 2.50772 1.56922 2.85901 1.56922 3.29233V5.32116L4.93746 1.95292C4.94787 1.94251 4.95851 1.93245 4.96934 1.92274L5.32287 1.56922L3.29404 1.56922C2.86072 1.56922 2.50943 1.21793 2.50943 0.784609Z" fill="#021C36"/>
</svg>
