<svg width="8" height="8" version="1.1" viewBox="0 0 2.1167 2.1167" xml:space="preserve" xmlns="http://www.w3.org/2000/svg"><g transform="translate(-85.705 -121.17)"><g transform="matrix(.26458 0 0 .26458 85.705 121.17)" fill="none"><path d="m2 0c-0.55228 0-1 0.44772-1 1 0 0.55228 0.44772 1 1 1zm5 1h1c0-0.55228-0.44772-1-1-1zm-1 5c0 0.55228 0.44772 1 1 1s1-0.44772 1-1zm-5.7071 0.29289c-0.39052 0.39053-0.39052 1.0237 0 1.4142 0.39052 0.39052 1.0237 0.39052 1.4142 0zm1.7071-4.2929h5v-2h-5zm4-1v5h2v-5zm0.29289-0.70711-6 6 1.4142 1.4142 6-6z" fill="#021c36"/></g></g></svg>
