<svg width="8" height="8" viewBox="0 0 8 8" fill="none" xmlns="http://www.w3.org/2000/svg">
<path d="M2 0C1.44772 0 1 0.447715 1 1C1 1.55228 1.44772 2 2 2V0ZM7 1H8C8 0.447715 7.55228 0 7 0V1ZM6 6C6 6.55228 6.44772 7 7 7C7.55228 7 8 6.55228 8 6H6ZM0.292893 6.29289C-0.0976311 6.68342 -0.0976311 7.31658 0.292893 7.70711C0.683417 8.09763 1.31658 8.09763 1.70711 7.70711L0.292893 6.29289ZM2 2H7V0H2V2ZM6 1V6H8V1H6ZM6.29289 0.292893L0.292893 6.29289L1.70711 7.70711L7.70711 1.70711L6.29289 0.292893Z" fill="#021C36"/>
</svg>
