<svg width="18" height="18" version="1.1" viewBox="0 0 4.7625 4.7625" xml:space="preserve" xmlns="http://www.w3.org/2000/svg"><g transform="translate(-84.705 -119.66)"><g transform="matrix(.26458 0 0 .26458 84.705 119.66)" fill="none"><path d="m12.222 2.6667 2.1482-0.66671c0.2222 0 0.3704 0 0.5185 0.14816l0.963 0.9629c0.1481 0.14816 0.1481 0.29632 0.1481 0.51857l-0.5926 2.2223c-0.0741 0.22224 0.1481 0.7408 0.3703 0.88894l1.926 1.111c0.2222 0.14816 0.2963 0.29632 0.2963 0.51857v1.2592c0 0.22224-0.0741 0.44451-0.2963 0.51861l-1.926 1.111c-0.2222 0.1482-0.4444 0.6667-0.3703 0.9629l0.5926 2.1482c0.0741 0.2222 0 0.3704-0.1481 0.5185l-0.963 0.963c-0.1481 0.1481-0.2963 0.1481-0.5185 0.1481l-2.1482-0.5926c-0.2963-0.0741-0.8149 0.1481-0.9629 0.3703l-1.111 1.926c-0.0741 0.2222-0.29636 0.2963-0.5186 0.2963h-1.2592c-0.22224 0-0.37039-0.0741-0.51857-0.2963l-1.111-1.926c-0.14816-0.2222-0.6667-0.4444-0.88894-0.3703l-2.2223 0.5926c-0.14816 0.0741-0.37039 0-0.51857-0.1481l-0.9629-0.963c-0.14816-0.1481-0.14816-0.2963-0.14816-0.5185l0.66671-2.1482c0-0.2963-0.14816-0.8149-0.44447-0.9629l-1.9259-1.111c-0.22224-0.0741-0.29632-0.29636-0.29632-0.51861v-1.2592c0-0.22224 0.07408-0.37039 0.29632-0.51857l1.9259-1.111c0.29632-0.14816 0.44447-0.6667 0.44447-0.88894l-0.66671-2.2223c0-0.14816 0-0.37039 0.14816-0.51857l0.9629-0.9629c0.14816-0.14816 0.29632-0.14816 0.51857-0.14816l2.2223 0.66671c0.22224 0 0.7408-0.14816 0.88894-0.44447l1.111-1.9259c0.14816-0.22224 0.29632-0.29632 0.51857-0.29632h1.2592c0.22224 0 0.4445 0.07408 0.5186 0.29632l1.111 1.9259c0.1482 0.29632 0.6667 0.44447 0.9629 0.44447zm-3.1852 2.5926c2.074 0 3.7778 1.6296 3.7778 3.7778 0 2.0741-1.7037 3.7778-3.7778 3.7778-2.1482 0-3.7778-1.7037-3.7778-3.7778 0-2.1482 1.6296-3.7778 3.7778-3.7778z" clip-rule="evenodd" fill="#fff" fill-rule="evenodd"/></g></g></svg>
