<svg width="18" height="18" version="1.1" viewBox="0 0 4.7625 4.7625" xml:space="preserve" xmlns="http://www.w3.org/2000/svg"><g transform="translate(-105.38 -146.61)"><path d="m108.61 147.32 0.56837-0.1764c0.0588 0 0.098 0 0.13718 0.0392l0.25479 0.25476c0.0392 0.0392 0.0392 0.0784 0.0392 0.1372l-0.15679 0.58798c-0.0196 0.0588 0.0392 0.196 0.098 0.2352l0.50958 0.29394c0.0588 0.0392 0.0784 0.0784 0.0784 0.13721v0.33316c0 0.0588-0.0196 0.1176-0.0784 0.13721l-0.50958 0.29395c-0.0588 0.0392-0.11758 0.17639-0.098 0.25476l0.15679 0.56837c0.0196 0.0588 0 0.098-0.0392 0.13719l-0.25479 0.25479c-0.0392 0.0392-0.0784 0.0392-0.13718 0.0392l-0.56837-0.15679c-0.0784-0.0196-0.21561 0.0392-0.25477 0.098l-0.29395 0.50958c-0.0196 0.0588-0.0784 0.0784-0.13721 0.0784h-0.33316c-0.0588 0-0.098-0.0196-0.1372-0.0784l-0.29395-0.50958c-0.0392-0.0588-0.17639-0.11758-0.23519-0.098l-0.58798 0.15679c-0.0392 0.0196-0.098 0-0.1372-0.0392l-0.25477-0.25479c-0.0392-0.0392-0.0392-0.0784-0.0392-0.13719l0.1764-0.56837c0-0.0784-0.0392-0.2156-0.1176-0.25476l-0.50955-0.29395c-0.0588-0.0196-0.0784-0.0784-0.0784-0.13721v-0.33316c0-0.0588 0.0196-0.098 0.0784-0.13721l0.50955-0.29394c0.0784-0.0392 0.1176-0.1764 0.1176-0.2352l-0.1764-0.58798c0-0.0392 0-0.098 0.0392-0.1372l0.25477-0.25476c0.0392-0.0392 0.0784-0.0392 0.1372-0.0392l0.58798 0.1764c0.0588 0 0.196-0.0392 0.23519-0.1176l0.29395-0.50956c0.0392-0.0588 0.0784-0.0784 0.1372-0.0784h0.33316c0.0588 0 0.11761 0.0196 0.13721 0.0784l0.29395 0.50956c0.0392 0.0784 0.1764 0.1176 0.25477 0.1176zm-0.84274 0.68595c0.54874 0 0.99953 0.43115 0.99953 0.99953 0 0.54876-0.45077 0.99953-0.99953 0.99953-0.56837 0-0.99953-0.45077-0.99953-0.99953 0-0.56838 0.43116-0.99953 0.99953-0.99953z" clip-rule="evenodd" fill="#fff" fill-rule="evenodd" stroke-width=".26458"/></g></svg>
