<svg width="226" height="199" version="1.1" viewBox="0 0 59.796 52.652" xml:space="preserve" xmlns="http://www.w3.org/2000/svg"><defs><clipPath id="a"><rect transform="translate(117,51)" width="171" height="136" fill="#fff"/></clipPath></defs><g transform="translate(-64.089 -103.81)"><g transform="matrix(.26458 0 0 .26458 44.246 103.81)" fill="none"><g clip-path="url(#a)"><path d="m232 187h-66.708v-82.045c0-6.0783-4.963-11.006-11.084-11.006h-33.181v-20.316h162.95v84.367h-43.981c-4.418 0-8 3.582-8 8zm-71.458-82.045v82.045h-35.612c-2.156 0-3.903-1.74-3.903-3.889v-84.445h33.181c3.498 0 6.334 2.816 6.334 6.289z" clip-rule="evenodd" fill="#167399" fill-rule="evenodd"/><path d="m239.48 79.786h-69.51v-14.633c0-7.8047 6.371-14.153 14.203-14.153h41.104c7.832 0 14.203 6.3485 14.203 14.153zm-63.335-6.1532h57.169v-8.4706c0-4.4128-3.6-8.0088-8.037-8.0088h-41.104c-4.428 0-8.037 3.5871-8.037 8.0088v8.4706z" fill="#2181a8"/><path d="m178.52 69.078h-10.933c-1.123 0-2.023 0.9057-2.023 2.0156v3.7736c0 1.1187 0.909 2.0155 2.023 2.0155h10.933c1.123 0 2.023-0.9057 2.023-2.0155v-3.7736c9e-3 -1.1188-0.9-2.0156-2.023-2.0156z" fill="#339fcb"/><path d="m241.86 69.078h-10.933c-1.123 0-2.023 0.9057-2.023 2.0156v3.7736c0 1.1187 0.909 2.0155 2.023 2.0155h10.933c1.123 0 2.023-0.9057 2.023-2.0155v-3.7736c0-1.1188-0.909-2.0156-2.023-2.0156z" fill="#339fcb"/><path d="m283.98 134.67v-57.669c-0.338-0.0711-0.686-0.1066-1.042-0.1066h-160.87c-0.357 0-0.704 0.0355-1.043 0.1066v57.669c0.152 0.035 0.312 0.053 0.464 0.071l46.521 5.31c22.918 2.619 46.058 2.619 68.976 0l46.521-5.31c0.16-0.018 0.312-0.044 0.472-0.071z" fill="#135579" opacity=".3"/><path d="m283.51 130.65-46.521 5.309c-22.918 2.62-46.058 2.62-68.976 0l-46.521-5.309c-2.557-0.293-4.491-2.451-4.491-5.017v-47.787c0-2.7881 2.272-5.0522 5.07-5.0522h160.87c2.798 0 5.07 2.2641 5.07 5.0522v47.787c-9e-3 2.566-1.943 4.724-4.5 5.017z" fill="#2181a8"/><path d="m213.36 144.89h-21.715c-1.185 0-2.138-0.95-2.138-2.131v-9.652c0-1.181 0.953-2.131 2.138-2.131h21.715c1.185 0 2.139 0.95 2.139 2.131v9.652c0 1.172-0.954 2.131-2.139 2.131z" fill="#339fcb"/><path d="m282.93 72.798h-160.86c-2.798 0-5.07 2.2641-5.07 5.0522v8.4705c0-2.788 2.272-5.0521 5.07-5.0521h160.87c2.798 0 5.07 2.2641 5.07 5.0521v-8.4705c-9e-3 -2.7881-2.272-5.0522-5.079-5.0522z" fill="#167399"/></g><rect x="237" y="163" width="64" height="36" rx="5" fill="#167399"/><rect x="244" y="179" width="8" height="14" rx="3" fill="#2589b1"/><rect x="258" y="172" width="8" height="21" rx="3" fill="#339fcb"/><rect x="272" y="175" width="8" height="18" rx="3" fill="#2589b1"/><rect x="286" y="169" width="8" height="24" rx="3" fill="#339fcb"/><rect x="75" y="99" width="86" height="100" rx="6" fill="#167399"/><g stroke="#3291b8" stroke-width="2"><rect x="85" y="150" width="34" height="2" rx="1"/><rect x="137" y="150" width="14" height="2" rx="1"/><rect x="85" y="160" width="34" height="2" rx="1"/><rect x="137" y="160" width="14" height="2" rx="1"/><rect x="85" y="170" width="26" height="2" rx="1"/><rect x="137" y="170" width="14" height="2" rx="1"/><rect x="85" y="180" width="43" height="2" rx="1"/><rect x="85" y="140" width="43" height="2" rx="1"/><rect x="85" y="130" width="30" height="2" rx="1"/><rect x="85" y="113" width="66" height="2" rx="1"/><rect x="137" y="180" width="14" height="2" rx="1"/><rect x="137" y="140" width="14" height="2" rx="1"/><rect x="137" y="130" width="14" height="2" rx="1"/></g><rect x="101" width="173" height="63" rx="12" fill="#00c5ff"/><rect x="107" y="6" width="161" height="51" rx="7" fill="#caf3ff"/><g fill="#00c5ff"><path d="m121.72 20.052-3.168 9.9478h-2.552l4.328-12h1.624zm2.632 9.9478-3.176-9.9478-0.256-2.0522h1.64l4.352 12zm-0.144-4.467v1.9368h-6.152v-1.9368z"/><path d="m129.35 18h2.032l2.992 8.8104 2.992-8.8104h2.032l-4.208 12h-1.632zm-1.096 0h2.024l0.368 8.5879v3.4121h-2.392zm10.216 0h2.032v12h-2.4v-3.4121z"/><path d="m147.4 25.722h-2.968v-1.9285h2.968c0.458 0 0.832-0.077 1.12-0.2308 0.288-0.1594 0.498-0.3791 0.632-0.6594 0.133-0.2802 0.2-0.5961 0.2-0.9478 0-0.3571-0.067-0.6895-0.2-0.9972-0.134-0.3077-0.344-0.555-0.632-0.7418s-0.662-0.2802-1.12-0.2802h-2.136v10.063h-2.4v-12h4.536c0.912 0 1.693 0.1703 2.344 0.511 0.656 0.3352 1.157 0.7994 1.504 1.3928 0.346 0.5935 0.52 1.272 0.52 2.0358 0 0.7747-0.174 1.445-0.52 2.0109-0.347 0.566-0.848 1.0028-1.504 1.3105-0.651 0.3077-1.432 0.4615-2.344 0.4615z"/><path d="m160.58 18v12h-2.392v-12z"/><path d="m166.66 30h-2.536l0.016-1.9286h2.52c0.629 0 1.16-0.1456 1.592-0.4368 0.432-0.2967 0.757-0.728 0.976-1.2939 0.224-0.566 0.336-1.25 0.336-2.0522v-0.5852c0-0.6154-0.064-1.1566-0.192-1.6236-0.123-0.4671-0.307-0.8599-0.552-1.1786s-0.547-0.5577-0.904-0.717c-0.357-0.1649-0.768-0.2473-1.232-0.2473h-2.608v-1.9368h2.608c0.779 0 1.491 0.1374 2.136 0.4121 0.651 0.2692 1.213 0.6566 1.688 1.1621s0.84 1.1099 1.096 1.8132c0.261 0.6978 0.392 1.4752 0.392 2.3324v0.5687c0 0.8516-0.131 1.6291-0.392 2.3324-0.256 0.7033-0.621 1.3077-1.096 1.8132-0.469 0.5-1.032 0.8873-1.688 1.1621-0.651 0.2692-1.371 0.4038-2.16 0.4038zm-1.176-12v12h-2.4v-12z"/><rect x="116" y="37" width="140" height="7" rx="3.5"/></g></g></g></svg>
