<svg xmlns="http://www.w3.org/2000/svg" viewBox="0 0 35 47.216" height="178.454" width="132.285">
  <g fill="none">
    <path d="M21.197 22.336l-3.688.15-3.686-.15-.434 5.362 4.12 4.508 4.119-4.508z" fill="#caf3ff"/>
    <path d="M32.552 33.26l-10.924-5.562-4.178 3.798-4.06-3.798L2.347 33.26S-.252 39.121.02 46.64l17.372.219 17.59.357c.269-7.517-2.43-13.956-2.43-13.956z" fill="#167399"/>
    <path d="M13.668 24.242s3.998 4.085 7.735.683l-.209-2.59h-7.371z" fill="#13779f"/>
    <path d="M25.154 4.746C22.208-.259 17.164.665 17.164.665l.007.474c-1.103.315-5.079 1.564-7.901 3.942 0 0 .357 9.032 1.416 12.127 1.06 3.094 3.231 7.366 6.82 7.521 3.591-.155 5.762-4.427 6.82-7.521 1.064-3.095.828-12.462.828-12.462z" fill="#caf3ff"/>
    <path d="M8.953 3.953l.858 8.944s-.323-6.92.05-7.457c.373-.539 1.393-.986 7.477-1.049 3.78-.038 6.582-.387 7.124-.038.541.348.575 7.906.575 7.906s.88-8.82.71-10.113c0 0-11.663-5.87-16.794 1.807z" fill="#13779f"/>
    <path d="M24.88 12.569s1.393-1.4 2.445-1.166c.65.143 1.189 1.573.68 3.964-.586 2.757-3.024 2.658-3.294 2.506-.27-.153-.575-1.412-.575-1.412zM10.135 12.897s-1.393-1.4-2.445-1.166c-.65.143-1.189 1.573-.68 3.964.586 2.757 3.024 2.658 3.294 2.506.272-.155.575-1.412.575-1.412z" fill="#caf3ff"/>
  </g>
</svg>
