<svg width="21.995" height="19.414" version="1.1" viewBox="0 0 5.8196 5.1366" xml:space="preserve" xmlns="http://www.w3.org/2000/svg"><g transform="translate(-108.95 -123.88)"><g transform="matrix(.99993 0 0 .99993 108.95 123.88)" clip-rule="evenodd" fill="#fff" fill-rule="evenodd"><path d="m1.088 1.12c-0.663 0.5-1.088 1.146-1.088 1.448 0 0.53 1.303 2.117 2.91 2.117 0.495 0 0.961-0.15 1.37-0.374l-0.393-0.393a2.264 2.264 0 0 1-0.977 0.238c-0.631 0-1.24-0.316-1.708-0.728a3.092 3.092 0 0 1-0.532-0.598 1.362 1.362 0 0 1-0.137-0.263 1.361 1.361 0 0 1 0.137-0.263c0.12-0.18 0.3-0.393 0.532-0.596 0.084-0.074 0.172-0.145 0.265-0.211zm0.719 0.718a1.323 1.323 0 0 0 1.833 1.833l-0.387-0.387a0.794 0.794 0 0 1-1.059-1.059zm2.413 0.916-1.495-1.496a1.323 1.323 0 0 1 1.495 1.495zm0.542 0.54c0.163-0.16 0.295-0.321 0.388-0.463a1.362 1.362 0 0 0 0.138-0.263 1.362 1.362 0 0 0-0.137-0.263c-0.12-0.18-0.301-0.393-0.532-0.596-0.469-0.412-1.077-0.728-1.709-0.728-0.14 0-0.28 0.016-0.417 0.045l-0.43-0.43c0.268-0.09 0.553-0.144 0.847-0.144 1.608 0 2.91 1.587 2.91 2.116 0 0.236-0.257 0.68-0.684 1.101z"/><path d="M 5.105,5.137 0.342,0.374 0.716,0 5.48,4.763 Z"/></g></g></svg>
