<svg xmlns="http://www.w3.org/2000/svg" viewBox="0 0 5.821 5.137" height="19.414" width="22">
  <g fill="#fff" clip-rule="evenodd" fill-rule="evenodd">
    <path d="M1.088 1.12C.425 1.62 0 2.266 0 2.568c0 .53 1.303 2.117 2.91 2.117.495 0 .961-.15 1.37-.374l-.393-.393a2.264 2.264 0 01-.977.238c-.631 0-1.24-.316-1.708-.728A3.092 3.092 0 01.67 2.83a1.362 1.362 0 01-.137-.263 1.361 1.361 0 01.137-.263c.12-.18.3-.393.532-.596.084-.074.172-.145.265-.211zm.719.718A1.323 1.323 0 003.64 3.671l-.387-.387a.794.794 0 01-1.059-1.059zm2.413.916L2.725 1.258A1.323 1.323 0 014.22 2.753zm.542.54c.163-.16.295-.321.388-.463a1.362 1.362 0 00.138-.263 1.362 1.362 0 00-.137-.263c-.12-.18-.301-.393-.532-.596C4.15 1.297 3.542.981 2.91.981c-.14 0-.28.016-.417.045l-.43-.43c.268-.09.553-.144.847-.144 1.608 0 2.91 1.587 2.91 2.116 0 .236-.257.68-.684 1.101z"/>
    <path d="M5.105 5.137L.342.374.716 0 5.48 4.763z"/>
  </g>
</svg>
