<svg width="86.607" height="100" version="1.1" viewBox="0 0 22.915 26.458" xml:space="preserve" xmlns="http://www.w3.org/2000/svg"><g transform="translate(-77.095 -216.06)"><g transform="matrix(1.1038 0 0 1.1038 76.41 216.04)"><path d="m1.0391 17.751v-11.504l9.9653-5.7532 9.9629 5.7532v11.504l-9.9629 5.7532z"/><g fill="#fff"><path d="m11.002 0.97271 9.5468 5.5137v11.025l-9.5468 5.5137-9.5516-5.5137v-11.025zm0-0.95806-10.381 5.9927v11.986l10.381 5.9927 10.379-5.9927v-11.986z"/><path d="m10.873 15.46-2.7992-0.7161v1.9838l2.7992 1.6186z"/><path d="m11.133 15.438v2.9081l5.7411-3.3169v-1.9815z"/><path d="m10.872 9.8396-5.7387 1.4661v1.3766l5.7387 1.4734z"/><path d="m11.129 9.8589v4.2774l2.8016-1.1298v-1.9791z"/><path d="m10.871 5.654-2.7968 1.6137v1.9839l2.7968-0.71371z"/><path d="m11.129 5.6516v2.9056l5.746 2.3927v-1.9839z"/></g></g></g></svg>
