<svg width="14" height="14" version="1.1" viewBox="0 0 3.7042 3.7042" xml:space="preserve" xmlns="http://www.w3.org/2000/svg"><g transform="translate(-111.99 -125.9)"><g transform="matrix(.26458 0 0 .26458 111.99 125.9)" clip-rule="evenodd" fill="#00c5ff" fill-rule="evenodd"><path d="m0 1c0-0.55228 0.44772-1 1-1 0.55228 0 1 0.44772 1 1v11h11c0.5523 0 1 0.4477 1 1s-0.4477 1-1 1h-13z"/><path d="m13 2.4999c0.4274 0.34972 0.4904 0.97975 0.1407 1.4072l-4.5665 5.5813-2.476-2.476-4.3056 5.5972-1.5852-1.2194 5.6944-7.4027 2.524 2.524 3.1671-3.8708c0.3497-0.42745 0.9797-0.49045 1.4072-0.14072z"/></g></g></svg>
