<svg width="14" height="14" viewBox="0 0 14 14" fill="none" xmlns="http://www.w3.org/2000/svg">
<path d="M7 0C3.14031 0 0 3.14031 0 7C0 10.86 3.14031 14 7 14C10.86 14 14 10.86 14 7C14 3.14031 10.86 0 7 0ZM9.53454 9.53454C9.42927 9.63981 9.29169 9.69231 9.15385 9.69231C9.016 9.69231 8.87842 9.63981 8.77315 9.53454L6.61931 7.38069C6.51835 7.27973 6.46154 7.14269 6.46154 7V3.23077C6.46154 2.93354 6.70277 2.69231 7 2.69231C7.29723 2.69231 7.53846 2.93354 7.53846 3.23077V6.77681L9.53454 8.77315C9.74481 8.98342 9.74481 9.32427 9.53454 9.53454Z" fill="#87C0E0"/>
</svg>
