<svg width="26.001" height="26.001" version="1.1" viewBox="0 0 6.8793 6.8793" xml:space="preserve" xmlns="http://www.w3.org/2000/svg"><g transform="translate(-107.95 -116.24)"><path d="m112.98 121.27h1.058a0.79404 0.79404 0 0 0 0.79404-0.79403v-3.4402a0.79404 0.79404 0 0 0-0.79404-0.79303h-3.4402a0.79404 0.79404 0 0 0-0.79304 0.79303v1.059h-1.059a0.79404 0.79404 0 0 0-0.79303 0.79304v3.4402c0 0.43802 0.35501 0.79404 0.79303 0.79404h3.4402a0.79404 0.79404 0 0 0 0.79403-0.79404zm0-0.53002h1.058a0.26501 0.26501 0 0 0 0.26501-0.26401v-3.4402a0.26501 0.26501 0 0 0-0.26501-0.26401h-3.4402a0.26501 0.26501 0 0 0-0.26401 0.26401v1.059h1.8521c0.43802 0 0.79403 0.35502 0.79403 0.79304zm-0.79403 1.8531h-3.4402a0.26501 0.26501 0 0 1-0.26401-0.26501v-3.4402c0-0.14601 0.11801-0.26401 0.26401-0.26401h3.4402c0.14601 0 0.26401 0.118 0.26401 0.26401v3.4402a0.26501 0.26501 0 0 1-0.26401 0.26501z" clip-rule="evenodd" fill="#0f4766" fill-rule="evenodd"/></g></svg>
