<svg width="20" height="20" viewBox="0 0 20 20" fill="none" xmlns="http://www.w3.org/2000/svg">
<path fill-rule="evenodd" clip-rule="evenodd" d="M15 15H16C17.6569 15 19 13.6569 19 12V4C19 2.34315 17.6569 1 16 1H8C6.34314 1 5 2.34315 5 4V4.61115C5 4.74907 5.02792 4.88047 5.07842 5H4C2.34314 5 1 6.34314 1 8V16C1 17.6569 2.34315 19 4 19H12C13.6569 19 15 17.6568 15 16V15ZM15 13L16 13C16.5523 13 17 12.5523 17 12V4C17 3.44772 16.5523 3 16 3L8 3C7.44772 3 7 3.44772 7 4V4.61115C7 4.74907 6.97208 4.88047 6.92158 5L12 5C13.6569 5 15 6.34315 15 8V13ZM13 16C13 16.5523 12.5523 17 12 17L4 17C3.44772 17 3 16.5523 3 16L3 8C3 7.44771 3.44771 7 4 7L12 7C12.5523 7 13 7.44772 13 8V16Z" fill="#00C5FF"/>
</svg>
