<svg width="15.5" height="15.5" version="1.1" viewBox="0 0 4.101 4.101" xml:space="preserve" xmlns="http://www.w3.org/2000/svg"><g transform="translate(-101.07 -131.76)"><g transform="matrix(.26458 0 0 .26458 101.07 131.09)" fill="none"><path d="m6.5 3.5h-4c-1.1046 0-2 0.89543-2 2v10c0 1.1046 0.89543 2 2 2h10c1.1046 0 2-0.8954 2-2v-4" stroke="#00c5ff" stroke-linecap="round"/><path d="m14.641 4.0124 0.3442-0.36289 0.0097 0.00974zm0 1.7356-0.3542-0.35291 2e-4 -2.4e-4zm-7.288 7.3146 0.35419 0.3529c-0.0563 0.0565-0.12532 0.0987-0.20127 0.1231zm-2.8738 0.9231 0.15292 0.4761-0.01047 0.0033-0.01062 0.0029zm-0.36844-0.0861-0.32967 0.3759-0.01252-0.011-0.01176-0.0118zm-0.09825-0.3693-0.49323-0.082 6e-3 -0.0361 0.01118-0.0348zm0.92109-2.868-0.47605-0.1529c0.02425-0.0755 0.06613-0.1442 0.12215-0.2003zm7.288-7.3023 0.3539 0.35315v6e-5zm1.7316 0-0.3442 0.3629-0.0097-0.00975zm1.0417 0.29923c0.6737 0.67522 0.6737 1.7667 0 2.4419l-0.7079-0.7063c0.2843-0.28488 0.2843-0.74439 0-1.0293zm3e-4 2.4416-7.288 7.3146-0.70839-0.7059 7.288-7.3145zm-7.4893 7.4377-2.8738 0.9232-0.30585-0.9521 2.8738-0.9232zm-2.8949 0.9294c-0.30654 0.0838-0.61307-0.0023-0.82994-0.1925l0.65934-0.7518c-0.0096-0.0085-0.02315-0.0163-0.04054-0.0206-0.0182-0.0044-0.0369-0.0039-0.05253 3e-4zm-0.85422-0.2153c-0.16105-0.1614-0.25658-0.3722-0.25658-0.6116h1c0-0.0149-0.00315-0.0359-0.01263-0.0581-0.00925-0.0216-0.01992-0.0336-0.02289-0.0366zm-0.25658-0.6116c0-0.0555 0.00759-0.1133 0.01051-0.1352 0.00208-0.0157 0.00412-0.0295 0.00564-0.0393 7.7e-4 -5e-3 0.00143-0.0092 0.00192-0.0123 2.5e-4 -0.0016 4.6e-4 -0.0029 6.3e-4 -0.0039 8e-5 -5e-4 1.5e-4 -9e-4 2.1e-4 -0.0013 3e-5 -1e-4 6e-5 -3e-4 8e-5 -4e-4 1e-5 -1e-4 2e-5 -2e-4 3e-5 -2e-4 1e-5 -1e-4 1e-5 -1e-4 2e-5 -1e-4l1e-5 -1e-4 0.98646 0.164c1e-5 0 1e-5 0 1e-5 -1e-4h1e-5c1e-5 -1e-4 2e-5 -1e-4 2e-5 -1e-4 1e-5 -1e-4 2e-5 -2e-4 3e-5 -2e-4l1e-5 -1e-4c-2e-5 1e-4 -7e-5 5e-4 -1.6e-4 1e-3 -1.7e-4 0.0011-4.7e-4 3e-3 -8.6e-4 0.0055-7.8e-4 0.0051-0.00181 0.0121-0.0028 0.0195-0.00322 0.0242-0.00177 0.0219-0.00177 0.0033zm0.03623-0.2637 0.92109-2.868 0.9521 0.3058-0.92109 2.868zm1.0432-3.0683 7.288-7.3023 0.7078 0.70642-7.288 7.3022zm7.2879-7.3022c0.6743-0.67585 1.7653-0.67585 2.4396 0l-0.7079 0.7063c-0.2836-0.28425-0.7402-0.28425-1.0238 0zm2.4297-0.00961 0.6878 0.65238-0.6882 0.72552-0.6878-0.65238z" fill="#00c5ff"/></g></g></svg>
