<svg width="23" height="23" version="1.1" viewBox="0 0 6.0854 6.0854" xml:space="preserve" xmlns="http://www.w3.org/2000/svg"><defs><clipPath id="a"><rect x="100.78" y="125.07" width="6.0854" height="6.0854" fill="#fff" stroke-width=".26458"/></clipPath></defs><g transform="translate(-100.78 -125.07)"><g transform="translate(.0011436 -.0044574)" stroke="#747474" stroke-width=".26458"><path transform="matrix(.14195 0 0 .21568 102.45 126.93)" d="m23.777 13.234v-8.1604l7.0671 4.0802z" fill="#737373"/><path d="m102.76 128.91h3.2015" fill="#666" stroke-linecap="round" stroke-linejoin="bevel"/></g><g stroke="#737373"><path d="m105.14 129.3v1.323c0 0.21918-0.17769 0.39687-0.39687 0.39687h-3.4396c-0.21919 0-0.39688-0.17769-0.39688-0.39687v-5.0271c0-0.21919 0.17769-0.39688 0.39688-0.39688h1.7374v1.6316c0 0.21919 0.17768 0.39687 0.39688 0.39687h1.7021v1.2788m-1.8344-3.1277 1.6395 1.5844h-1.5072c-0.0731 0-0.1323-0.0592-0.1323-0.13229z" clip-path="url(#a)" fill="none" stroke-width=".26458"/><path d="m103.43 127.06h0.0765v0.078h-0.0765zm-0.18517-0.10913h0.0765v0.0781h-0.0765z" fill="#666" stroke-width=".18256"/></g></g></svg>
