<svg width="23" height="23" viewBox="0 0 23 23" fill="none" xmlns="http://www.w3.org/2000/svg">
<g clip-path="url(#clip0)">
<path d="M8.56667 0.5V6.66667C8.56667 7.49509 9.23824 8.16667 10.0667 8.16667H16.5V11.5V15.3333V19.1667V21C16.5 21.8284 15.8284 22.5 15 22.5H2C1.17157 22.5 0.5 21.8284 0.5 21V2C0.5 1.17157 1.17157 0.5 2 0.5H8.56667ZM9.56667 6.66667V1.17852L15.7631 7.16667H10.0667C9.79052 7.16667 9.56667 6.94281 9.56667 6.66667Z" stroke="white"/>
<path d="M18 16V18V20.2009L19.6578 18.7532L23.6578 15.26L24.5186 14.5083L23.6592 13.7549L19.6592 10.2481L18 8.7934V11V13H7.5C6.67157 13 6 13.6716 6 14.5C6 15.3284 6.67157 16 7.5 16H18Z" fill="white" stroke="#014766" stroke-width="2"/>
</g>
<defs>
<clipPath id="clip0">
<rect width="23" height="23" fill="white"/>
</clipPath>
</defs>
</svg>
