<svg width="27.998" height="27.998" version="1.1" viewBox="0 0 7.4078 7.4078" xml:space="preserve" xmlns="http://www.w3.org/2000/svg"><g transform="translate(-94.042 -128.45)"><g transform="matrix(.99997 0 0 .99997 94.042 128.45)"><path d="m3.704 7.408a3.704 3.704 0 1 0 0-7.408 3.704 3.704 0 0 0 0 7.408z" fill="#00c5ff"/><path d="m4.355 5.143v-0.165c0.491-0.029 0.996-0.125 1.457 0.04a6.515 6.515 0 0 1-0.34-1.674c-0.032-0.46-0.016-0.932-0.164-1.369-0.167-0.49-0.55-0.91-1.035-1.09-0.486-0.18-1.065-0.106-1.471 0.216-0.143 0.113-0.27 0.275-0.256 0.456-0.246-0.084-0.52 0.091-0.636 0.325-0.115 0.233-0.11 0.505-0.094 0.765 0.048 0.76 0.165 1.54-0.041 2.274l1.278 0.039v0.183c-0.885 0.124-1.644 0.495-2.128 1.008a3.694 3.694 0 0 0 2.778 1.256c1.107 0 2.1-0.486 2.779-1.256-0.483-0.512-1.242-0.883-2.127-1.008z" fill="#caf3ff"/></g></g></svg>
