<svg width="22" height="19.005" version="1.1" viewBox="0 0 5.8208 5.0284" xml:space="preserve" xmlns="http://www.w3.org/2000/svg"><g transform="translate(-94.403 -129.66)"><g transform="matrix(.26458 0 0 .26458 94.403 129.4)" fill="none"><path d="m18.95 3h2.55a0.5 0.5 0 0 1 0 1h-2.55a2.5 2.5 0 0 1-4.9 0h-13.55a0.5 0.5 0 0 1 0-1h13.55a2.5 2.5 0 0 1 4.9 0zm-11 7h13.55a0.5 0.5 0 0 1 0 1h-13.55a2.5 2.5 0 0 1-4.9 0h-2.55a0.5 0.5 0 0 1 0-1h2.55a2.5 2.5 0 0 1 4.9 0zm8 7h5.55a0.5 0.5 0 0 1 0 1h-5.55a2.5 2.5 0 0 1-4.9 0h-10.55a0.5 0.5 0 0 1 0-1h10.55a2.5 2.5 0 0 1 4.9 0z" clip-rule="evenodd" fill="#fff" fill-rule="evenodd"/></g></g></svg>
