<svg width="24" height="24" viewBox="0 0 24 24" fill="none" xmlns="http://www.w3.org/2000/svg">
<g clip-path="url(#clip0_4622_48794)">
<path d="M7.9 10.6001L8.2 10.9001C9.3 12.0001 10.6 12.7001 12 13.1001H12.1C12.3 13.1001 12.4 13.0001 12.5 12.9001C12.6 12.7001 12.6 12.5001 12.6 12.4001C12.5 12.2001 12.4 12.1001 12.2 12.1001C10.9 11.8001 9.8 11.1001 8.9 10.2001L8.6 9.9001L9 9.5001C10.6 7.9001 11.9 5.8001 12.6 3.6001C12.6 3.5001 12.6 3.3001 12.5 3.2001C12.3 3.1001 12.2 3.0001 12 3.0001H8V1.2001C8.1 1.0001 8 0.900098 7.8 0.800098C7.7 0.700098 7.5 0.700098 7.3 0.800098C7.2 0.900098 7.1 1.0001 7.1 1.2001V3.0001H3.1C2.9 3.0001 2.8 3.1001 2.7 3.3001C2.6 3.5001 2.6 3.7001 2.7 3.8001C2.8 4.0001 2.9 4.0001 3.1 4.0001H11.4L11.1 4.7001C10.4 6.3001 9.5 7.6001 8.3 8.8001L7.9 9.2001L7.6 8.8001C6.9 8.0001 6.4 7.2001 5.9 6.4001C5.9 6.2001 5.8 6.1001 5.6 6.0001C5.5 6.0001 5.4 6.0001 5.2 6.0001C5.1 6.1001 5 6.2001 5 6.3001C5 6.4001 5 6.6001 5.1 6.7001C5.6 7.7001 6.2 8.5001 6.9 9.3001L7.2 9.7001L6.8 10.0001C5.7 10.9001 4.4 11.6001 3 12.0001C2.8 12.0001 2.7 12.1001 2.6 12.2001C2.5 12.3001 2.5 12.4001 2.5 12.6001C2.5 12.7001 2.6 12.9001 2.7 13.0001C2.8 13.1001 2.9 13.1001 3.1 13.1001H3.2H3.3C4.9 12.7001 6.4 11.9001 7.6 10.9001L7.9 10.6001Z" fill="#00C5FF"/>
<path d="M21.0996 23.4C21.1996 23.3 21.3996 23.3 21.3996 23.1C21.4996 23 21.4996 22.8 21.3996 22.7L16.9996 10.9C16.9996 10.8 16.8996 10.7 16.7996 10.7C16.5996 10.6 16.3996 10.6 16.2996 10.7C16.1996 10.8 16.1996 10.8 16.0996 10.9L11.6996 22.3C11.5996 22.5 11.6996 22.7 11.7996 22.8C11.8996 22.9 12.0996 23 12.2996 23C12.4996 23 12.5996 22.9 12.6996 22.7L13.8996 19.6H19.2996L20.6996 23.1C20.6996 23.2 20.7996 23.3 20.9996 23.4C20.8996 23.4 20.9996 23.4 21.0996 23.4ZM14.1996 18.5L16.4996 12.5L18.7996 18.5H14.1996Z" fill="#00C5FF"/>
</g>
<defs>
<clipPath id="clip0_4622_48794">
<rect width="24" height="24" fill="white" transform="matrix(4.37114e-08 1 1 -4.37114e-08 0 0)"/>
</clipPath>
</defs>
</svg>
