<svg xmlns="http://www.w3.org/2000/svg" viewBox="0 0 6.403 6.403" height="24.2" width="24.2">
  <path d="M5.961.442a1.513 1.513 0 00-2.137 0L2.716 1.55a.274.274 0 10.388.387L4.212.829a.956.956 0 011.362 0c.38.38.38.982 0 1.362L4.407 3.358a.956.956 0 01-1.362 0 .274.274 0 10-.387.387 1.513 1.513 0 002.137 0L5.96 2.579a1.513 1.513 0 000-2.137zM1.608 2.658a1.513 1.513 0 012.137 0 .274.274 0 11-.387.387.956.956 0 00-1.363 0L.83 4.212a.956.956 0 000 1.362c.38.38.982.38 1.362 0L3.3 4.466a.274.274 0 11.387.387L2.58 5.961a1.513 1.513 0 01-2.137 0 1.513 1.513 0 010-2.137z" clip-rule="evenodd" fill="#00c5ff" fill-rule="evenodd"/>
</svg>
