<svg width="24.191" height="24.198" version="1.1" viewBox="0 0 6.4005 6.4025" xml:space="preserve" xmlns="http://www.w3.org/2000/svg"><g transform="translate(-62.249 -141.16)"><path d="m68.208 141.6a1.513 1.513 0 0 0-2.137 0l-1.108 1.108a0.274 0.274 0 1 0 0.388 0.387l1.108-1.108a0.95599 0.95599 0 0 1 1.362 0c0.38 0.38 0.38 0.98199 0 1.362l-1.167 1.167a0.95599 0.95599 0 0 1-1.362 0 0.274 0.274 0 1 0-0.387 0.38699 1.513 1.513 0 0 0 2.137 0l1.165-1.166a1.513 1.513 0 0 0 0-2.137zm-4.3529 2.216a1.513 1.513 0 0 1 2.137 0 0.274 0.274 0 1 1-0.387 0.38699 0.95599 0.95599 0 0 0-1.363 0l-1.165 1.167a0.95599 0.95599 0 0 0 0 1.362c0.38 0.38 0.98199 0.38 1.362 0l1.108-1.108a0.274 0.274 0 1 1 0.387 0.38699l-1.107 1.108a1.513 1.513 0 0 1-2.137 0 1.513 1.513 0 0 1 0-2.137z" clip-rule="evenodd" fill="#00c5ff" fill-rule="evenodd" stroke-width=".99999"/></g></svg>
