<svg width="14" height="14" viewBox="0 0 14 14" fill="none" xmlns="http://www.w3.org/2000/svg">
<path fill-rule="evenodd" clip-rule="evenodd" d="M2 2H3.75C4.30228 2 4.75 1.55228 4.75 1C4.75 0.447715 4.30228 0 3.75 0H1.5C0.671572 0 0 0.671574 0 1.5V12.5C0 13.3284 0.671573 14 1.5 14H12.5C13.3284 14 14 13.3284 14 12.5V10.25C14 9.69771 13.5523 9.25 13 9.25C12.4477 9.25 12 9.69771 12 10.25V12H2V2Z" fill="#00C5FF"/>
<path fill-rule="evenodd" clip-rule="evenodd" d="M6.66667 1C6.66667 0.447715 7.11438 0 7.66667 0H13C13.5523 0 14 0.447715 14 1V6.33333C14 6.88562 13.5523 7.33333 13 7.33333C12.4477 7.33333 12 6.88562 12 6.33333V3.41421L5.70711 9.70711C5.31658 10.0976 4.68342 10.0976 4.29289 9.70711C3.90237 9.31658 3.90237 8.68342 4.29289 8.29289L10.5858 2H7.66667C7.11438 2 6.66667 1.55228 6.66667 1Z" fill="#00C5FF"/>
</svg>
