<svg xmlns="http://www.w3.org/2000/svg" viewBox="0 0 41.143 39.977" height="151.094" width="155.502">
  <g clip-rule="evenodd" fill-rule="evenodd">
    <path d="M40.655 17.568c-.039.08-1.838 4.515-9.749 7.731l2.797 2.497c-9.69 6.693-25.532 8.23-31.685.959a19.807 19.807 0 003.836 5.374 19.979 19.979 0 007.522 4.726 19.977 19.977 0 0017.214-1.93 19.977 19.977 0 006.29-6.274l1.838 1.659a22.26 22.26 0 001.937-14.742z" fill="#94e7ff"/>
    <path d="M20.23.002A19.955 19.955 0 005.834 5.86a18.613 18.613 0 00-.62.659l-.32.38-.02.02A19.902 19.902 0 000 20.003C3.356 3.422 23.554 1.803 26.39 8.816c2.098 5.074-5.034 6.893-9.07 7.512v-3.956l-12.206 8.75 12.207 8.75v-3.915c14.185.439 25.731-11.129 16.762-20.098A19.955 19.955 0 0020.23.002z" fill="#00c5ff"/>
  </g>
</svg>
