<svg width="155.5" height="151.09" version="1.1" viewBox="0 0 41.143 39.977" xml:space="preserve" xmlns="http://www.w3.org/2000/svg"><g transform="translate(-49.069 -125.83)"><g transform="matrix(1 0 0 1 49.069 125.83)" clip-rule="evenodd" fill-rule="evenodd"><path d="m40.655 17.568c-0.039 0.08-1.838 4.515-9.749 7.731l2.797 2.497c-9.69 6.693-25.532 8.23-31.685 0.959a19.807 19.807 0 0 0 3.836 5.374 19.979 19.979 0 0 0 7.522 4.726 19.977 19.977 0 0 0 17.214-1.93 19.977 19.977 0 0 0 6.29-6.274l1.838 1.659a22.26 22.26 0 0 0 1.937-14.742z" fill="#94e7ff"/><path d="m20.23 2e-3a19.955 19.955 0 0 0-14.396 5.858 18.613 18.613 0 0 0-0.62 0.659l-0.32 0.38-0.02 0.02a19.902 19.902 0 0 0-4.874 13.084c3.356-16.581 23.554-18.2 26.39-11.187 2.098 5.074-5.034 6.893-9.07 7.512v-3.956l-12.206 8.75 12.207 8.75v-3.915c14.185 0.439 25.731-11.129 16.762-20.098a19.955 19.955 0 0 0-13.853-5.857z" fill="#00c5ff"/></g></g></svg>
