<svg width="28" height="28.005" version="1.1" viewBox="0 0 7.4083 7.4098" xml:space="preserve" xmlns="http://www.w3.org/2000/svg"><g transform="translate(-66.504 -145.02)"><g transform="matrix(1 0 0 1 66.444 145.02)"><path d="m3.704 7.407a3.704 3.704 0 1 0 0-7.407 3.704 3.704 0 0 0 0 7.407z" fill="#00c5ff"/><path d="m4.965 5.24-0.03-0.055a0.261 0.261 0 0 1 0.037-0.305h-0.384v-3e-3c0.262-0.29 0.452-0.703 0.524-1.18 0.107-0.033 0.222-0.17 0.286-0.357 0.084-0.24 0.05-0.472-0.075-0.515-0.055-0.02-0.119 1e-3 -0.18 0.05v-1.355a0.38 0.38 0 0 0-0.38-0.38h-2.12a0.38 0.38 0 0 0-0.38 0.38v1.357c-0.06-0.05-0.124-0.07-0.18-0.05-0.124 0.043-0.158 0.274-0.074 0.515 0.065 0.185 0.18 0.323 0.285 0.358 0.073 0.475 0.262 0.89 0.525 1.178v4e-3h-0.384a0.261 0.261 0 0 1 0.037 0.304l-0.03 0.056c-0.668 0.156-1.234 0.432-1.625 0.785a3.696 3.696 0 0 0 2.886 1.382c1.167 0 2.207-0.54 2.886-1.382-0.39-0.353-0.956-0.63-1.624-0.786z" fill="#caf3ff"/></g></g></svg>
