<svg width="27.998" height="28.006" version="1.1" viewBox="0 0 7.4079 7.4099" xml:space="preserve" xmlns="http://www.w3.org/2000/svg"><g transform="translate(-66.042 -144.32)"><g transform="matrix(.99998 0 0 .99998 66.042 144.32)"><path d="m7.408 3.704a3.704 3.704 0 1 0-7.408 0 3.704 3.704 0 0 0 7.408 0z" fill="#00c5ff"/><path d="m4.474 5.142v-0.225c0.259-0.227 0.461-0.564 0.573-0.964 0.01 5e-3 0.02 9e-3 0.03 0.01 0.13 0.023 0.271-0.219 0.315-0.539 0.043-0.32-0.028-0.598-0.159-0.62-0.038-6e-3 -0.076 0.01-0.113 0.044l-9e-3 -0.056 0.045-0.213c0.047-0.226 0.094-0.465 0.02-0.684a0.891 0.891 0 0 0-0.187-0.305c-0.254-0.283-0.622-0.45-0.999-0.498a2.488 2.488 0 0 0-1.12 0.138c-0.214 0.074-0.46 0.238-0.416 0.46-0.11-0.04-0.234 0.046-0.277 0.156-0.042 0.11-0.025 0.232-8e-3 0.348l0.096 0.635a0.122 0.122 0 0 0-0.088-0.024c-0.131 0.023-0.202 0.3-0.159 0.62s0.185 0.56 0.315 0.539a0.111 0.111 0 0 0 0.03-0.01c0.112 0.4 0.314 0.737 0.573 0.963v0.22c-0.9 0.093-1.69 0.347-2.255 0.705a3.698 3.698 0 0 0 3.025 1.568c1.24 0 2.337-0.61 3.01-1.547-0.559-0.363-1.344-0.622-2.242-0.72z" fill="#caf3ff"/></g></g></svg>
