<svg xmlns="http://www.w3.org/2000/svg" viewBox="0 0 5.292 6.085" height="23" width="20">
  <g transform="matrix(.26458 0 0 .26458 -.53 0)" fill="none">
    <path d="M2.5 2A1.5 1.5 0 014 .5h16A1.5 1.5 0 0121.5 2v3A1.5 1.5 0 0120 6.5H4A1.5 1.5 0 012.5 5zM2.5 10A1.5 1.5 0 014 8.5h16a1.5 1.5 0 011.5 1.5v3a1.5 1.5 0 01-1.5 1.5H4A1.5 1.5 0 012.5 13zM2.5 18A1.5 1.5 0 014 16.5h16a1.5 1.5 0 011.5 1.5v3a1.5 1.5 0 01-1.5 1.5H4A1.5 1.5 0 012.5 21z" stroke="#00c5ff"/>
    <circle cx="18.5" cy="3.5" r=".5" fill="#00c5ff"/>
    <circle cx="18.5" cy="11.5" r=".5" fill="#00c5ff"/>
    <circle cx="18.5" cy="19.5" r=".5" fill="#00c5ff"/>
    <rect x="5" y="3" width="4" height="1" rx=".5" fill="#00c5ff"/>
    <rect x="5" y="11" width="4" height="1" rx=".5" fill="#00c5ff"/>
    <rect x="5" y="19" width="4" height="1" rx=".5" fill="#00c5ff"/>
  </g>
</svg>
