<svg width="29" height="27" viewBox="0 0 29 27" fill="none" xmlns="http://www.w3.org/2000/svg">
<circle cx="14.5" cy="13.5" r="13.5" fill="#00C5FF"/>
<path d="M9.50016 14.9999C9.7763 14.9999 10.0002 15.2238 10.0002 15.4999L10.0002 17.293L13.183 14.1107L13.8901 14.8178L10.7073 18.0001L12.5 18.0002C12.7761 18.0002 13 18.224 13 18.5002C13 18.7763 12.7761 19.0002 12.5 19.0002L9.50018 19.0001C9.22404 19.0001 9.00018 18.7763 9.00018 18.5001L9.00016 15.4999C9.00016 15.2238 9.22402 14.9999 9.50016 14.9999Z" fill="#021C36"/>
<path d="M16 8.50004C16 8.77618 16.2239 9.00004 16.5 9.00004L18.2929 9.00011L15.1109 12.1822L15.818 12.8893L19 9.70722L19 11.5C19 11.7761 19.2239 12 19.5 12C19.7761 12 20 11.7761 20 11.5L20 8.50011C20 8.22397 19.7762 8.00011 19.5 8.00011L16.5 8.00004C16.2239 8.00004 16 8.2239 16 8.50004Z" fill="#021C36"/>
<rect x="12.6367" y="8.92773" width="9.00307" height="1" rx="0.5" transform="rotate(45 12.6367 8.92773)" fill="#021C36"/>
<rect x="10.6367" y="10.9282" width="9.00249" height="1" rx="0.5" transform="rotate(45 10.6367 10.9282)" fill="#021C36"/>
</svg>
