<svg width="17.002" height="21.003" version="1.1" viewBox="0 0 4.4984 5.5571" xml:space="preserve" xmlns="http://www.w3.org/2000/svg"><g transform="translate(-92.047 -153.66)"><path d="m93.277 155.67 0.58399-0.41599c0.207-0.147 0.224-0.30999 0.13-0.44499l-0.61899-0.89298c-0.094-0.136-0.258-0.185-0.46499-0.039l-0.45799 0.32399c-0.43199 0.30599-0.40199 1.893 0.51299 3.2119 0.91498 1.32 2.38 1.892 2.8129 1.586l0.45799-0.32399c0.207-0.146 0.217-0.319 0.123-0.45499l-0.61999-0.89199c-0.093-0.136-0.25-0.17599-0.45799-0.03l-0.58599 0.41299c-0.64199-0.063-1.576-1.411-1.415-2.041z" clip-rule="evenodd" fill="none" stroke="#fff" stroke-opacity=".991" stroke-width=".265"/></g></svg>
