<svg xmlns="http://www.w3.org/2000/svg" viewBox="0 0 5.821 5.821" height="22" width="22">
  <g fill="#00b4e9">
    <path d="M.661.53A.132.132 0 00.53.66v1.323c0 .073.06.133.132.133h1.323c.073 0 .133-.06.133-.133V.661A.132.132 0 001.984.53zM.265 0A.265.265 0 000 .265V2.38c0 .146.118.265.265.265H2.38a.265.265 0 00.265-.265V.265A.265.265 0 002.38 0z" clip-rule="evenodd" fill-rule="evenodd"/>
    <path d="M.794.926c0-.073.059-.132.132-.132h.794c.073 0 .132.059.132.132v.794c0 .073-.06.132-.132.132H.926a.132.132 0 01-.132-.132z"/>
    <path d="M.661 3.704a.132.132 0 00-.132.132V5.16c0 .073.06.133.132.133h1.323c.073 0 .133-.06.133-.133V3.836a.132.132 0 00-.133-.132zm-.396-.529A.265.265 0 000 3.44v2.116c0 .146.118.265.265.265H2.38a.265.265 0 00.265-.265V3.44a.265.265 0 00-.265-.265zM3.836.53a.132.132 0 00-.132.131v1.323c0 .073.06.133.132.133H5.16c.073 0 .133-.06.133-.133V.661A.132.132 0 005.159.53zM3.44 0a.265.265 0 00-.265.265V2.38c0 .146.118.265.265.265h2.116a.265.265 0 00.265-.265V.265A.265.265 0 005.556 0z" clip-rule="evenodd" fill-rule="evenodd"/>
    <path d="M3.175 3.44c0-.147.118-.265.265-.265h.793c.146 0 .265.118.265.265v.793a.265.265 0 01-.265.265H3.44a.265.265 0 01-.265-.265zM4.498 4.762c0-.146.118-.264.264-.264h.794c.146 0 .265.118.265.264v.794a.265.265 0 01-.265.265h-.794a.265.265 0 01-.264-.265z"/>
  </g>
</svg>
