<svg width="22" height="22" version="1.1" viewBox="0 0 5.8208 5.8208" xml:space="preserve" xmlns="http://www.w3.org/2000/svg"><g transform="translate(-99.295 -154.18)"><g transform="matrix(.26458 0 0 .26458 99.295 154.18)" fill="#00b4e9"><path d="m2 2v6h6v-6zm-1-2c-0.55228 0-1 0.44772-1 1v8c0 0.55229 0.44772 1 1 1h8c0.55229 0 1-0.44772 1-1v-8c0-0.55228-0.44772-1-1-1z" clip-rule="evenodd" fill-rule="evenodd"/><path d="M 3,3.5 C 3,3.22386 3.22386,3 3.5,3 h 3 C 6.77614,3 7,3.22386 7,3.5 v 3 C 7,6.77614 6.77614,7 6.5,7 h -3 C 3.22386,7 3,6.77614 3,6.5 Z"/><path d="m2 14v6h6v-6zm-1-2c-0.55228 0-1 0.4477-1 1v8c0 0.5523 0.44772 1 1 1h8c0.55229 0 1-0.4477 1-1v-8c0-0.5523-0.44772-1-1-1z" clip-rule="evenodd" fill-rule="evenodd"/><path d="m14 2v6h6v-6zm-1-2c-0.5523 0-1 0.44772-1 1v8c0 0.55229 0.4477 1 1 1h8c0.5523 0 1-0.44772 1-1v-8c0-0.55228-0.4477-1-1-1z" clip-rule="evenodd" fill-rule="evenodd"/><path d="m12 13c0-0.5523 0.4477-1 1-1h3c0.5523 0 1 0.4477 1 1v3c0 0.5523-0.4477 1-1 1h-3c-0.5523 0-1-0.4477-1-1z"/><path d="m17 18c0-0.5523 0.4477-1 1-1h3c0.5523 0 1 0.4477 1 1v3c0 0.5523-0.4477 1-1 1h-3c-0.5523 0-1-0.4477-1-1z"/></g></g></svg>
