<svg width="21" height="23.5" version="1.1" viewBox="0 0 5.5562 6.2178" xml:space="preserve" xmlns="http://www.w3.org/2000/svg"><defs><clipPath id="a"><path transform="matrix(0,1,1,0,0,0)" d="m0 0h24v24h-24z" fill="#fff"/></clipPath></defs><g transform="translate(-96.4 -153.29)"><g transform="matrix(.26458 0 0 .26458 96.135 153.16)" clip-path="url(#a)" fill="#00c5ff"><path d="m2.723 17.136a9.5 9.5 0 0 1 4.027-11.863 0.5 0.5 0 1 0-0.5-0.866 10.5 10.5 0 1 0 5.25-1.407v1a9.5 9.5 0 1 1-8.777 13.136z" clip-rule="evenodd" fill-rule="evenodd"/><path d="m9.146 3.146a0.5 0.5 0 0 0 0 0.708l2.5 2.5a0.50063 0.50063 0 0 0 0.708-0.708l-2.147-2.146 2.147-2.146a0.50063 0.50063 0 0 0-0.708-0.708z" clip-rule="evenodd" fill-rule="evenodd"/><path d="m10 3v1h2v-1z"/></g></g></svg>
