<svg width="28.999" height="35.321" version="1.1" viewBox="0 0 7.6727 9.3454" xml:space="preserve" xmlns="http://www.w3.org/2000/svg"><defs><clipPath id="a"><path d="m0 0h36v36h-36z" fill="#fff"/></clipPath></defs><g transform="translate(-88.705 -141.37)"><g transform="matrix(.26458 0 0 .26458 87.779 141.37)" clip-path="url(#a)" fill="none"><path d="m28.192 8.65 0.35-0.357zm0 18.02 0.35 0.357zm-5.512-21.75a0.5 0.5 0 0 0-0.267 0.963zm5.163 4.087a12.114 12.114 0 0 1 3.657 8.653h1c0-3.515-1.425-6.884-3.958-9.367zm3.657 8.653c0 3.243-1.315 6.356-3.658 8.652l0.7 0.715a13.115 13.115 0 0 0 3.958-9.367zm-3.658 8.652a12.635 12.635 0 0 1-8.842 3.59v1c3.577 0 7.01-1.393 9.542-3.875zm-5.43-20.429a12.56 12.56 0 0 1 5.43 3.124l0.7-0.714a13.56 13.56 0 0 0-5.862-3.373zm-14.604 20.269-0.35 0.357zm0-18.019-0.35-0.357zm5.513 21.75a0.5 0.5 0 0 0 0.267-0.963zm-5.163-4.088a12.115 12.115 0 0 1-3.658-8.652h-1c0 3.515 1.425 6.884 3.958 9.367zm-3.658-8.652c0-3.243 1.314-6.356 3.658-8.653l-0.7-0.714a13.114 13.114 0 0 0-3.958 9.367zm3.658-8.653a12.635 12.635 0 0 1 8.842-3.589v-1c-3.577 0-7.01 1.393-9.542 3.875zm5.43 20.43a12.559 12.559 0 0 1-5.43-3.125l-0.7 0.714a13.559 13.559 0 0 0 5.863 3.374z" fill="#00c5ff"/><path d="m12.996 10.198 3.901-5.897-5.897-3.902m12.967 34.423-5.545-4.387 4.388-5.545" stroke="#00c5ff" stroke-linecap="round" stroke-linejoin="round"/></g></g></svg>
