<svg xmlns="http://www.w3.org/2000/svg" viewBox="0 0 5.556 6.35" height="24" width="21">
  <path d="M4.498 4.762a.53.53 0 100 1.059.53.53 0 000-1.059zm-1.058.53c0-.087.01-.172.03-.252L1.777 3.952a1.058 1.058 0 110-1.553L3.47 1.31A1.06 1.06 0 014.498 0a1.058 1.058 0 11-.777 1.777L2.064 2.843a1.057 1.057 0 010 .664l1.658 1.065a1.058 1.058 0 11-.282.72zm.529-4.234a.53.53 0 111.058 0 .53.53 0 01-1.058 0zM.529 3.175a.53.53 0 111.058 0 .53.53 0 01-1.058 0z" clip-rule="evenodd" fill="#00c5ff" fill-rule="evenodd"/>
</svg>
