<svg xmlns="http://www.w3.org/2000/svg" viewBox="0 0 7.408 7.408" height="28" width="28">
  <g fill="#004160" clip-rule="evenodd" fill-rule="evenodd">
    <path d="M3.44 1.225v3.464c0 .125.118.227.264.227.146 0 .265-.102.265-.227V1.225L5.2 2.457a.265.265 0 10.374-.374L3.985.493a.397.397 0 00-.561 0l-1.59 1.59a.265.265 0 00.373.374z"/>
    <path d="M1.058 3.593c.146 0 .265.118.265.264v2.381c0 .147.118.265.265.265H5.82a.265.265 0 00.264-.265v-2.38a.265.265 0 11.53 0v2.38a.794.794 0 01-.794.794H1.588a.794.794 0 01-.794-.794v-2.38c0-.147.118-.265.264-.265z"/>
  </g>
</svg>
