<svg width="19.933" height="23.787" version="1.1" viewBox="0 0 5.274 6.2936" xml:space="preserve" xmlns="http://www.w3.org/2000/svg"><g transform="translate(-90.598 -145.34)"><path d="m93.111 145.59 0.125-0.116 0.125 0.116c0.137 0.122 0.331 0.287 0.56 0.454 0.451 0.33 1.06 0.686 1.634 0.723 0.12 7e-3 0.189 0.09 0.185 0.16-0.026 0.496-0.124 1.503-0.49 2.458-0.362 0.946-0.975 1.816-2.014 2.118-1.039-0.302-1.652-1.172-2.014-2.118-0.366-0.955-0.464-1.962-0.491-2.461-4e-3 -0.068 0.065-0.15 0.185-0.159 0.575-0.036 1.184-0.391 1.635-0.721 0.228-0.167 0.423-0.332 0.56-0.454z" fill="none" stroke="#00c5ff" stroke-linecap="round" stroke-linejoin="round" stroke-width=".26458"/></g></svg>
