<svg xmlns="http://www.w3.org/2000/svg" width="24" height="24" viewBox="0 0 6.35 6.35">
  <path d="M3.05.276L3.175.16 3.3.276c.137.122.331.287.56.454.451.33 1.06.686 1.634.723.12.007.189.09.185.16-.026.496-.124 1.503-.49 2.458-.362.946-.975 1.816-2.014 2.118-1.039-.302-1.652-1.172-2.014-2.118C.795 3.116.697 2.109.67 1.61c-.004-.068.065-.15.185-.159C1.43 1.415 2.039 1.06 2.49.73c.228-.167.423-.332.56-.454z" stroke="#00c5ff" stroke-linecap="round" stroke-linejoin="round" fill="none" stroke-width=".26458"/>
</svg>
