<svg width="88" height="20" version="1.1" viewBox="0 0 23.283 5.2917" xml:space="preserve" xmlns="http://www.w3.org/2000/svg"><defs><clipPath id="a"><rect width="88" height="20" fill="#fff"/></clipPath></defs><g transform="translate(-78.586 -111.87)"><g transform="matrix(.26458 0 0 .26458 78.586 111.87)" fill="none"><g clip-path="url(#a)" fill="#fff"><path d="m83.669 7.2564c-0.0046 3.0574-4.4395 2.7498-5.4135 2.751v-5.5065c0.974 1e-3 5.4087-0.30645 5.4133 2.751l2e-4 0.00217zm0.3485 5.2996c1.8434-0.8164 3.26-2.3646 3.26-5.3013 0-5.6636-5.2632-6.1709-8.7083-6.2001-0.0275-3.3e-4 -0.0552-6.7e-4 -0.0825-8.3e-4 -0.0666-5.1e-4 -0.1314-6.7e-4 -0.1966-6.7e-4 -0.0374-1.7e-4 -0.0759-3.4e-4 -0.113-3.4e-4h-0.0367c-0.0945 0-0.1864 5e-4 -0.2775 8.4e-4 -0.0271 1.7e-4 -0.0559 1.7e-4 -0.0829 3.3e-4 -0.1003-6.7e-4 -0.199-8.3e-4 -0.296-8.3e-4h-0.0079c-0.0154 0-0.0297 1.6e-4 -0.0449 1.6e-4 -0.1047 0-0.2068 3.4e-4 -0.3069 8.4e-4 -0.1575 6.7e-4 -0.3108 0.00167-0.4553 0.00233h-2.0366v12.397h0.0143v6.5471h3.6088v-6.5436c0.169-2e-4 0.3427-0.0015 0.5213-0.0042 0.0047 0 0.0093 0 0.014-1e-4 0.1683-0.0025 0.3405-0.0067 0.5156-0.0124 0.0266-1e-3 0.0531-2e-3 0.0799-3e-3 0.3419-0.012 0.6942-0.0319 1.0523-0.0624 0.0275-0.0021 0.0542-0.0033 0.0817-0.0058l3.534 6.6315h3.9452z"/><path d="m41.774 0v3.832c3.5992 0 6.5272 2.767 6.5272 6.1681 0 3.4009-2.928 6.1681-6.5272 6.1681-3.5991 0-6.5272-2.7672-6.5272-6.1681l2e-4 -0.00239h-4.0551l-2e-4 0.00239c0 5.5228 4.7379 9.9999 10.582 9.9999s10.582-4.4771 10.582-9.9999c0-5.523-4.7379-10-10.582-10z"/><path d="m9.9924 5.4369c-1.052-1.3118-2.1228-1.9677-3.2131-1.9677-0.53092 0-0.96513 0.12746-1.3028 0.38186-0.33767 0.25474-0.50651 0.54176-0.50651 0.86091 0 0.31949 0.12039 0.62147 0.3619 0.90612 0.32787 0.37998 1.3168 1.1955 2.9668 2.4466 1.5436 1.1566 2.4794 1.8858 2.8077 2.1878 0.8199 0.7423 1.4012 1.4518 1.7438 2.1296 0.3425 0.6773 0.5139 1.4173 0.5139 2.2199 0 1.5622-0.6028 2.8522-1.808 3.8707-1.2055 1.0183-2.777 1.5274-4.7148 1.5274-1.514 0-2.8325-0.3324-3.9559-0.9967-1.1232-0.6646-2.0852-1.7087-2.8854-3.1328l3.4004-1.8381c1.0226 1.6827 2.1995 2.5241 3.5308 2.5241 0.69421 0 1.278-0.181 1.7507-0.5436 0.47285-0.3623 0.70919-0.7809 0.70919-1.2557 0-0.4313-0.17864-0.8628-0.53555-1.2944-0.35709-0.4315-1.1432-1.0917-2.3589-1.9807-2.3158-1.6914-3.8115-2.9969-4.4868-3.9159-0.67534-0.91903-1.0128-1.836-1.0128-2.7506 0-1.3204 0.5618-2.4532 1.6852-3.3981 1.1232-0.94503 2.5096-1.4175 4.1586-1.4175 1.0609 0 2.071 0.2199 3.0304 0.66022 0.95961 0.43998 1.9985 1.2428 3.1173 2.4079l0.3787 0.36469-3.0468 2.4089z"/><path d="m69.452 1.0527h-4.3466l-4.9577 6.3508-0.8322 1.0495v-7.4003h-3.6204v18.947h3.6204v-9.4608l0.8322 1.1912 5.7356 8.2696h4.2928l-7.2405-10.335z"/><path d="m16.707 4.4977h3.7131v15.502h3.7131v-15.502h3.7131v-3.445h-11.139z"/></g></g></g></svg>
