<svg width="24" height="24" version="1.1" viewBox="0 0 6.35 6.35" xml:space="preserve" xmlns="http://www.w3.org/2000/svg"><g transform="translate(-105.09 -141.21)"><path d="m106.68 141.21c-0.876 0-1.587 0.71-1.587 1.587v3.175c0 0.87799 0.71 1.588 1.587 1.588h3.175c0.877 0 1.588-0.71 1.588-1.588v-3.175c0-0.876-0.71-1.587-1.588-1.587zm2.613 4.75a0.184 0.184 0 0 1-0.171-0.022c-0.313-0.222-0.864-0.626-0.864-0.626l-0.478 0.45a0.134 0.134 0 0 1-0.125 0.032 0.135 0.135 0 0 1-0.093-0.088c-0.117-0.344-0.341-1.021-0.341-1.021s-0.48-0.152-0.845-0.262a0.128 0.128 0 0 1-0.091-0.117 0.128 0.128 0 0 1 0.083-0.124c0.444-0.164 1.238-0.46 1.973-0.736l1.482-0.553a0.124 0.124 0 0 1 0.123 0.022 0.12 0.12 0 0 1 0.04 0.117c-0.06 0.28-0.167 0.803-0.278 1.338-0.116 0.562-0.235 1.138-0.303 1.46a0.18 0.18 0 0 1-0.112 0.13zm-1.611-0.506-0.26-0.855 1.837-1.172a0.044 0.044 0 0 1 0.057 0.01 0.043 0.043 0 0 1-5e-3 0.058l-1.572 1.418z" clip-rule="evenodd" fill="#fff" fill-rule="evenodd"/></g></svg>
