<svg width="29" height="27" viewBox="0 0 29 27" fill="none" xmlns="http://www.w3.org/2000/svg">
<circle cx="14.5" cy="13.5" r="13" stroke="#68839E" stroke-linecap="round" stroke-linejoin="round"/>
<path fill-rule="evenodd" clip-rule="evenodd" d="M11.8536 14.1464C12.0488 14.3417 12.0488 14.6583 11.8536 14.8536L10.7071 16H19.5C19.7761 16 20 16.2239 20 16.5C20 16.7761 19.7761 17 19.5 17H10.7071L11.8536 18.1464C12.0488 18.3417 12.0488 18.6583 11.8536 18.8536C11.6583 19.0488 11.3417 19.0488 11.1464 18.8536L9.14645 16.8536C8.95118 16.6583 8.95118 16.3417 9.14645 16.1464L11.1464 14.1464C11.3417 13.9512 11.6583 13.9512 11.8536 14.1464Z" fill="#68839E"/>
<path fill-rule="evenodd" clip-rule="evenodd" d="M17.1464 8.14645C16.9512 8.34171 16.9512 8.65829 17.1464 8.85355L18.2929 10H9.5C9.22386 10 9 10.2239 9 10.5C9 10.7761 9.22386 11 9.5 11H18.2929L17.1464 12.1464C16.9512 12.3417 16.9512 12.6583 17.1464 12.8536C17.3417 13.0488 17.6583 13.0488 17.8536 12.8536L19.8536 10.8536C20.0488 10.6583 20.0488 10.3417 19.8536 10.1464L17.8536 8.14645C17.6583 7.95118 17.3417 7.95118 17.1464 8.14645Z" fill="#68839E"/>
</svg>
