<svg width="24" height="24" version="1.1" viewBox="0 0 6.35 6.35" xml:space="preserve" xmlns="http://www.w3.org/2000/svg"><g transform="translate(-105.51 -140.04)"><path d="m107.1 140.04c-0.876 0-1.587 0.71-1.587 1.587v3.175c0 0.878 0.71 1.588 1.587 1.588h3.175c0.877 0 1.588-0.71 1.588-1.588v-3.175c0-0.876-0.71-1.587-1.588-1.587zm1.033 4.813c1.411 0 2.208-1.192 2.16-2.261 0.149-0.107 0.278-0.241 0.38-0.394-0.137 0.06-0.283 0.101-0.437 0.12a0.763 0.763 0 0 0 0.334-0.42c-0.147 0.086-0.31 0.15-0.483 0.184a0.76 0.76 0 0 0-1.295 0.693 2.157 2.157 0 0 1-1.566-0.794 0.761 0.761 0 0 0 0.235 1.015 0.758 0.758 0 0 1-0.344-0.095 0.761 0.761 0 0 0 0.61 0.755 0.762 0.762 0 0 1-0.344 0.013 0.762 0.762 0 0 0 0.71 0.52699c-0.32 0.25-0.722 0.363-1.125 0.315a2.15 2.15 0 0 0 1.165 0.342z" clip-rule="evenodd" fill="#fff" fill-rule="evenodd"/></g></svg>
