<svg xmlns="http://www.w3.org/2000/svg" viewBox="0 0 5.821 4.233" height="16" width="22">
  <path d="M5.272 2.075a.5.5 0 01.016.042 1.362 1.362 0 01-.137.263c-.12.18-.301.393-.532.596-.469.412-1.077.728-1.709.728-.631 0-1.24-.316-1.708-.728a3.092 3.092 0 01-.532-.597 1.362 1.362 0 01-.137-.262 1.361 1.361 0 01.137-.263c.12-.18.3-.394.532-.597C1.67.845 2.279.53 2.91.53c.632 0 1.24.316 1.709.728.23.203.412.416.531.597.06.09.1.166.122.221zm.549.042c0 .529-1.303 2.116-2.91 2.116C1.302 4.233 0 2.646 0 2.117 0 1.587 1.303 0 2.91 0c1.608 0 2.91 1.587 2.91 2.117zm-3.704 0a.794.794 0 111.587 0 .794.794 0 01-1.587 0zM2.91.794a1.323 1.323 0 100 2.646 1.323 1.323 0 000-2.646z" clip-rule="evenodd" fill="#fff" fill-rule="evenodd"/>
</svg>
