<svg width="22" height="15.998" version="1.1" viewBox="0 0 5.8208 4.2329" xml:space="preserve" xmlns="http://www.w3.org/2000/svg"><g transform="translate(-107.88 -141.61)"><path d="m113.16 143.69a0.49999 0.49999 0 0 1 0.016 0.042 1.362 1.362 0 0 1-0.137 0.263c-0.11999 0.17999-0.30099 0.39298-0.53198 0.59598-0.46899 0.41199-1.077 0.72798-1.709 0.72798-0.63099 0-1.24-0.31599-1.708-0.72798a3.0919 3.0919 0 0 1-0.53198-0.59698 1.362 1.362 0 0 1-0.137-0.262 1.361 1.361 0 0 1 0.137-0.26299c0.12-0.17999 0.29999-0.39399 0.53198-0.59698 0.46799-0.41199 1.077-0.72698 1.708-0.72698 0.63198 0 1.24 0.31599 1.709 0.72798 0.22999 0.20299 0.41199 0.41599 0.53098 0.59698 0.06 0.09 0.1 0.166 0.122 0.22099zm0.54898 0.042c0 0.52899-1.303 2.1159-2.9099 2.1159-1.609 0-2.9109-1.587-2.9109-2.1159 0-0.52998 1.303-2.1169 2.9099-2.1169 1.608 0 2.9099 1.587 2.9099 2.1169zm-3.7039 0a0.79398 0.79398 0 1 1 1.587 0 0.79398 0.79398 0 0 1-1.587 0zm0.79297-1.323a1.323 1.323 0 1 0 0 2.6459 1.323 1.323 0 0 0 0-2.6459z" clip-rule="evenodd" fill="#fff" fill-rule="evenodd" stroke-width=".99997"/></g></svg>
