<svg width="31.998" height="31.998" version="1.1" viewBox="0 0 8.4662 8.4662" xml:space="preserve" xmlns="http://www.w3.org/2000/svg"><g transform="translate(-106.29 -139.48)"><g transform="matrix(.26457 0 0 .26457 106.29 139.48)" fill-rule="evenodd"><circle cx="16" cy="16" r="16" fill="#46beae"/><path d="m17.922 17.383v-2e-3c-0.11 8e-3 -0.677 0.042-1.942 0.042-1.01 0-1.721-0.03-1.971-0.042v3e-3c-3.888-0.171-6.79-0.848-6.79-1.658 0-0.809 2.902-1.486 6.79-1.66v2.644c0.254 0.018 0.982 0.061 1.988 0.061 1.207 0 1.812-0.05 1.925-0.06v-2.643c3.88 0.173 6.775 0.85 6.775 1.658 0 0.81-2.895 1.485-6.775 1.657m0-3.59v-2.366h5.414v-3.608h-14.741v3.608h5.414v2.365c-4.4 0.202-7.709 1.074-7.709 2.118s3.309 1.915 7.709 2.118v7.582h3.913v-7.584c4.393-0.202 7.694-1.073 7.694-2.116s-3.301-1.914-7.694-2.117" fill="#fff" fill-rule="nonzero"/></g></g></svg>
