<svg width="20" height="20" version="1.1" viewBox="0 0 5.2917 5.2917" xml:space="preserve" xmlns="http://www.w3.org/2000/svg"><g transform="translate(-85.268 -234.78)"><path d="m89.785 235.56c-0.2427-0.24271-0.52615-0.43342-0.84122-0.56687-0.32562-0.13792-0.67238-0.20801-1.0297-0.20801-0.35728 0-0.70405 0.0701-1.0297 0.20806-0.31506 0.1334-0.59773 0.32411-0.84123 0.56687-0.24271 0.24271-0.43342 0.52618-0.56686 0.84124-0.13792 0.32559-0.20801 0.67235-0.20801 1.0296s0.07009 0.70405 0.20806 1.0297c0.1334 0.31506 0.3241 0.59774 0.56686 0.84124 0.2427 0.24273 0.52617 0.43341 0.84123 0.56687 0.32637 0.13793 0.67314 0.20807 1.0297 0.20807 0.35655 0 0.70406-0.0701 1.0297-0.20807 0.31507-0.1334 0.59772-0.32409 0.84124-0.56687 0.2427-0.2427 0.43341-0.52618 0.56684-0.84124 0.13793-0.32637 0.20807-0.67313 0.20807-1.0297 0-0.35729-0.07009-0.70406-0.20807-1.0297-0.13277-0.31506-0.32345-0.59853-0.56692-0.84124zm-2.5953-0.4553c-0.13266 0.12588-0.25255 0.28646-0.3588 0.47865-0.1334 0.24124-0.23746 0.52086-0.30907 0.82468h-0.81856c0.28719-0.61888 0.82688-1.0975 1.4864-1.3033zm-1.7119 2.3263c0-0.28494 0.049-0.55856 0.13944-0.81258h0.86084c-0.04675 0.25933-0.07088 0.53296-0.07088 0.81258 0 0.27966 0.02414 0.5533 0.07088 0.81259h-0.86084c-0.0897-0.25403-0.13944-0.52766-0.13944-0.81259zm0.22541 1.0229h0.81862c0.07161 0.30374 0.17562 0.58343 0.30907 0.82468 0.10553 0.19224 0.22615 0.35202 0.3588 0.47865-0.65962-0.20582-1.1993-0.68445-1.4864-1.3033zm2.106 1.405c-0.2955-0.046-0.57439-0.28339-0.79376-0.68217-0.11683-0.2126-0.21032-0.45683-0.27663-0.72369h1.0711l5.3e-5 1.4058zm0-1.6154h-1.1171c-0.04895-0.25778-0.07461-0.53142-0.07461-0.81258 0-0.28115 0.0256-0.55478 0.07461-0.81258h1.1171zm0-1.8355h-1.0711c0.06636-0.26611 0.15979-0.51109 0.27663-0.72367 0.21937-0.39798 0.49826-0.63623 0.79375-0.68219v1.4058zm2.3156 0h-0.81936c-0.0716-0.30375-0.1756-0.58344-0.30906-0.82468-0.10552-0.19223-0.22614-0.35202-0.3588-0.47865 0.66037 0.2058 1.2 0.68445 1.4872 1.3033zm-2.106-1.405c0.29549 0.046 0.57438 0.28341 0.79375 0.68219 0.11684 0.21258 0.21032 0.45683 0.27662 0.72367l-1.0704-5e-5zm0 1.6154h1.1171c0.049 0.2578 0.07461 0.53142 0.07461 0.81259 0 0.28115-0.02561 0.55478-0.07461 0.81256h-1.1171zm0 3.2405v-1.405h1.0711c-0.06636 0.26611-0.15978 0.51109-0.27662 0.72366-0.22011 0.39727-0.49826 0.63545-0.79449 0.68141zm0.6196-0.10173c0.13266-0.12589 0.25254-0.28646 0.3588-0.47866 0.1334-0.24124 0.23746-0.52086 0.30906-0.82468h0.81862c-0.28723 0.61889-0.82693 1.0975-1.4864 1.3033zm1.5725-1.5136h-0.86159c0.04675-0.25935 0.07088-0.53298 0.07088-0.81259 0-0.27967-0.02413-0.5533-0.07088-0.81258h0.86085c0.09043 0.25402 0.13944 0.52765 0.13944 0.81258 7.41e-4 0.28493-0.049 0.55856-0.13872 0.81259z" fill="#84adc6" stroke-width=".26458"/></g></svg>
