<svg width="24" height="24" viewBox="0 0 24 24" fill="none" xmlns="http://www.w3.org/2000/svg">
<path fill-rule="evenodd" clip-rule="evenodd" d="M12 1C5.92487 1 1 5.92487 1 12C1 18.0751 5.92487 23 12 23C18.0751 23 23 18.0751 23 12C23 5.92487 18.0751 1 12 1ZM12 0C5.37258 0 0 5.37258 0 12C0 18.6274 5.37258 24 12 24C18.6274 24 24 18.6274 24 12C24 5.37258 18.6274 0 12 0Z" fill="#B3FF85"/>
<path fill-rule="evenodd" clip-rule="evenodd" d="M8.5 16H13C13.2761 16 13.5 15.7761 13.5 15.5C13.5 15.2239 13.2761 15 13 15H9.70711L13.3536 11.3536C13.5488 11.1583 13.5488 10.8417 13.3536 10.6464C13.1583 10.4512 12.8417 10.4512 12.6464 10.6464L9 14.2929V11C9 10.7239 8.77614 10.5 8.5 10.5C8.22386 10.5 8 10.7239 8 11V15.5C8 15.7761 8.22386 16 8.5 16Z" fill="#B3FF85"/>
<path fill-rule="evenodd" clip-rule="evenodd" d="M12.1464 6.64645C11.9512 6.84171 11.9512 7.15829 12.1464 7.35355L16.6464 11.8536C16.8417 12.0488 17.1583 12.0488 17.3536 11.8536C17.5488 11.6583 17.5488 11.3417 17.3536 11.1464L12.8536 6.64645C12.6583 6.45118 12.3417 6.45118 12.1464 6.64645Z" fill="#B3FF85"/>
</svg>
