<svg width="24" height="24" viewBox="0 0 24 24" fill="none" xmlns="http://www.w3.org/2000/svg">
<path fill-rule="evenodd" clip-rule="evenodd" d="M12 23C18.0751 23 23 18.0751 23 12C23 5.92487 18.0751 1 12 1C5.92487 1 1 5.92487 1 12C1 18.0751 5.92487 23 12 23ZM12 24C18.6274 24 24 18.6274 24 12C24 5.37258 18.6274 0 12 0C5.37258 0 0 5.37258 0 12C0 18.6274 5.37258 24 12 24Z" fill="#FF7878"/>
<path fill-rule="evenodd" clip-rule="evenodd" d="M15.5 8H11C10.7239 8 10.5 8.22386 10.5 8.5C10.5 8.77614 10.7239 9 11 9H14.2929L10.6464 12.6464C10.4512 12.8417 10.4512 13.1583 10.6464 13.3536C10.8417 13.5488 11.1583 13.5488 11.3536 13.3536L15 9.70711V13C15 13.2761 15.2239 13.5 15.5 13.5C15.7761 13.5 16 13.2761 16 13V8.5C16 8.22386 15.7761 8 15.5 8Z" fill="#FF7878"/>
<path fill-rule="evenodd" clip-rule="evenodd" d="M11.8536 17.3536C12.0488 17.1583 12.0488 16.8417 11.8536 16.6464L7.35355 12.1464C7.15829 11.9512 6.84171 11.9512 6.64645 12.1464C6.45118 12.3417 6.45118 12.6583 6.64645 12.8536L11.1464 17.3536C11.3417 17.5488 11.6583 17.5488 11.8536 17.3536Z" fill="#FF7878"/>
</svg>
