<svg width="8" height="8" viewBox="0 0 8 8" fill="none" xmlns="http://www.w3.org/2000/svg">
<path d="M6 8C6.55228 8 7 7.55228 7 7C7 6.44772 6.55228 6 6 6V8ZM1 7H0C0 7.55228 0.447715 8 1 8V7ZM2 2C2 1.44772 1.55228 1 1 1C0.447715 1 0 1.44772 0 2H2ZM7.70711 1.70711C8.09763 1.31658 8.09763 0.683417 7.70711 0.292893C7.31658 -0.097631 6.68342 -0.097631 6.29289 0.292893L7.70711 1.70711ZM6 6H1V8H6V6ZM2 7V2H0V7H2ZM1.70711 7.70711L7.70711 1.70711L6.29289 0.292893L0.292893 6.29289L1.70711 7.70711Z" fill="#021C36"/>
</svg>
