<svg width="169.33mm" height="127mm" version="1.1" viewBox="0 0 169.33 127" xml:space="preserve" xmlns="http://www.w3.org/2000/svg" xmlns:xlink="http://www.w3.org/1999/xlink"><defs><path id="a" d="m-0.6 0.8 0.6-1.8 0.6 1.8-1.6-1.1h2z" fill="#ff0"/></defs><g transform="translate(40.42 -30.777)"><g transform="matrix(.26458 0 0 .26458 -40.42 30.777)"><path d="m0 0h640v480h-640z" fill="#ee1c25"/><use transform="matrix(71.999 0 0 72 120 120)" width="30" height="20" xlink:href="#a"/><use transform="matrix(-12.336 -20.587 20.587 -12.336 240.3 48)" width="30" height="20" xlink:href="#a"/><use transform="matrix(-3.3857 -23.76 23.76 -3.3858 288 95.8)" width="30" height="20" xlink:href="#a"/><use transform="matrix(6.5991 -23.075 23.075 6.5992 288 168)" width="30" height="20" xlink:href="#a"/><use transform="matrix(14.999 -18.736 18.735 14.999 240 216)" width="30" height="20" xlink:href="#a"/></g></g></svg>
