<svg width="18" height="23" version="1.1" viewBox="0 0 4.7624 6.0853" xml:space="preserve" xmlns="http://www.w3.org/2000/svg"><g transform="translate(-102.7 -145.46)"><g fill="#00c5ff"><path d="m103.22 145.46c-0.29068 0-0.5293 0.23862-0.5293 0.5293v5.0273c0 0.29068 0.23862 0.5293 0.5293 0.5293h3.7051c0.29068 0 0.52734-0.23862 0.52734-0.5293v-5.0273c0-0.29068-0.23666-0.5293-0.52734-0.5293zm0 0.26563h3.7051c0.14769 0 0.26367 0.11598 0.26367 0.26367v5.0273c0 0.14769-0.11598 0.26367-0.26367 0.26367h-3.7051c-0.14769 0-0.26367-0.11598-0.26367-0.26367v-5.0273c0-0.14769 0.11598-0.26367 0.26367-0.26367z" color="#000000" style="-inkscape-stroke:none"/><g stroke-width=".26458"><rect x="104.02" y="147.31" width="2.1166" height=".26458" rx=".13229"/><rect x="104.02" y="148.37" width="2.1166" height=".26458" rx=".13229"/><rect x="104.02" y="149.43" width="2.1166" height=".26458" rx=".13229"/></g></g></g></svg>
