<svg width="25" height="23" version="1.1" viewBox="0 0 6.6146 6.0854" xml:space="preserve" xmlns="http://www.w3.org/2000/svg"><g transform="translate(-89.95 -105.64)"><g transform="matrix(.26458 0 0 .26458 89.421 105.11)" fill="none"><path d="m8.25 6h-3.75a1.5 1.5 0 1 1 0-3h17.5v3zm-3.75-4a2.5 2.5 0 0 0-2.5 2.5v19.5a1 1 0 0 0 1 1h23a1 1 0 0 0 1-1v-17a1 1 0 0 0-1-1h-3v-3a1 1 0 0 0-1-1zm21.5 10v-5h-21.5a2.489 2.489 0 0 1-1.5-0.5v17.5h23v-5h-5.5a3.5 3.5 0 1 1 0-7zm0 6v-5h-5.5a2.5 2.5 0 0 0 0 5z" clip-rule="evenodd" fill="#68839e" fill-rule="evenodd"/></g></g></svg>
