<svg version="1.1" viewBox="0 0 25 23" xml:space="preserve" xmlns="http://www.w3.org/2000/svg"><g transform="translate(-384.16 -549.76)"><g transform="translate(382.16 547.76)" clip-rule="evenodd" fill="#68839e" fill-rule="evenodd"><path d="m2 3c0-0.55228 0.44772-1 1-1h23c0.5523 0 1 0.44772 1 1v21c0 0.5523-0.4477 1-1 1h-23c-0.55228 0-1-0.4477-1-1zm24 0h-23v21h23z"/><path d="m6 10.5c0-0.2761 0.17909-0.5 0.4-0.5h10.2c0.2209 0 0.4 0.2239 0.4 0.5s-0.1791 0.5-0.4 0.5h-10.2c-0.22091 0-0.4-0.2239-0.4-0.5z"/><path d="M 6,6.5 C 6,6.22386 6.16281,6 6.36364,6 H 16.6364 C 16.8372,6 17,6.22386 17,6.5 17,6.77614 16.8372,7 16.6364,7 H 6.36364 C 6.16281,7 6,6.77614 6,6.5 Z"/><path d="m6 14.5c0-0.2761 0.16281-0.5 0.36364-0.5h10.273c0.2008 0 0.3636 0.2239 0.3636 0.5s-0.1628 0.5-0.3636 0.5h-10.273c-0.20083 0-0.36364-0.2239-0.36364-0.5z"/><path d="m19 10.5c0-0.2761 0.1791-0.5 0.4-0.5h3.2c0.2209 0 0.4 0.2239 0.4 0.5s-0.1791 0.5-0.4 0.5h-3.2c-0.2209 0-0.4-0.2239-0.4-0.5z"/><path d="m19 6.5c0-0.27614 0.1628-0.5 0.3636-0.5h3.2728c0.2008 0 0.3636 0.22386 0.3636 0.5s-0.1628 0.5-0.3636 0.5h-3.2728c-0.2008 0-0.3636-0.22386-0.3636-0.5z"/><path d="m19 14.5c0-0.2761 0.1628-0.5 0.3636-0.5h3.2728c0.2008 0 0.3636 0.2239 0.3636 0.5s-0.1628 0.5-0.3636 0.5h-3.2728c-0.2008 0-0.3636-0.2239-0.3636-0.5z"/><path d="m6 18.5c0-0.2761 0.16281-0.5 0.36364-0.5h10.273c0.2008 0 0.3636 0.2239 0.3636 0.5s-0.1628 0.5-0.3636 0.5h-10.273c-0.20083 0-0.36364-0.2239-0.36364-0.5z"/><path d="m19 18.5c0-0.2761 0.1628-0.5 0.3636-0.5h3.2728c0.2008 0 0.3636 0.2239 0.3636 0.5s-0.1628 0.5-0.3636 0.5h-3.2728c-0.2008 0-0.3636-0.2239-0.3636-0.5z"/></g></g></svg>
