<svg version="1.1" viewBox="0 0 25 23" xml:space="preserve" xmlns="http://www.w3.org/2000/svg"><g transform="translate(-383.18 -551.09)"><g transform="translate(381.18 549.09)"><rect x="2" y="2" width="25" height="23" rx="1" fill="#00c5ff"/><g clip-rule="evenodd" fill="#021c36" fill-rule="evenodd"><path d="m6 10.5c0-0.2761 0.17909-0.5 0.4-0.5h10.2c0.2209 0 0.4 0.2239 0.4 0.5s-0.1791 0.5-0.4 0.5h-10.2c-0.22091 0-0.4-0.2239-0.4-0.5z"/><path d="M 6,6.5 C 6,6.22386 6.16281,6 6.36364,6 H 16.6364 C 16.8372,6 17,6.22386 17,6.5 17,6.77614 16.8372,7 16.6364,7 H 6.36364 C 6.16281,7 6,6.77614 6,6.5 Z"/><path d="m6 14.5c0-0.2761 0.16281-0.5 0.36364-0.5h10.273c0.2008 0 0.3636 0.2239 0.3636 0.5s-0.1628 0.5-0.3636 0.5h-10.273c-0.20083 0-0.36364-0.2239-0.36364-0.5z"/><path d="m19 10.5c0-0.2761 0.1791-0.5 0.4-0.5h3.2c0.2209 0 0.4 0.2239 0.4 0.5s-0.1791 0.5-0.4 0.5h-3.2c-0.2209 0-0.4-0.2239-0.4-0.5z"/><path d="m19 6.5c0-0.27614 0.1628-0.5 0.3636-0.5h3.2728c0.2008 0 0.3636 0.22386 0.3636 0.5s-0.1628 0.5-0.3636 0.5h-3.2728c-0.2008 0-0.3636-0.22386-0.3636-0.5z"/><path d="m19 14.5c0-0.2761 0.1628-0.5 0.3636-0.5h3.2728c0.2008 0 0.3636 0.2239 0.3636 0.5s-0.1628 0.5-0.3636 0.5h-3.2728c-0.2008 0-0.3636-0.2239-0.3636-0.5z"/><path d="m6 18.5c0-0.2761 0.16281-0.5 0.36364-0.5h10.273c0.2008 0 0.3636 0.2239 0.3636 0.5s-0.1628 0.5-0.3636 0.5h-10.273c-0.20083 0-0.36364-0.2239-0.36364-0.5z"/><path d="m19 18.5c0-0.2761 0.1628-0.5 0.3636-0.5h3.2728c0.2008 0 0.3636 0.2239 0.3636 0.5s-0.1628 0.5-0.3636 0.5h-3.2728c-0.2008 0-0.3636-0.2239-0.3636-0.5z"/></g></g></g></svg>
