<svg width="44" height="44" viewBox="0 0 44 44" fill="none" xmlns="http://www.w3.org/2000/svg">
<path fill-rule="evenodd" clip-rule="evenodd" d="M2 9C2 8.44772 2.44772 8 3 8H37C37.5523 8 38 8.44772 38 9V11H6C5.44772 11 5 11.4477 5 12C5 12.5523 5.44772 13 6 13H38V18H36C34.3431 18 33 19.3431 33 21V26C33 27.6569 34.3431 29 36 29H38V36C38 36.5523 37.5523 37 37 37H3C2.44771 37 2 36.5523 2 36V9ZM40 18V12V9C40 7.34315 38.6569 6 37 6H3C1.34315 6 0 7.34315 0 9V36C0 37.6569 1.34314 39 3 39H37C38.6569 39 40 37.6569 40 36V29H41C42.6569 29 44 27.6569 44 26V21C44 19.3431 42.6569 18 41 18H40ZM35 21C35 20.4477 35.4477 20 36 20H41C41.5523 20 42 20.4477 42 21V26C42 26.5523 41.5523 27 41 27H36C35.4477 27 35 26.5523 35 26V21ZM38.5 25C39.3283 25 40 24.3283 40 23.5C40 22.6715 39.3283 22 38.5 22C37.6715 22 37 22.6715 37 23.5C37 24.3283 37.6715 25 38.5 25ZM12 26C13.1046 26 14 25.1046 14 24C14 22.8954 13.1046 22 12 22C10.8954 22 10 22.8954 10 24C10 25.1046 10.8954 26 12 26ZM16 24C16 25.055 15.5916 26.0146 14.9242 26.7293C16.205 27.4033 17.2772 28.5062 18 29.877C18.7228 28.5062 19.795 27.4033 21.0758 26.7293C20.4084 26.0146 20 25.055 20 24C20 21.7909 21.7909 20 24 20C26.2091 20 28 21.7909 28 24C28 25.055 27.5916 26.0146 26.9242 26.7293C28.8148 27.7241 30.2511 29.6538 30.7795 32C30.9234 32.6392 31 33.3094 31 34H19H17H5C5 33.3094 5.07657 32.6392 5.22053 32C5.74892 29.6538 7.18519 27.7241 9.07582 26.7293C8.40844 26.0146 8 25.055 8 24C8 21.7909 9.79086 20 12 20C14.2091 20 16 21.7909 16 24ZM24 26C25.1046 26 26 25.1046 26 24C26 22.8954 25.1046 22 24 22C22.8954 22 22 22.8954 22 24C22 25.1046 22.8954 26 24 26ZM24 28C21.986 28 19.9961 29.5516 19.2794 32H28.7206C28.0039 29.5516 26.014 28 24 28ZM7.27935 32C7.99611 29.5516 9.98596 28 12 28C14.014 28 16.0039 29.5516 16.7206 32H7.27935Z" fill="#78AECC"/>
</svg>
