<svg width="20" height="20" version="1.1" viewBox="0 0 5.2917 5.2916" xml:space="preserve" xmlns="http://www.w3.org/2000/svg"><g transform="translate(-89.084 -109.81)"><g transform="matrix(.26458 0 0 .26458 88.026 108.75)" fill="none"><path d="m22 14c0 0.5523 0.4477 1 1 1s1-0.4477 1-1v-8.5c0-0.82843-0.6716-1.5-1.5-1.5h-8.5c-0.5523 0-1 0.44771-1 1s0.4477 1 1 1h6.5858l-14.586 14.586v-6.5859c0-0.5523-0.44772-1-1-1s-1 0.4477-1 1v8.5c0 0.8284 0.67157 1.5 1.5 1.5h8.5c0.5523 0 1-0.4477 1-1s-0.4477-1-1-1h-6.5856l14.586-14.586z" clip-rule="evenodd" fill="#004160" fill-rule="evenodd"/></g></g></svg>
