<svg xmlns="http://www.w3.org/2000/svg" viewBox="0 0 50.819 70.644" height="267" width="192.073">
  <g transform="scale(.26458)" fill="none">
    <path d="M157.205 113.488s-14.492 29.169-29.215 49.305c-5.857 8.013-11.751 14.596-16.781 17.341-4.925 2.685-9.093 6.859-12.542 11.485-8.933 11.975-13.056 26.966-13.056 26.966l-37.644-57.299s1.284-56.01 5.804-65.379c6.588-13.653 9.77-41.239 12.301-46.73 1.878-4.075 7.24-25.12 7.754-26.667.224-.666 2.007-1.688 4.324-1.685 1.86 0 5.016 1.808 5.812 5.522 4.025 18.78-.82 31.165-.766 31.716 1.42 14.432-2.849 25.145.145 27.982.11.106.318.056.611-.133 5.19-3.353 37.4-50.597 41.367-51.617 4.189-1.076 31.886 79.193 31.886 79.193z" fill="#167399"/>
    <path d="M96.936 207.244s-.513 25.462-1.98 59.756H0c21.705-46.567 40.576-85.761 40.576-85.761s54.065 1.662 56.36 26.005z" fill="#f99746"/>
    <path d="M190.119 14.77l-11.657 17.194-11.44 16.872c-.697.847-1.505 1.141-2.378 1.057-2.746-.262-6.143-4.246-8.789-6.45l-.268-.223c-3.491-2.904-3.983-8.154-1.096-11.664l17.485-21.264v-.003l5.186-6.305c2.887-3.512 8.106-4.007 11.594-1.102l.268.222c3.489 2.903 3.982 8.153 1.095 11.665z" fill="#167399"/>
    <path d="M178.461 31.962l-11.44 16.873c-.697.847-1.505 1.14-2.378 1.056l7.33-39.6c.017.221 1.263 17.99 6.488 21.67zM127.991 162.793c-5.858 8.013-11.752 14.596-16.782 17.341-4.924 2.686-9.093 6.859-12.541 11.485a903.138 903.138 0 01-12.912-6.206c-5.383-2.632-5.59-10.322-.316-13.172.051-.027.102-.057.152-.084 4.941-2.845 10.003-12.887 10.003-12.887z" fill="#135579"/>
    <path d="M161.275 169H95.724C89.276 169 84 163.679 84 157.174V11.827C84 5.32 89.275 0 95.724 0h65.552C167.724 0 173 5.321 173 11.826v145.348c-.002 6.503-5.276 11.826-11.725 11.826z" fill="#00c5ff"/>
    <path d="M169 12.84V156.16c0 4.862-3.918 8.839-8.706 8.839H96.705c-4.787 0-8.705-3.977-8.705-8.839V12.839C88 7.977 91.917 4 96.705 4h63.59C165.082 4 169 7.977 169 12.84z" fill="#caf3ff"/>
    <path d="M142 9h-27c-2.2 0-4-1.878-4-4.172v-.656C111 1.878 112.8 0 115 0h27c2.2 0 4 1.878 4 4.172v.656C145.998 7.124 144.198 9 142 9z" fill="#00c5ff"/>
    <path d="M31.33 200.557s18.556 17.881 31.064 24.784l9.47-6.758v9.971s18.627 3.313 24.502 0v-27.188L44.051 174.98z" fill="#ed7d2b"/>
    <path d="M47.968 159.268s-11.784 17.735-23.494 36.698c0 0 24.681 17.082 38.061 22.092l17.552-20.223-2.505 24.345s15.532 5.696 22.739 4.209c0 0-.455-22.085-.45-36.554-.002-.001-42.7-12.042-51.903-30.567z" fill="#3085b4"/>
    <circle cx="107.5" cy="75.5" r="8.5" fill="#00c5ff"/>
    <circle cx="107.5" cy="96.5" r="8.5" fill="#00c5ff"/>
    <circle cx="107.5" cy="117.5" r="8.5" fill="#00c5ff"/>
    <circle cx="128.5" cy="75.5" r="8.5" fill="#00c5ff"/>
    <circle cx="128.5" cy="96.5" r="8.5" fill="#00c5ff"/>
    <circle cx="128.5" cy="117.5" r="8.5" fill="#00c5ff"/>
    <circle cx="128.5" cy="138.5" r="8.5" fill="#00c5ff"/>
    <circle cx="149.5" cy="75.5" r="8.5" fill="#00c5ff"/>
    <circle cx="149.5" cy="96.5" r="8.5" fill="#00c5ff"/>
    <circle cx="149.5" cy="117.5" r="8.5" fill="#00c5ff"/>
    <path d="M108.365 79h-1.411v-5.44l-1.685.523v-1.147l2.945-1.055h.151zM109.112 97.324h.806v1.138h-.806V100h-1.411v-1.538h-2.915l-.064-.889 2.964-4.682h1.426zm-2.983 0h1.572v-2.51l-.093.162zM109.771 114.682L107.022 121h-1.489l2.754-5.967h-3.535v-1.142h5.019zM130.81 79h-4.873v-.967l2.3-2.451c.316-.345.549-.646.698-.903.153-.258.23-.502.23-.733 0-.316-.08-.563-.239-.742-.16-.182-.388-.273-.684-.273-.319 0-.571.11-.757.332-.182.218-.273.506-.273.864h-1.416c0-.433.102-.829.307-1.187.209-.358.502-.638.879-.84a2.648 2.648 0 011.284-.307c.733 0 1.301.176 1.705.527.406.352.61.848.61 1.49 0 .351-.091.71-.274 1.074-.182.364-.494.79-.937 1.274l-1.616 1.704h3.056zM126.147 96.504l.41-3.613h3.985v1.176h-2.827l-.176 1.529a2.237 2.237 0 011.069-.269c.677 0 1.208.21 1.592.63.384.42.576 1.008.576 1.763 0 .459-.097.87-.293 1.235a2.056 2.056 0 01-.83.845c-.361.198-.788.298-1.279.298-.43 0-.829-.087-1.196-.26a2.151 2.151 0 01-.874-.736 2.011 2.011 0 01-.337-1.08h1.396c.029.297.132.528.308.694.179.163.411.244.698.244.319 0 .565-.114.737-.342.173-.231.259-.557.259-.976 0-.404-.099-.713-.298-.928-.198-.215-.48-.322-.845-.322-.335 0-.607.087-.815.263l-.137.127zM130.571 115.78c0 .345-.086.651-.259.918-.172.267-.41.48-.713.64.345.166.619.395.821.688.202.29.302.632.302 1.026 0 .631-.214 1.131-.644 1.499-.43.364-1.014.547-1.753.547-.739 0-1.325-.184-1.758-.552-.433-.368-.649-.866-.649-1.494 0-.394.101-.738.303-1.031.201-.292.473-.52.815-.683a1.869 1.869 0 01-.713-.64 1.68 1.68 0 01-.254-.918c0-.605.202-1.087.606-1.445.403-.361.952-.542 1.645-.542.69 0 1.237.179 1.641.537.407.355.61.838.61 1.45zm-1.265 3.169c0-.309-.089-.556-.268-.742-.179-.186-.42-.278-.723-.278-.299 0-.539.092-.718.278-.179.182-.268.43-.268.742 0 .303.088.547.264.733.175.185.419.278.732.278.306 0 .545-.09.718-.269.176-.179.263-.426.263-.742zm-.146-3.1c0-.277-.073-.498-.22-.664-.146-.17-.353-.254-.62-.254-.264 0-.469.081-.615.244-.147.163-.22.387-.22.674 0 .283.073.511.22.683.146.173.353.259.62.259s.472-.086.615-.259c.147-.172.22-.4.22-.683zM130.722 139.061c0 .983-.203 1.735-.61 2.255-.407.521-1.002.782-1.787.782-.775 0-1.367-.256-1.777-.767-.411-.511-.62-1.243-.63-2.197v-1.309c0-.993.205-1.746.615-2.261.413-.514 1.007-.771 1.782-.771.775 0 1.367.256 1.778.767.41.507.62 1.238.629 2.192zm-1.411-1.436c0-.589-.081-1.017-.244-1.284-.159-.27-.41-.405-.752-.405-.332 0-.578.128-.737.385-.156.254-.239.653-.249 1.197v1.728c0 .58.078 1.011.234 1.294.16.28.414.42.762.42.345 0 .594-.135.747-.405.153-.27.233-.684.239-1.241zM148.373 74.82h.752c.358 0 .623-.09.796-.268.172-.18.258-.417.258-.713 0-.287-.086-.51-.258-.67-.17-.159-.404-.238-.703-.238-.271 0-.497.075-.679.224a.705.705 0 00-.274.576h-1.411c0-.37.1-.703.298-.996.202-.296.482-.527.84-.693a2.816 2.816 0 011.191-.249c.752 0 1.342.18 1.768.542.426.358.64.853.64 1.484 0 .326-.1.625-.298.899a1.94 1.94 0 01-.781.63c.4.143.698.358.893.644.199.287.298.625.298 1.016 0 .631-.231 1.138-.693 1.518-.459.381-1.068.572-1.827.572-.709 0-1.29-.187-1.743-.562-.449-.374-.674-.869-.674-1.484h1.412c0 .267.099.485.297.654.202.17.45.254.743.254.335 0 .597-.088.786-.264.192-.179.288-.415.288-.708 0-.71-.391-1.064-1.172-1.064h-.747zM150.765 92.817v1.163h-.136c-.638.01-1.153.175-1.543.497-.388.323-.62.77-.699 1.343.378-.384.855-.576 1.431-.576.619 0 1.11.222 1.475.664.364.443.547 1.026.547 1.748a2.6 2.6 0 01-.303 1.255 2.136 2.136 0 01-.85.874 2.454 2.454 0 01-1.24.313c-.749 0-1.354-.26-1.816-.782-.459-.52-.689-1.215-.689-2.085v-.507c0-.772.145-1.452.435-2.041a3.205 3.205 0 011.255-1.372c.547-.326 1.18-.49 1.899-.494zm-1.377 3.56c-.227 0-.434.06-.62.18a1.062 1.062 0 00-.41.47v.43c0 .471.093.84.279 1.108a.899.899 0 00.781.395.883.883 0 00.732-.356c.189-.241.283-.552.283-.933 0-.387-.094-.7-.283-.938a.923.923 0 00-.762-.356zM150.238 118.158a1.779 1.779 0 01-1.289.542c-.628 0-1.131-.215-1.509-.644-.377-.433-.566-1.016-.566-1.748 0-.466.101-.892.303-1.28.205-.39.489-.693.854-.908a2.353 2.353 0 011.231-.327c.468 0 .885.117 1.25.352.364.234.647.571.849 1.01.202.44.304.943.308 1.509v.523c0 1.184-.295 2.115-.884 2.792-.589.678-1.424 1.039-2.505 1.084l-.347.005v-1.176l.313-.005c1.227-.056 1.891-.632 1.992-1.729zm-.942-.537a.978.978 0 00.586-.176c.166-.117.291-.258.376-.424v-.582c0-.478-.092-.849-.274-1.113a.846.846 0 00-.732-.395c-.283 0-.516.13-.698.39-.183.257-.274.581-.274.972 0 .387.088.706.264.957.179.247.429.371.752.371z" fill="#caf3ff"/>
    <path d="M183.7 73.005l-.195.067-17.535 4.854c-5.198 1.344-10.571-1.485-11.944-6.287l-.703-2.459c-1.318-4.608 1.516-9.428 6.345-10.992l3.902-1.008 13.633-3.845c5.197-1.345 10.571 1.485 11.942 6.286l.703 2.46c1.3 4.545-1.44 9.295-6.148 10.924zM184.651 94.693l-.195.068-11.818 3.053c-5.198 1.344-10.571-1.485-11.944-6.287l-.703-2.46c-1.318-4.608 1.516-9.428 6.345-10.99l3.902-1.01 7.916-2.044c5.197-1.344 10.571 1.485 11.942 6.287l.703 2.459c1.3 4.546-1.439 9.295-6.148 10.924zM185.602 116.382l-.195.067-8.739 2.239c-5.197 1.345-10.571-1.485-11.944-6.286l-.703-2.459c-1.318-4.609 1.516-9.429 6.345-10.992l3.902-1.01 4.937-1.476c5.197-1.345 10.471 1.731 11.842 6.533l.703 2.459c1.3 4.546-1.439 9.295-6.148 10.925z" fill="#167399"/>
    <path d="M83.96 124.166s-2.578-22.645-4.957-27.06c-2.378-4.417-4.392-13.259-.732-19.829 3.66-6.573 4.925-19.216 4.925-19.216 1.42 14.433-2.849 25.146.145 27.983.11.106.318.055.612-.133z" fill="#135579"/>
  </g>
</svg>
