<svg width="192.07" height="267" version="1.1" viewBox="0 0 50.819 70.643" xml:space="preserve" xmlns="http://www.w3.org/2000/svg"><g transform="translate(-66.844 -77.094)"><g transform="matrix(.26458 0 0 .26458 66.844 77.095)"><path d="m157.2 113.49s-14.492 29.169-29.215 49.305c-5.857 8.013-11.751 14.596-16.781 17.341-4.925 2.685-9.093 6.859-12.542 11.485-8.933 11.975-13.056 26.966-13.056 26.966l-37.644-57.299s1.284-56.01 5.804-65.379c6.588-13.653 9.77-41.239 12.301-46.73 1.878-4.075 7.24-25.12 7.754-26.667 0.224-0.666 2.007-1.688 4.324-1.685 1.86 0 5.016 1.808 5.812 5.522 4.025 18.78-0.82 31.165-0.766 31.716 1.42 14.432-2.849 25.145 0.145 27.982 0.11 0.106 0.318 0.056 0.611-0.133 5.19-3.353 37.4-50.597 41.367-51.617 4.189-1.076 31.886 79.193 31.886 79.193z" fill="#167399"/><path d="m96.936 207.24s-0.513 25.462-1.98 59.756h-94.956c21.705-46.567 40.576-85.761 40.576-85.761s54.065 1.662 56.36 26.005z" fill="#f99746"/><path d="m190.12 14.77-11.657 17.194-11.44 16.872c-0.697 0.847-1.505 1.141-2.378 1.057-2.746-0.262-6.143-4.246-8.789-6.45l-0.268-0.223c-3.491-2.904-3.983-8.154-1.096-11.664l17.485-21.264v-3e-3l5.186-6.305c2.887-3.512 8.106-4.007 11.594-1.102l0.268 0.222c3.489 2.903 3.982 8.153 1.095 11.665z" fill="#167399"/><path d="m178.46 31.962-11.44 16.873c-0.697 0.847-1.505 1.14-2.378 1.056l7.33-39.6c0.017 0.221 1.263 17.99 6.488 21.67zm-50.47 130.83c-5.858 8.013-11.752 14.596-16.782 17.341-4.924 2.686-9.093 6.859-12.541 11.485a903.14 903.14 0 0 1-12.912-6.206c-5.383-2.632-5.59-10.322-0.316-13.172 0.051-0.027 0.102-0.057 0.152-0.084 4.941-2.845 10.003-12.887 10.003-12.887z" fill="#135579"/><path d="m161.28 169h-65.551c-6.448 0-11.724-5.321-11.724-11.826v-145.35c0-6.507 5.275-11.827 11.724-11.827h65.552c6.448 0 11.724 5.321 11.724 11.826v145.35c-2e-3 6.503-5.276 11.826-11.725 11.826z" fill="#00c5ff"/><path d="m169 12.84v143.32c0 4.862-3.918 8.839-8.706 8.839h-63.589c-4.787 0-8.705-3.977-8.705-8.839v-143.32c0-4.862 3.917-8.839 8.705-8.839h63.59c4.787 0 8.705 3.977 8.705 8.84z" fill="#caf3ff"/><path d="m142 9h-27c-2.2 0-4-1.878-4-4.172v-0.656c0-2.294 1.8-4.172 4-4.172h27c2.2 0 4 1.878 4 4.172v0.656c-2e-3 2.296-1.802 4.172-4 4.172z" fill="#00c5ff"/><path d="m31.33 200.56s18.556 17.881 31.064 24.784l9.47-6.758v9.971s18.627 3.313 24.502 0v-27.188l-52.315-26.386z" fill="#ed7d2b"/><path d="m47.968 159.27s-11.784 17.735-23.494 36.698c0 0 24.681 17.082 38.061 22.092l17.552-20.223-2.505 24.345s15.532 5.696 22.739 4.209c0 0-0.455-22.085-0.45-36.554-2e-3 -1e-3 -42.7-12.042-51.903-30.567z" fill="#3085b4"/><g fill="#00c5ff"><circle cx="107.5" cy="75.5" r="8.5"/><circle cx="107.5" cy="96.5" r="8.5"/><circle cx="107.5" cy="117.5" r="8.5"/><circle cx="128.5" cy="75.5" r="8.5"/><circle cx="128.5" cy="96.5" r="8.5"/><circle cx="128.5" cy="117.5" r="8.5"/><circle cx="128.5" cy="138.5" r="8.5"/><circle cx="149.5" cy="75.5" r="8.5"/><circle cx="149.5" cy="96.5" r="8.5"/><circle cx="149.5" cy="117.5" r="8.5"/></g><path d="m108.36 79h-1.411v-5.44l-1.685 0.523v-1.147l2.945-1.055h0.151zm0.747 18.324h0.806v1.138h-0.806v1.538h-1.411v-1.538h-2.915l-0.064-0.889 2.964-4.682h1.426zm-2.983 0h1.572v-2.51l-0.093 0.162zm3.642 17.358-2.749 6.318h-1.489l2.754-5.967h-3.535v-1.142h5.019zm21.039-35.682h-4.873v-0.967l2.3-2.451c0.316-0.345 0.549-0.646 0.698-0.903 0.153-0.258 0.23-0.502 0.23-0.733 0-0.316-0.08-0.563-0.239-0.742-0.16-0.182-0.388-0.273-0.684-0.273-0.319 0-0.571 0.11-0.757 0.332-0.182 0.218-0.273 0.506-0.273 0.864h-1.416c0-0.433 0.102-0.829 0.307-1.187 0.209-0.358 0.502-0.638 0.879-0.84a2.648 2.648 0 0 1 1.284-0.307c0.733 0 1.301 0.176 1.705 0.527 0.406 0.352 0.61 0.848 0.61 1.49 0 0.351-0.091 0.71-0.274 1.074-0.182 0.364-0.494 0.79-0.937 1.274l-1.616 1.704h3.056zm-4.663 17.504 0.41-3.613h3.985v1.176h-2.827l-0.176 1.529a2.237 2.237 0 0 1 1.069-0.269c0.677 0 1.208 0.21 1.592 0.63s0.576 1.008 0.576 1.763c0 0.459-0.097 0.87-0.293 1.235a2.056 2.056 0 0 1-0.83 0.845c-0.361 0.198-0.788 0.298-1.279 0.298-0.43 0-0.829-0.087-1.196-0.26a2.151 2.151 0 0 1-0.874-0.736 2.011 2.011 0 0 1-0.337-1.08h1.396c0.029 0.297 0.132 0.528 0.308 0.694 0.179 0.163 0.411 0.244 0.698 0.244 0.319 0 0.565-0.114 0.737-0.342 0.173-0.231 0.259-0.557 0.259-0.976 0-0.404-0.099-0.713-0.298-0.928-0.198-0.215-0.48-0.322-0.845-0.322-0.335 0-0.607 0.087-0.815 0.263l-0.137 0.127zm4.424 19.276c0 0.345-0.086 0.651-0.259 0.918-0.172 0.267-0.41 0.48-0.713 0.64 0.345 0.166 0.619 0.395 0.821 0.688 0.202 0.29 0.302 0.632 0.302 1.026 0 0.631-0.214 1.131-0.644 1.499-0.43 0.364-1.014 0.547-1.753 0.547s-1.325-0.184-1.758-0.552-0.649-0.866-0.649-1.494c0-0.394 0.101-0.738 0.303-1.031 0.201-0.292 0.473-0.52 0.815-0.683a1.869 1.869 0 0 1-0.713-0.64 1.68 1.68 0 0 1-0.254-0.918c0-0.605 0.202-1.087 0.606-1.445 0.403-0.361 0.952-0.542 1.645-0.542 0.69 0 1.237 0.179 1.641 0.537 0.407 0.355 0.61 0.838 0.61 1.45zm-1.265 3.169c0-0.309-0.089-0.556-0.268-0.742s-0.42-0.278-0.723-0.278c-0.299 0-0.539 0.092-0.718 0.278-0.179 0.182-0.268 0.43-0.268 0.742 0 0.303 0.088 0.547 0.264 0.733 0.175 0.185 0.419 0.278 0.732 0.278 0.306 0 0.545-0.09 0.718-0.269 0.176-0.179 0.263-0.426 0.263-0.742zm-0.146-3.1c0-0.277-0.073-0.498-0.22-0.664-0.146-0.17-0.353-0.254-0.62-0.254-0.264 0-0.469 0.081-0.615 0.244-0.147 0.163-0.22 0.387-0.22 0.674 0 0.283 0.073 0.511 0.22 0.683 0.146 0.173 0.353 0.259 0.62 0.259s0.472-0.086 0.615-0.259c0.147-0.172 0.22-0.4 0.22-0.683zm1.562 23.212c0 0.983-0.203 1.735-0.61 2.255-0.407 0.521-1.002 0.782-1.787 0.782-0.775 0-1.367-0.256-1.777-0.767-0.411-0.511-0.62-1.243-0.63-2.197v-1.309c0-0.993 0.205-1.746 0.615-2.261 0.413-0.514 1.007-0.771 1.782-0.771s1.367 0.256 1.778 0.767c0.41 0.507 0.62 1.238 0.629 2.192zm-1.411-1.436c0-0.589-0.081-1.017-0.244-1.284-0.159-0.27-0.41-0.405-0.752-0.405-0.332 0-0.578 0.128-0.737 0.385-0.156 0.254-0.239 0.653-0.249 1.197v1.728c0 0.58 0.078 1.011 0.234 1.294 0.16 0.28 0.414 0.42 0.762 0.42 0.345 0 0.594-0.135 0.747-0.405s0.233-0.684 0.239-1.241zm19.062-62.805h0.752c0.358 0 0.623-0.09 0.796-0.268 0.172-0.18 0.258-0.417 0.258-0.713 0-0.287-0.086-0.51-0.258-0.67-0.17-0.159-0.404-0.238-0.703-0.238-0.271 0-0.497 0.075-0.679 0.224a0.705 0.705 0 0 0-0.274 0.576h-1.411c0-0.37 0.1-0.703 0.298-0.996 0.202-0.296 0.482-0.527 0.84-0.693a2.816 2.816 0 0 1 1.191-0.249c0.752 0 1.342 0.18 1.768 0.542 0.426 0.358 0.64 0.853 0.64 1.484 0 0.326-0.1 0.625-0.298 0.899a1.94 1.94 0 0 1-0.781 0.63c0.4 0.143 0.698 0.358 0.893 0.644 0.199 0.287 0.298 0.625 0.298 1.016 0 0.631-0.231 1.138-0.693 1.518-0.459 0.381-1.068 0.572-1.827 0.572-0.709 0-1.29-0.187-1.743-0.562-0.449-0.374-0.674-0.869-0.674-1.484h1.412c0 0.267 0.099 0.485 0.297 0.654 0.202 0.17 0.45 0.254 0.743 0.254 0.335 0 0.597-0.088 0.786-0.264 0.192-0.179 0.288-0.415 0.288-0.708 0-0.71-0.391-1.064-1.172-1.064h-0.747zm2.392 17.997v1.163h-0.136c-0.638 0.01-1.153 0.175-1.543 0.497-0.388 0.323-0.62 0.77-0.699 1.343 0.378-0.384 0.855-0.576 1.431-0.576 0.619 0 1.11 0.222 1.475 0.664 0.364 0.443 0.547 1.026 0.547 1.748a2.6 2.6 0 0 1-0.303 1.255 2.136 2.136 0 0 1-0.85 0.874 2.454 2.454 0 0 1-1.24 0.313c-0.749 0-1.354-0.26-1.816-0.782-0.459-0.52-0.689-1.215-0.689-2.085v-0.507c0-0.772 0.145-1.452 0.435-2.041a3.205 3.205 0 0 1 1.255-1.372c0.547-0.326 1.18-0.49 1.899-0.494zm-1.377 3.56c-0.227 0-0.434 0.06-0.62 0.18a1.062 1.062 0 0 0-0.41 0.47v0.43c0 0.471 0.093 0.84 0.279 1.108a0.899 0.899 0 0 0 0.781 0.395 0.883 0.883 0 0 0 0.732-0.356c0.189-0.241 0.283-0.552 0.283-0.933 0-0.387-0.094-0.7-0.283-0.938a0.923 0.923 0 0 0-0.762-0.356zm0.85 21.781a1.779 1.779 0 0 1-1.289 0.542c-0.628 0-1.131-0.215-1.509-0.644-0.377-0.433-0.566-1.016-0.566-1.748 0-0.466 0.101-0.892 0.303-1.28 0.205-0.39 0.489-0.693 0.854-0.908a2.353 2.353 0 0 1 1.231-0.327c0.468 0 0.885 0.117 1.25 0.352 0.364 0.234 0.647 0.571 0.849 1.01 0.202 0.44 0.304 0.943 0.308 1.509v0.523c0 1.184-0.295 2.115-0.884 2.792-0.589 0.678-1.424 1.039-2.505 1.084l-0.347 5e-3v-1.176l0.313-5e-3c1.227-0.056 1.891-0.632 1.992-1.729zm-0.942-0.537a0.978 0.978 0 0 0 0.586-0.176c0.166-0.117 0.291-0.258 0.376-0.424v-0.582c0-0.478-0.092-0.849-0.274-1.113a0.846 0.846 0 0 0-0.732-0.395c-0.283 0-0.516 0.13-0.698 0.39-0.183 0.257-0.274 0.581-0.274 0.972 0 0.387 0.088 0.706 0.264 0.957 0.179 0.247 0.429 0.371 0.752 0.371z" fill="#caf3ff"/><path d="m183.7 73.005-0.195 0.067-17.535 4.854c-5.198 1.344-10.571-1.485-11.944-6.287l-0.703-2.459c-1.318-4.608 1.516-9.428 6.345-10.992l3.902-1.008 13.633-3.845c5.197-1.345 10.571 1.485 11.942 6.286l0.703 2.46c1.3 4.545-1.44 9.295-6.148 10.924zm0.951 21.688-0.195 0.068-11.818 3.053c-5.198 1.344-10.571-1.485-11.944-6.287l-0.703-2.46c-1.318-4.608 1.516-9.428 6.345-10.99l3.902-1.01 7.916-2.044c5.197-1.344 10.571 1.485 11.942 6.287l0.703 2.459c1.3 4.546-1.439 9.295-6.148 10.924zm0.951 21.689-0.195 0.067-8.739 2.239c-5.197 1.345-10.571-1.485-11.944-6.286l-0.703-2.459c-1.318-4.609 1.516-9.429 6.345-10.992l3.902-1.01 4.937-1.476c5.197-1.345 10.471 1.731 11.842 6.533l0.703 2.459c1.3 4.546-1.439 9.295-6.148 10.925z" fill="#167399"/><path d="m83.96 124.17s-2.578-22.645-4.957-27.06c-2.378-4.417-4.392-13.259-0.732-19.829 3.66-6.573 4.925-19.216 4.925-19.216 1.42 14.433-2.849 25.146 0.145 27.983 0.11 0.106 0.318 0.055 0.612-0.133z" fill="#135579"/></g></g></svg>
