<svg width="64" height="64" version="1.1" viewBox="0 0 16.933 16.933" xml:space="preserve" xmlns="http://www.w3.org/2000/svg"><defs><linearGradient id="a" x1="32" x2="32" y2="64" gradientUnits="userSpaceOnUse"><stop stop-color="#0B3B9D" offset="0"/><stop stop-color="#0A2D8B" offset="1"/></linearGradient><clipPath id="b"><rect transform="translate(17,9)" width="30" height="45" fill="#fff"/></clipPath></defs><g transform="translate(-78.869 -121.09)"><g transform="matrix(.26458 0 0 .26458 78.869 121.09)"><rect width="64" height="64" rx="16" fill="url(#a)"/><g clip-path="url(#b)" fill="#fff"><path d="m45.093 46.418c1.249-2.1975 1.9073-4.6925 1.9073-7.2117v-15.407c0-2.6649-0.7383-5.2874-2.1411-7.588-2.7441-4.5164-7.5492-7.2117-12.859-7.2117s-10.115 2.6953-12.859 7.2117c-1.4028 2.3006-2.1411 4.9231-2.1411 7.588v15.407c0 2.5192 0.6583 5.0142 1.9073 7.2117 2.6518 4.6802 7.6723 7.588 13.093 7.588s10.435-2.9138 13.093-7.588zm-0.1907-7.2117c0 2.1671-0.5661 4.31-1.6428 6.204-2.2826 4.0246-6.6017 6.5317-11.265 6.5317-4.6636 0-8.9827-2.501-11.265-6.5317-1.0706-1.894-1.6366-4.0429-1.6366-6.204v-15.407c0-2.2886 0.6337-4.5468 1.8396-6.5257 2.3626-3.8912 6.4971-6.2101 11.068-6.2101s8.7059 2.3189 11.068 6.204c1.2059 1.979 1.8396 4.2372 1.8396 6.5257v15.413z"/><path d="m42.047 44.615c0.9537-1.6876 1.4643-3.5998 1.4643-5.5302v-4.7531c0-0.5706-0.4675-1.032-1.0459-1.032-0.5783 0-1.0459 0.4614-1.0459 1.032v4.7531c0 1.5783-0.4123 3.1445-1.1998 4.5225-1.6673 2.938-4.8175 4.7713-8.2198 4.7713-3.4024 0-6.5525-1.8272-8.2199-4.7713-0.7814-1.378-1.1997-2.9442-1.1997-4.5225v-4.7531c0-0.5706-0.4676-1.032-1.046-1.032-0.5783 0-1.0459 0.4614-1.0459 1.032v4.7531c0 1.9304 0.5045 3.8426 1.4643 5.5302 2.0365 3.5936 5.888 5.8276 10.047 5.8276 4.1591 0 8.0106-2.234 10.047-5.8276z"/><path d="m43.511 26.786v-3.4966c0-0.091-0.0184-0.1821-0.043-0.2671-0.4061-5.9004-5.3897-10.581-11.468-10.581-6.0788 0-11.062 4.6803-11.468 10.581-0.0246 0.085-0.043 0.1761-0.043 0.2671v3.4966c0 0.5706 0.4676 1.032 1.0459 1.032 0.5784 0 1.046-0.4614 1.046-1.032v-2.9867c0-5.1234 4.2268-9.2938 9.4196-9.2938 5.1927 0 9.4196 4.1704 9.4196 9.2938v2.9867c0 0.5706 0.4676 1.032 1.0459 1.032 0.5784 0 1.0459-0.4614 1.0459-1.032z"/><path d="m43.511 30.471c0-0.5706-0.4676-1.0319-1.046-1.0319-2.4979 0-4.5344 2.0093-4.5344 4.4739 0 0.0425 0.0061 0.0789 0.0123 0.1153-0.0062 0.0364-0.0123 0.0728-0.0123 0.1153v4.7532c0 0.9895-0.2584 1.9729-0.7506 2.8409-1.0521 1.8576-3.0333 3.0049-5.1744 3.0049s-4.1222-1.1534-5.1743-3.0049c-0.4922-0.868-0.7506-1.8514-0.7506-2.8409v-4.7532c0-0.0425-0.0062-0.0789-0.0123-0.1153 0.0061-0.0364 0.0123-0.0728 0.0123-0.1153 0-2.4646-2.0365-4.4739-4.5345-4.4739-0.5783 0-1.0459 0.4613-1.0459 1.0319 0 0.5707 0.4676 1.032 1.0459 1.032 1.3475 0 2.4426 1.0805 2.4426 2.41 0 0.0425 0.0062 0.0789 0.0123 0.1153-0.0061 0.0364-0.0123 0.0728-0.0123 0.1153v4.7532c0 1.3415 0.3507 2.677 1.0213 3.8486 1.4213 2.5071 4.11 4.0672 7.0017 4.0672 2.8978 0 5.5804-1.5601 7.0016-4.0672 0.6645-1.1776 1.0214-2.5071 1.0214-3.8486v-4.7532c0-0.0425-0.0062-0.0789-0.0124-0.1153 0.0062-0.0364 0.0124-0.0728 0.0124-0.1153 0-1.3295 1.0951-2.41 2.4425-2.41 0.5661 0 1.0337-0.4613 1.0337-1.032z"/><path d="m31.956 43.061c-2.3564-0.0243-4.233-1.9486-4.233-4.2736v-7.7034c0-0.2914-0.1415-0.5645-0.3814-0.7345-2.0058-1.4569-3.1871-3.7454-3.1932-6.2222-0.0062-2.07 0.8121-4.0186 2.2949-5.4816 1.4828-1.469 3.4577-2.2764 5.5558-2.2764 4.3314 0 7.8507 3.4723 7.8507 7.7459 0 2.4828-1.1875 4.7774-3.1932 6.2343-0.24 0.17-0.3815 0.4431-0.3815 0.7345v7.758c0 2.3371-1.9442 4.2432-4.3191 4.219zm0.0431-24.755c-1.5689 0-3.0517 0.607-4.1592 1.7058-1.1136 1.0987-1.7227 2.5556-1.7227 4.1097 0.0062 1.9789 1.0152 3.8 2.701 4.8745 0.5476 0.346 0.8736 0.9409 0.8736 1.5904v8.2619c0 1.2566 1.0337 2.2764 2.3073 2.2764s2.3072-1.0198 2.3072-2.2764v-8.274c0-0.6435 0.3261-1.2323 0.8675-1.5783 1.692-1.0745 2.701-2.9017 2.701-4.8867 0.0061-3.1991-2.6333-5.8033-5.8757-5.8033z"/></g></g></g></svg>
