<svg width="132.29" height="178.45" version="1.1" viewBox="0 0 35.001 47.216" xml:space="preserve" xmlns="http://www.w3.org/2000/svg"><g transform="translate(-84.618 -94.384)"><g transform="translate(84.618 94.384)"><path d="m21.197 22.336-3.688 0.15-3.686-0.15-0.434 5.362 4.12 4.508 4.119-4.508z" fill="#caf3ff"/><path d="m32.552 33.26-10.924-5.562-4.178 3.798-4.06-3.798-11.043 5.562s-2.599 5.861-2.327 13.38l17.372 0.219 17.59 0.357c0.269-7.517-2.43-13.956-2.43-13.956z" fill="#167399"/><path d="m13.668 24.242s3.998 4.085 7.735 0.683l-0.209-2.59h-7.371z" fill="#13779f"/><path d="m25.154 4.746c-2.946-5.005-7.99-4.081-7.99-4.081l7e-3 0.474c-1.103 0.315-5.079 1.564-7.901 3.942 0 0 0.357 9.032 1.416 12.127 1.06 3.094 3.231 7.366 6.82 7.521 3.591-0.155 5.762-4.427 6.82-7.521 1.064-3.095 0.828-12.462 0.828-12.462z" fill="#caf3ff"/><path d="m8.953 3.953 0.858 8.944s-0.323-6.92 0.05-7.457c0.373-0.539 1.393-0.986 7.477-1.049 3.78-0.038 6.582-0.387 7.124-0.038 0.541 0.348 0.575 7.906 0.575 7.906s0.88-8.82 0.71-10.113c0 0-11.663-5.87-16.794 1.807z" fill="#13779f"/><path d="m24.88 12.569s1.393-1.4 2.445-1.166c0.65 0.143 1.189 1.573 0.68 3.964-0.586 2.757-3.024 2.658-3.294 2.506-0.27-0.153-0.575-1.412-0.575-1.412zm-14.745 0.328s-1.393-1.4-2.445-1.166c-0.65 0.143-1.189 1.573-0.68 3.964 0.586 2.757 3.024 2.658 3.294 2.506 0.272-0.155 0.575-1.412 0.575-1.412z" fill="#caf3ff"/></g></g></svg>
