<svg version="1.1" viewBox="0 0 300 300" xml:space="preserve" xmlns="http://www.w3.org/2000/svg"><g transform="translate(-65.389 -108.81)"><g transform="matrix(35.436 0 0 35.436 -101.9 -112.8)" stroke-width=".084666"><circle cx="8.954" cy="10.487" r="4.233" fill="#f7931a" fill-rule="evenodd"/><path d="m10.856 9.963c0.083-0.554-0.34-0.852-0.917-1.051l0.187-0.752-0.457-0.114-0.183 0.732c-0.12-0.03-0.243-0.058-0.366-0.086l0.184-0.737-0.457-0.114-0.188 0.751c-0.1-0.022-0.197-0.044-0.292-0.068v-4e-3l-0.63-0.157-0.122 0.488s0.34 0.078 0.333 0.083c0.185 0.046 0.218 0.169 0.213 0.266l-0.214 0.856c0.013 3e-3 0.03 8e-3 0.048 0.015l-0.048-0.012-0.3 1.2c-0.022 0.055-0.08 0.14-0.21 0.108a7.442 7.442 0 0 1-0.331-0.083l-0.227 0.523 0.595 0.148 0.325 0.085-0.189 0.76 0.457 0.113 0.188-0.751c0.124 0.033 0.246 0.065 0.364 0.094l-0.187 0.748 0.458 0.114 0.189-0.758c0.78 0.148 1.366 0.088 1.613-0.617 0.199-0.568-0.01-0.896-0.42-1.11 0.299-0.068 0.523-0.265 0.584-0.67zm-1.046 1.465c-0.14 0.568-1.097 0.261-1.407 0.184l0.251-1.006c0.31 0.077 1.304 0.23 1.156 0.822zm0.142-1.473c-0.129 0.517-0.925 0.254-1.183 0.19l0.228-0.913c0.258 0.064 1.09 0.184 0.955 0.723z" fill="#fff"/></g></g></svg>
