<svg xmlns="http://www.w3.org/2000/svg" viewBox="0 0 8.467 8.467" height="32" width="32">
  <g transform="translate(-4.72 -6.254) scale(1.00005)">
    <circle cx="8.954" cy="10.487" r="4.233" fill="#f7931a" fill-rule="evenodd"/>
    <path d="M10.856 9.963c.083-.554-.34-.852-.917-1.051l.187-.752-.457-.114-.183.732c-.12-.03-.243-.058-.366-.086l.184-.737-.457-.114-.188.751c-.1-.022-.197-.044-.292-.068V8.52l-.63-.157-.122.488s.34.078.333.083c.185.046.218.169.213.266l-.214.856c.013.003.03.008.048.015l-.048-.012-.3 1.2c-.022.055-.08.14-.21.108a7.442 7.442 0 01-.331-.083l-.227.523.595.148.325.085-.189.76.457.113.188-.751c.124.033.246.065.364.094l-.187.748.458.114.189-.758c.78.148 1.366.088 1.613-.617.199-.568-.01-.896-.42-1.11.299-.068.523-.265.584-.67zM9.81 11.428c-.14.568-1.097.261-1.407.184l.251-1.006c.31.077 1.304.23 1.156.822zm.142-1.473c-.129.517-.925.254-1.183.19l.228-.913c.258.064 1.09.184.955.723z" fill="#fff"/>
  </g>
</svg>
