<svg width="14" height="14" version="1.1" viewBox="0 0 3.7042 3.7042" xml:space="preserve" xmlns="http://www.w3.org/2000/svg"><g transform="translate(-112.44 -126.5)"><g transform="matrix(.26458 0 0 .26458 112.44 126.5)" fill="none"><path d="m7 0c-3.8597 0-7 3.1403-7 7 0 3.86 3.1403 7 7 7 3.86 0 7-3.14 7-7 0-3.8597-3.14-7-7-7zm2.5345 9.5345c-0.10527 0.10527-0.24285 0.15777-0.38069 0.15777-0.13785 0-0.27543-0.0525-0.3807-0.15777l-2.1538-2.1538c-0.10096-0.10096-0.15777-0.238-0.15777-0.38069v-3.7692c0-0.29723 0.24123-0.53846 0.53846-0.53846s0.53846 0.24123 0.53846 0.53846v3.546l1.9961 1.9963c0.21027 0.21027 0.21027 0.55112 0 0.76139z" fill="#87c0e0"/></g></g></svg>
