<svg width="18" height="18" version="1.1" viewBox="0 0 4.7625 4.7625" xml:space="preserve" xmlns="http://www.w3.org/2000/svg"><g transform="translate(-111.41 -125.01)"><g transform="matrix(.26458 0 0 .26458 111.41 125.01)" fill="none"><path d="m0.29289 0.29289c0.39052-0.39052 1.0237-0.39052 1.4142 0l7.2929 7.2929 7.2929-7.2929c0.3905-0.39052 1.0237-0.39052 1.4142 0 0.3905 0.39052 0.3905 1.0237 0 1.4142l-7.2929 7.2929 7.2929 7.2929c0.3905 0.3905 0.3905 1.0237 0 1.4142s-1.0237 0.3905-1.4142 0l-7.2929-7.2929-7.2929 7.2929c-0.39053 0.3905-1.0237 0.3905-1.4142 0-0.39052-0.3905-0.39052-1.0237 0-1.4142l7.2929-7.2929-7.2929-7.2929c-0.39052-0.39053-0.39052-1.0237 0-1.4142z" clip-rule="evenodd" fill="#aed7ff" fill-rule="evenodd"/></g></g></svg>
