<svg xmlns="http://www.w3.org/2000/svg" viewBox="0 0 7.408 7.408" height="28" width="28">
  <path d="M5.292 5.292H6.35a.794.794 0 00.794-.794v-3.44A.794.794 0 006.35.265H2.91a.794.794 0 00-.793.793v1.059H1.058a.794.794 0 00-.793.793v3.44c0 .438.355.794.793.794h3.44a.794.794 0 00.794-.794zm0-.53H6.35a.265.265 0 00.265-.264v-3.44A.265.265 0 006.35.794H2.91a.265.265 0 00-.264.264v1.059h1.852c.438 0 .794.355.794.793zm-.794 1.853h-3.44a.265.265 0 01-.264-.265V2.91c0-.146.118-.264.264-.264h3.44c.146 0 .264.118.264.264v3.44a.265.265 0 01-.264.265z" clip-rule="evenodd" fill="#0f4766" fill-rule="evenodd"/>
</svg>
