<svg version="1.1" viewBox="0 0 23 23" xml:space="preserve" xmlns="http://www.w3.org/2000/svg"><g transform="translate(-88.955 -156.56)"><g transform="matrix(1.2778 0 0 1.2778 87.677 155.28)" fill="none" stroke-width=".20706"><path d="m15 15h1c1.6569 0 3-1.3431 3-3v-8c0-1.6568-1.3431-3-3-3h-8c-1.6569 0-3 1.3432-3 3v0.61115c0 0.13792 0.02792 0.26932 0.07842 0.38885h-1.0784c-1.6569 0-3 1.3431-3 3v8c0 1.6569 1.3432 3 3 3h8c1.6569 0 3-1.3432 3-3zm0-2h1c0.5523 0 1-0.4477 1-1v-8c0-0.55228-0.4477-1-1-1h-8c-0.55228 0-1 0.44772-1 1v0.61115c0 0.13792-0.02792 0.26932-0.07842 0.38885h5.0784c1.6569 0 3 1.3432 3 3zm-2 3c0 0.5523-0.4477 1-1 1h-8c-0.55228 0-1-0.4477-1-1v-8c0-0.55229 0.44771-1 1-1h8c0.5523 0 1 0.44772 1 1z" clip-rule="evenodd" fill="#00c5ff" fill-rule="evenodd" stroke-width=".20706"/></g></g></svg>
