<svg version="1.1" viewBox="0 0 24 22.651" xml:space="preserve" xmlns="http://www.w3.org/2000/svg"><defs><clipPath id="clip0_7359_35197-4"><rect transform="matrix(4.3711e-8 1 1 -4.3711e-8 0 0)" width="24" height="24" fill="#fff"/></clipPath></defs><g transform="translate(-116.82 -152.8)"><g transform="matrix(1.0546 0 0 1.056 116.82 151.72)" fill="none" stroke-width=".9476"><g clip-path="url(#clip0_7359_35197-4)" stroke-width=".9476"><path d="m22.684 15.524c-0.0137-0.0189-0.0276-0.0376-0.0418-0.0562zm-2.9699-1.0561c0.6669 0.082 1.2993 0.3317 1.8374 0.7227l0.18 0.1478c0.373 0.3062 0.6599 0.7009 0.8342 1.1461s0.2306 0.9266 0.1636 1.3989-0.255 0.9205-0.547 1.3019c-0.2921 0.3816-0.679 0.684-1.1237 0.8777-0.5067 0.2211-1.0392 0.38-1.5855 0.4729l-0.4744 0.0807v1.3681c0 0.1282-0.0515 0.2526-0.1455 0.3455-0.0943 0.093-0.2236 0.1466-0.3599 0.1466s-0.2656-0.0536-0.3599-0.1466c-0.094-0.0929-0.1455-0.2173-0.1455-0.3455v-1.3709l-0.4715-0.0827c-1.0768-0.189-2.0772-0.673-2.8874-1.3958-0.0897-0.0918-0.139-0.2129-0.1394-0.3378-5e-4 -0.1284 0.0506-0.2531 0.1444-0.3464 0.094-0.0935 0.2233-0.1476 0.3597-0.148 0.1365-5e-4 0.2662 0.0526 0.3609 0.1455l0.0142 0.0139 0.0151 0.0129c0.8643 0.7371 1.964 1.1471 3.1036 1.1586l0.0101-1e-4c0.7427-0.0056 1.4764-0.1629 2.155-0.4622 0.285-0.1245 0.534-0.319 0.7231-0.5659 0.1894-0.2472 0.3122-0.5387 0.3562-0.847 0.044-0.3082 0.0077-0.6224-0.1054-0.9126-0.1126-0.2893-0.2977-0.5446-0.5368-0.7426-0.4265-0.3581-0.9479-0.5865-1.5013-0.6585l-1.1943-0.1481h-0.014l-0.8826-0.1245c-0.7206-0.1017-1.3978-0.3989-1.9563-0.8576-0.3813-0.3165-0.6738-0.7233-0.8504-1.1814-0.1766-0.4585-0.2316-0.9537-0.1598-1.4387s0.2681-0.9445 0.5708-1.3346c0.3025-0.38974 0.7013-0.69742 1.1592-0.89319 0.4026-0.1689 0.8235-0.292 1.2545-0.36688l0.4724-0.08207v-1.3717c0-0.1282 0.0515-0.25261 0.1455-0.34546 0.0943-0.09309 0.2236-0.14664 0.3599-0.14664s0.2656 0.05355 0.3599 0.14664c0.094 0.09285 0.1455 0.21726 0.1455 0.34546v1.3708l0.4715 0.08273c1.0768 0.18897 2.0772 0.67299 2.8874 1.3957 0.0897 0.0918 0.139 0.213 0.1394 0.3379 5e-4 0.1284-0.0506 0.2531-0.1444 0.3464-0.094 0.0935-0.2233 0.1475-0.3598 0.148-0.1364 5e-4 -0.2661-0.0527-0.3608-0.1455l-0.0142-0.0139-0.0151-0.0129c-0.8643-0.7371-1.964-1.147-3.1036-1.1586l-7e-3 1e-5c-0.6306 0.0013-1.2546 0.12855-1.8344 0.37435l-0.0098 0.0044c-0.2924 0.1304-0.5475 0.3319-0.7415 0.5864-0.1941 0.2546-0.3205 0.5539-0.367 0.8705s-0.0115 0.6396 0.1016 0.939c0.1131 0.2993 0.3003 0.565 0.5439 0.7727l0.0072 6e-3c0.4152 0.3427 0.9181 0.5639 1.4521 0.6398l0.9126 0.1277 1.1537 0.1494z" clip-rule="evenodd" fill="#00c5ff" fill-rule="evenodd"/><path d="m10.79 12.518c-0.85986 0.5638-1.8502 0.8972-2.876 0.9682-1.0258 0.071-2.0526-0.1229-2.982-0.563-0.92933-0.44-1.73-1.1116-2.3251-1.9501s-0.96475-1.8159-1.0734-2.8384c-0.10868-1.0225 0.04724-2.0558 0.4528-3.0007 0.40556-0.94489 1.0472-1.7697 1.8632-2.3953 0.81605-0.62558 1.7792-1.031 2.797-1.1772 1.0178-0.14625 2.0561-0.02848 3.0153 0.34202" stroke="#00c5ff" stroke-linecap="round"/><rect y="6" width="8" height="1" rx=".5" fill="#00c5ff"/><rect y="9" width="8" height="1" rx=".5" fill="#00c5ff"/></g></g></g></svg>
