<svg width="16" height="18" viewBox="0 0 16 18" fill="none" xmlns="http://www.w3.org/2000/svg">
<path d="M2.5 4.5H13.5V16C13.5 16.8284 12.8284 17.5 12 17.5H4C3.17157 17.5 2.5 16.8284 2.5 16V4.5Z" stroke="#87C0E0"/>
<mask id="path-2-inside-1_4302_29777" fill="white">
<path d="M0 4.5C0 4.22386 0.223858 4 0.5 4H15.5C15.7761 4 16 4.22386 16 4.5V4.5C16 4.77614 15.7761 5 15.5 5H0.5C0.223858 5 0 4.77614 0 4.5V4.5Z"/>
</mask>
<path d="M0.5 5H15.5V3H0.5V5ZM15.5 4H0.5V6H15.5V4ZM0.5 4C0.776142 4 1 4.22386 1 4.5H-1C-1 5.32843 -0.328427 6 0.5 6V4ZM15 4.5C15 4.22386 15.2239 4 15.5 4V6C16.3284 6 17 5.32843 17 4.5H15ZM15.5 5C15.2239 5 15 4.77614 15 4.5H17C17 3.67157 16.3284 3 15.5 3V5ZM0.5 3C-0.328427 3 -1 3.67157 -1 4.5H1C1 4.77614 0.776142 5 0.5 5V3Z" fill="#87C0E0" mask="url(#path-2-inside-1_4302_29777)"/>
<path d="M6 1.5H10C10.8284 1.5 11.5 2.17157 11.5 3V4.5H4.5V3C4.5 2.17157 5.17157 1.5 6 1.5Z" stroke="#87C0E0"/>
<mask id="path-5-inside-2_4302_29777" fill="white">
<path d="M6.5 6C6.77614 6 7 6.22386 7 6.5L7 14.5C7 14.7761 6.77614 15 6.5 15V15C6.22386 15 6 14.7761 6 14.5L6 6.5C6 6.22386 6.22386 6 6.5 6V6Z"/>
</mask>
<path d="M6 6.5L6 14.5L8 14.5L8 6.5L6 6.5ZM7 14.5L7 6.5L5 6.5L5 14.5L7 14.5ZM7 6.5C7 6.77614 6.77614 7 6.5 7L6.5 5C5.67157 5 5 5.67157 5 6.5L7 6.5ZM6.5 14C6.77614 14 7 14.2239 7 14.5L5 14.5C5 15.3284 5.67157 16 6.5 16L6.5 14ZM6 14.5C6 14.2239 6.22386 14 6.5 14L6.5 16C7.32843 16 8 15.3284 8 14.5L6 14.5ZM8 6.5C8 5.67157 7.32843 5 6.5 5L6.5 7C6.22386 7 6 6.77614 6 6.5L8 6.5Z" fill="#87C0E0" mask="url(#path-5-inside-2_4302_29777)"/>
<mask id="path-7-inside-3_4302_29777" fill="white">
<path d="M9.5 6C9.77614 6 10 6.22386 10 6.5L10 14.5C10 14.7761 9.77614 15 9.5 15V15C9.22386 15 9 14.7761 9 14.5L9 6.5C9 6.22386 9.22386 6 9.5 6V6Z"/>
</mask>
<path d="M9 6.5L9 14.5L11 14.5L11 6.5L9 6.5ZM10 14.5L10 6.5L8 6.5L8 14.5L10 14.5ZM10 6.5C10 6.77614 9.77614 7 9.5 7L9.5 5C8.67157 5 8 5.67157 8 6.5L10 6.5ZM9.5 14C9.77614 14 10 14.2239 10 14.5L8 14.5C8 15.3284 8.67157 16 9.5 16L9.5 14ZM9 14.5C9 14.2239 9.22386 14 9.5 14L9.5 16C10.3284 16 11 15.3284 11 14.5L9 14.5ZM11 6.5C11 5.67157 10.3284 5 9.5 5L9.5 7C9.22386 7 9 6.77614 9 6.5L11 6.5Z" fill="#87C0E0" mask="url(#path-7-inside-3_4302_29777)"/>
</svg>
