<svg width="24" height="24" fill="none" xmlns="http://www.w3.org/2000/svg">
  <path d="M4.5 4.5h15V21a1.5 1.5 0 01-1.5 1.5H6A1.5 1.5 0 014.5 21V4.5z" stroke="#00C5FF"/>
  <mask id="a" fill="#fff">
    <path d="M2 4.5a.5.5 0 01.5-.5h19a.5.5 0 010 1h-19a.5.5 0 01-.5-.5z"/>
  </mask>
  <path d="M2.5 5h19V3h-19v2zm19-1h-19v2h19V4zm-19 0a.5.5 0 01.5.5H1A1.5 1.5 0 002.5 6V4zm18.5.5a.5.5 0 01.5-.5v2A1.5 1.5 0 0023 4.5h-2zm.5.5a.5.5 0 01-.5-.5h2A1.5 1.5 0 0021.5 3v2zm-19-2A1.5 1.5 0 001 4.5h2a.5.5 0 01-.5.5V3z" fill="#00C5FF" mask="url(#a)"/>
  <path d="M8.5 3A1.5 1.5 0 0110 1.5h4A1.5 1.5 0 0115.5 3v1.5h-7V3z" stroke="#00C5FF"/>
  <mask id="b" fill="#fff">
    <path d="M9.5 9a.5.5 0 01.5.5v8a.5.5 0 01-1 0v-8a.5.5 0 01.5-.5z"/>
  </mask>
  <path d="M9 9.5v8h2v-8H9zm1 8v-8H8v8h2zm0-8a.5.5 0 01-.5.5V8A1.5 1.5 0 008 9.5h2zM9.5 17a.5.5 0 01.5.5H8A1.5 1.5 0 009.5 19v-2zm-.5.5a.5.5 0 01.5-.5v2a1.5 1.5 0 001.5-1.5H9zm2-8A1.5 1.5 0 009.5 8v2a.5.5 0 01-.5-.5h2z" fill="#00C5FF" mask="url(#b)"/>
  <mask id="c" fill="#fff">
    <path d="M14.5 9a.5.5 0 01.5.5v8a.5.5 0 01-1 0v-8a.5.5 0 01.5-.5z"/>
  </mask>
  <path d="M14 9.5v8h2v-8h-2zm1 8v-8h-2v8h2zm0-8a.5.5 0 01-.5.5V8A1.5 1.5 0 0013 9.5h2zm-.5 7.5a.5.5 0 01.5.5h-2a1.5 1.5 0 001.5 1.5v-2zm-.5.5a.5.5 0 01.5-.5v2a1.5 1.5 0 001.5-1.5h-2zm2-8A1.5 1.5 0 0014.5 8v2a.5.5 0 01-.5-.5h2z" fill="#00C5FF" mask="url(#c)"/>
</svg>
