<svg version="1.1" viewBox="0 0 14 15.024" xml:space="preserve" xmlns="http://www.w3.org/2000/svg"><g transform="translate(-103.1 -146.5)"><g transform="matrix(1 0 0 1.0017 103.1 145.5)" fill="none" stroke-width=".99917"><g id="Delete" stroke-width=".99917"><path d="m2.5 4.5h9v9.5c0 0.8284-0.6716 1.5-1.5 1.5h-6c-0.82843 0-1.5-0.6716-1.5-1.5z" stroke="#87c0e0"/><mask id="path-2-inside-1_6776_10226" fill="#ffffff"><path d="m0 4.5c0-0.27614 0.22386-0.5 0.5-0.5h13c0.2761 0 0.5 0.22386 0.5 0.5s-0.2239 0.5-0.5 0.5h-13c-0.27614 0-0.5-0.22386-0.5-0.5z"/></mask><path d="m0.5 5h13v-2h-13zm13-1h-13v2h13zm-13 0c0.27614 0 0.5 0.22386 0.5 0.5h-2c0 0.82843 0.67157 1.5 1.5 1.5zm12.5 0.5c0-0.27614 0.2239-0.5 0.5-0.5v2c0.8284 0 1.5-0.67157 1.5-1.5zm0.5 0.5c-0.2761 0-0.5-0.22386-0.5-0.5h2c0-0.82843-0.6716-1.5-1.5-1.5zm-13-2c-0.82843 0-1.5 0.67157-1.5 1.5h2c0 0.27614-0.22386 0.5-0.5 0.5z" fill="#87c0e0" mask="url(#path-2-inside-1_6776_10226)" stroke-width=".99917"/><path d="m3.5 3c0-0.82843 0.67157-1.5 1.5-1.5h4c0.82843 0 1.5 0.67157 1.5 1.5v1.5h-7z" stroke="#87c0e0"/><g fill="#87c0e0"><mask id="path-5-inside-2_6776_10226" fill="#ffffff"><path d="m5.5 7c0.27614 0 0.5 0.22386 0.5 0.5v5c0 0.2761-0.22386 0.5-0.5 0.5s-0.5-0.2239-0.5-0.5v-5c0-0.27614 0.22386-0.5 0.5-0.5z"/></mask><path d="m5 7.5v5h2v-5zm1 5v-5h-2v5zm0-5c0 0.27614-0.22386 0.5-0.5 0.5v-2c-0.82843 0-1.5 0.67157-1.5 1.5zm-0.5 4.5c0.27614 0 0.5 0.2239 0.5 0.5h-2c0 0.8284 0.67157 1.5 1.5 1.5zm-0.5 0.5c0-0.2761 0.22386-0.5 0.5-0.5v2c0.82843 0 1.5-0.6716 1.5-1.5zm2-5c0-0.82843-0.67157-1.5-1.5-1.5v2c-0.27614 0-0.5-0.22386-0.5-0.5z" mask="url(#path-5-inside-2_6776_10226)"/><mask id="path-7-inside-3_6776_10226" fill="#ffffff"><path d="m8.5 7c0.27614 0 0.5 0.22386 0.5 0.5v5c0 0.2761-0.22386 0.5-0.5 0.5s-0.5-0.2239-0.5-0.5v-5c0-0.27614 0.22386-0.5 0.5-0.5z"/></mask><path d="m8 7.5v5h2v-5zm1 5v-5h-2v5zm0-5c0 0.27614-0.22386 0.5-0.5 0.5v-2c-0.82843 0-1.5 0.67157-1.5 1.5zm-0.5 4.5c0.27614 0 0.5 0.2239 0.5 0.5h-2c0 0.8284 0.67157 1.5 1.5 1.5zm-0.5 0.5c0-0.2761 0.22386-0.5 0.5-0.5v2c0.82843 0 1.5-0.6716 1.5-1.5zm2-5c0-0.82843-0.67157-1.5-1.5-1.5v2c-0.27614 0-0.5-0.22386-0.5-0.5z" mask="url(#path-7-inside-3_6776_10226)"/></g></g></g></g></svg>
