<svg width="22" height="22" version="1.1" viewBox="0 0 5.8208 5.8208" xml:space="preserve" xmlns="http://www.w3.org/2000/svg"><g transform="translate(-152.4 -146.05)" stroke-width=".26458"><path d="m153.33 146.98h3.9688v4.3656a0.39688 0.39688 0 0 1-0.39687 0.39687h-3.175a0.39688 0.39688 0 0 1-0.39688-0.39687z" fill="none" stroke="#00c5ff"/><path d="m152.8 146.93h5.0271v-0.35279h-5.0271zm5.0271-0.1764h-5.0271v0.35278h5.0271zm-5.0271 0a0.13229 0.088196 0 0 1 0.13229 0.0882h-0.52917a0.39688 0.26459 0 0 0 0.39688 0.26458zm4.8948 0.0882a0.13229 0.088196 0 0 1 0.13229-0.0882v0.35278a0.39688 0.26459 0 0 0 0.39688-0.26458zm0.13229 0.0882a0.13229 0.088196 0 0 1-0.13229-0.0882h0.52917a0.39688 0.26459 0 0 0-0.39688-0.26459zm-5.0271-0.35279a0.39688 0.26459 0 0 0-0.39688 0.26459h0.52917a0.13229 0.088196 0 0 1-0.13229 0.0882z" fill="#00c5ff" mask="url(#a)"/><path d="m154.38 146.58a0.39688 0.39688 0 0 1 0.39687-0.39688h1.0583a0.39688 0.39688 0 0 1 0.39687 0.39688v0.39687h-1.8521z" fill="none" stroke="#00c5ff"/><path d="m154.34 148.17v2.1167h0.35278v-2.1167zm0.17638 2.1167v-2.1167h-0.35277v2.1167zm0-2.1167a0.088194 0.13229 0 0 1-0.0882 0.13229v-0.52916a0.26458 0.39688 0 0 0-0.26458 0.39687zm-0.0882 1.9844a0.088194 0.13229 0 0 1 0.0882 0.13229h-0.35277a0.26458 0.39688 0 0 0 0.26458 0.39687zm-0.0882 0.13229a0.088194 0.13229 0 0 1 0.0882-0.13229v0.52916a0.26458 0.39688 0 0 0 0.26459-0.39687zm0.35278-2.1167a0.26458 0.39688 0 0 0-0.26459-0.39687v0.52916a0.088194 0.13229 0 0 1-0.0882-0.13229z" fill="#00c5ff" mask="url(#b)"/><path d="m156.02 148.17v2.1167h0.35278v-2.1167zm0.17639 2.1167v-2.1167h-0.35278v2.1167zm0-2.1167a0.088194 0.13229 0 0 1-0.0882 0.13229v-0.52916a0.26458 0.39688 0 0 0-0.26459 0.39687zm-0.0882 1.9844a0.088194 0.13229 0 0 1 0.0882 0.13229h-0.35278a0.26458 0.39688 0 0 0 0.26459 0.39687zm-0.0882 0.13229a0.088194 0.13229 0 0 1 0.0882-0.13229v0.52916a0.26458 0.39688 0 0 0 0.26458-0.39687zm0.35278-2.1167a0.26458 0.39688 0 0 0-0.26458-0.39687v0.52916a0.088194 0.13229 0 0 1-0.0882-0.13229z" fill="#00c5ff" mask="url(#c)"/></g></svg>
