<svg xmlns="http://www.w3.org/2000/svg" viewBox="0 0 28.046 53.446" height="202" width="106">
  <g fill="none">
    <path d="M24.35 53.446H3.695C1.663 53.446 0 51.763 0 49.706V3.74C0 1.683 1.662 0 3.694 0h20.657c2.032 0 3.695 1.683 3.695 3.74v45.966c0 2.057-1.663 3.74-3.695 3.74z" fill="#167399"/>
    <path d="M26.987 4.126v45.458c0 1.542-1.254 2.803-2.787 2.803H3.845c-1.532 0-2.787-1.261-2.787-2.803V4.126c0-1.542 1.254-2.803 2.787-2.803H24.2c1.532 0 2.786 1.261 2.786 2.803z" fill="#135579"/>
    <path d="M18.31 2.91H9.736c-.699 0-1.27-.607-1.27-1.349V1.35C8.467.607 9.038 0 9.737 0h8.572c.699 0 1.27.607 1.27 1.35v.211c0 .743-.572 1.35-1.27 1.35z" fill="#167399"/>
  </g>
</svg>
