<svg width="14.993" height="14.998" version="1.1" viewBox="0 0 3.9669 3.9681" xml:space="preserve" xmlns="http://www.w3.org/2000/svg"><g transform="translate(-88.014 -133.08)"><path d="m91.716 133.59a0.45499 0.45499 0 0 1 0 0.64299l-2.329 2.341a0.079999 0.079999 0 0 1-0.022 0.017s-5e-3 0-5e-3 5e-3c-0.01 5e-3 -0.014 0.01-0.023 0.01h-4e-3l-1.01 0.31c-0.05 0.013-0.1 0-0.137-0.033a0.131 0.131 0 0 1-0.04-0.096c0-0.013 0-0.027 4e-3 -0.04l0.31-1.008v-5e-3c4e-3 -9e-3 4e-3 -0.018 8e-3 -0.023 0 0 0-4e-3 5e-3 -4e-3 4e-3 -0.01 9e-3 -0.018 0.018-0.023l2.33-2.335a0.452 0.452 0 0 1 0.63999 0z" fill="none" stroke="#fff" stroke-width=".26458"/></g></svg>
