<svg version="1.1" viewBox="0 0 14 14" xml:space="preserve" xmlns="http://www.w3.org/2000/svg"><g transform="translate(-102.57 -146.78)"><g><path d="m108.26 147.82h-3.1154c-1.1471 0-2.0769 0.92987-2.0769 2.0769v8.3077c0 1.1471 0.92987 2.0769 2.0769 2.0769h8.3077c1.1471 0 2.0769-0.92984 2.0769-2.0769v-3.1154" fill="none" stroke="#00c5ff" stroke-linecap="round"/><path id="Vector" d="m115.71 148.26 0.35755-0.37685 0.0101 0.0101zm0 1.6385-0.36782-0.36648 3.1e-4 -2.5e-4zm-6.8802 6.9054 0.36782 0.36647c-0.0585 0.0587-0.13014 0.1025-0.20902 0.12784zm-2.713 0.87148 0.1588 0.49441-0.0109 3e-3 -0.011 3e-3zm-0.34783-0.0813-0.34235 0.39036-0.013-0.0114-0.0122-0.0121zm-0.0928-0.34861-0.51219-0.0851 6e-3 -0.0375 0.0116-0.0361zm0.86957-2.7076-0.49436-0.15877c0.0252-0.0784 0.0687-0.14973 0.12685-0.20803zm6.8803-6.8938 0.36751 0.36673v7e-5zm1.6348 0-0.35744 0.37685-0.0101-0.0101zm1.0169 0.24915c0.65434 0.65587 0.65434 1.7161 0 2.372l-0.73513-0.73347c0.24996-0.25052 0.24996-0.6545 0-0.90501zm2.1e-4 2.3717-6.8803 6.9054-0.73565-0.73295 6.8803-6.9054zm-7.0893 7.0332-2.713 0.87158-0.31761-0.98872 2.713-0.87159zm-2.7349 0.87802c-0.30558 0.0836-0.61115-2e-3 -0.82708-0.19181l0.68471-0.78071c-0.0304-0.0267-0.0809-0.043-0.13144-0.0292zm-0.8523-0.21538c-0.16028-0.16065-0.25601-0.37156-0.25601-0.61083h1.0385c0-0.02-4e-3 -0.0463-0.0157-0.0734-0.0114-0.0265-0.025-0.0427-0.0316-0.0492zm-0.25601-0.61083c0-0.0559 8e-3 -0.11329 0.0103-0.13385 2e-3 -0.0152 4e-3 -0.0285 5e-3 -0.038 7.4e-4 -5e-3 1e-3 -9e-3 2e-3 -0.0119 2.4e-4 -2e-3 4.5e-4 -3e-3 6.2e-4 -4e-3 7e-5 -5.2e-4 1.4e-4 -9.4e-4 2e-4 -1e-3 3e-5 -2.1e-4 6e-5 -3.1e-4 9e-5 -4.2e-4 1e-5 -1e-4 2e-5 -2e-4 3e-5 -2e-4 0-1.1e-4 1e-5 -1.1e-4 1e-5 -1.1e-4 1e-5 0 1e-5 -1e-4 1e-5 -1e-4s1e-5 0 0.5122 0.0851c0.5122 0.0852 0.51221 0.0852 0.51221 0.0852l1e-5 -1.1e-4h1e-5c0-1e-4 1e-5 -1e-4 2e-5 -1e-4 1e-5 -1.1e-4 2e-5 -2.1e-4 3e-5 -2.1e-4 1e-5 -1e-4 2e-5 -1e-4 1e-5 -1e-4 0 0-5e-5 3.1e-4 -1.2e-4 7.2e-4 -1.5e-4 9.4e-4 -4.2e-4 3e-3 -7.6e-4 5e-3 -7e-4 5e-3 -2e-3 0.0108-3e-3 0.0174-3e-3 0.0231-1e-3 0.018-1e-3 -3e-3zm0.0365-0.26335 0.86957-2.7076 0.98872 0.31753-0.86956 2.7076zm0.99642-2.9156 6.8803-6.8938 0.73503 0.7336-6.8803 6.8937zm6.8802-6.8937c0.65506-0.65653 1.7149-0.65653 2.37 0l-0.73513 0.73346c-0.24933-0.24986-0.65039-0.24986-0.89972 0zm2.3597-0.01 0.64925 0.61589-0.71467 0.75341-0.64925-0.61588z" fill="#00c5ff"/></g></g></svg>
