<svg version="1.1" viewBox="0 0 23 23" xml:space="preserve" xmlns="http://www.w3.org/2000/svg"><defs><clipPath id="clip0_6651_21235-1"><rect width="23" height="23" fill="#fff"/></clipPath></defs><g transform="translate(-87.264 -156.54)"><g transform="translate(87.264 156.54)" fill="none"><g id="Export button" clip-path="url(#clip0_6651_21235-1)"><g id="Group"><path id="Vector" d="m17 17.5c0-0.2761-0.2239-0.5-0.5-0.5s-0.5 0.2239-0.5 0.5v3.5c0 0.6-0.4 1-1 1h-13c-0.6 0-1-0.4-1-1v-19c0-0.6 0.4-1 1-1h6v6c0 1.1 0.9 2 2 2h6v2.5c0 0.2761 0.2239 0.5 0.5 0.5s0.5-0.2239 0.5-0.5v-3.5l-7.9-8h-7.1c-1.1 0-2 0.9-2 2v19c0 1.1 0.9 2 2 2h13c1.1 0 2-0.9 2-2zm-8-16 6.5 6.5h-5.5c-0.6 0-1-0.4-1-1z" fill="#fff"/></g><path d="m7.5 15h11.5v3l4-3.5-4-3.5v3h-11.5c-0.3 0-0.5 0.2-0.5 0.5s0.2 0.5 0.5 0.5z" fill="#fff"/></g></g></g></svg>
