<svg version="1.1" viewBox="0 0 22.149 23" xml:space="preserve" xmlns="http://www.w3.org/2000/svg"><defs><clipPath id="clipPath8"><path class="powerclip" d="m98.21 143.01h14.673v12.581h-14.673zm6.5753 6.4808-7e-5 7e-5c-1e-3 0.0443-0.01 0.0808-0.0259 0.10938-0.0162 0.0281-0.0392 0.0492-0.0689 0.0632-0.0297 0.0132-0.0662 0.0202-0.10935 0.0202-0.0388 0-0.0718-6e-3 -0.0988-0.0194-0.0265-0.0135-0.048-0.0343-0.0648-0.0624s-0.0285-0.0643-0.0365-0.10856c-7e-3 -0.0443-0.0113-0.0978-0.0113-0.16039v-0.0656c0-0.0626 4e-3 -0.11611 0.0122-0.16041 9e-3 -0.0449 0.0216-0.0813 0.0389-0.10936 0.0173-0.0281 0.0389-0.0487 0.0648-0.0616 0.0259-0.0134 0.0564-0.0194 0.0915-0.0194 0.0502 0 0.0905 8e-3 0.1207 0.0227 0.0302 0.0151 0.0524 0.0378 0.0664 0.068 0.0137 0.0297 0.0217 0.0667 0.0227 0.111h0.28352c-7e-3 -0.0816-0.0299-0.15424-0.0688-0.21794-0.0389-0.0643-0.0937-0.11478-0.16447-0.15148-0.0708-0.0367-0.15742-0.0551-0.26003-0.0551-0.0745 0-0.14233 0.0132-0.20333 0.0397-0.0611 0.0264-0.11346 0.0647-0.15716 0.11504-0.0432 0.0497-0.0767 0.11015-0.10047 0.18145-0.0232 0.0708-0.0348 0.1504-0.0348 0.239v0.064c0 0.0885 0.0111 0.16817 0.0332 0.23897 0.0227 0.0708 0.0554 0.13096 0.098 0.18066 0.0432 0.0497 0.0956 0.0877 0.15716 0.11422 0.0621 0.0265 0.13266 0.0397 0.21146 0.0397 0.0972 0 0.18146-0.0173 0.25276-0.0519 0.0718-0.0351 0.12801-0.0839 0.16851-0.14663 0.0405-0.0626 0.0624-0.13502 0.0664-0.21712z"/></clipPath><clipPath id="clipPath14"><path d="m105.82 149.57c0-0.0184-3e-3 -0.0349-8e-3 -0.0494-5e-3 -0.0151-0.0154-0.0292-0.03-0.0421-0.0146-0.013-0.0356-0.0259-0.0632-0.0389-0.027-0.0135-0.0627-0.0275-0.10694-0.0421-0.0518-0.0173-0.10179-0.0367-0.14986-0.0583-0.0481-0.0221-0.091-0.0478-0.1288-0.0769-0.0378-0.0297-0.0678-0.0643-0.0899-0.10369-0.0221-0.04-0.0332-0.0864-0.0332-0.13935 0-0.0508 0.0113-0.0964 0.034-0.1369 0.0227-0.0411 0.0543-0.0759 0.0948-0.10451 0.041-0.0291 0.0891-0.0513 0.1442-0.0664 0.0551-0.0157 0.1153-0.0235 0.18066-0.0235 0.0864 0 0.16256 0.0151 0.22844 0.0454 0.0664 0.0297 0.11829 0.0721 0.15555 0.12718 0.0378 0.0546 0.0567 0.11909 0.0567 0.19362h-0.28271c0-0.0297-6e-3 -0.0559-0.0186-0.0786-0.0119-0.0227-0.03-0.0405-0.0543-0.0535s-0.0548-0.0195-0.0915-0.0195c-0.0356 0-0.0656 5e-3 -0.0899 0.0162-0.0243 0.0108-0.0427 0.0254-0.0551 0.0438-0.0124 0.0178-0.0186 0.0375-0.0186 0.0591 0 0.0178 5e-3 0.034 0.0146 0.0486 0.0103 0.014 0.0246 0.0273 0.0429 0.0397 0.0189 0.0124 0.0416 0.0243 0.068 0.0357 0.027 0.0113 0.0573 0.0224 0.0907 0.0332 0.0626 0.02 0.11827 0.0424 0.1669 0.0672 0.0491 0.0243 0.0905 0.0521 0.12393 0.0834 0.034 0.0308 0.0597 0.0659 0.077 0.1053 0.0178 0.0394 0.0267 0.084 0.0267 0.13367 0 0.0529-0.0102 0.0999-0.0308 0.14097-0.0205 0.041-0.05 0.0759-0.0883 0.10451-0.0383 0.0281-0.0843 0.0494-0.13772 0.064-0.0534 0.0146-0.11313 0.0219-0.17901 0.0219-0.0605 0-0.12018-8e-3 -0.17905-0.0227-0.0583-0.0157-0.11126-0.0394-0.15877-0.0713-0.0476-0.0324-0.0856-0.0737-0.11423-0.12396-0.0281-0.0508-0.0421-0.11099-0.0421-0.18065h0.28516c0 0.0346 5e-3 0.0637 0.0138 0.0875 9e-3 0.0238 0.0227 0.0429 0.0405 0.0575 0.0178 0.014 0.0397 0.0243 0.0656 0.0308 0.0259 6e-3 0.0556 9e-3 0.0891 9e-3 0.0362 0 0.0654-5e-3 0.0875-0.0154 0.0221-0.0108 0.0384-0.0248 0.0486-0.0421 0.0102-0.0178 0.0154-0.0373 0.0154-0.0583z" display="none" fill="#135579"/><path class="powerclip" d="m100.12 143.01h11.033v12.581h-11.033zm5.7018 6.5664 1.5e-4 1.9e-4c0 0.021-5e-3 0.0405-0.0154 0.0583-0.0102 0.0173-0.0265 0.0313-0.0486 0.0421-0.0221 0.0104-0.0513 0.0154-0.0875 0.0154-0.0335 0-0.0632-3e-3 -0.0891-9e-3 -0.0259-7e-3 -0.0478-0.0168-0.0656-0.0308-0.0178-0.0146-0.0315-0.0337-0.0405-0.0575s-0.0138-0.0529-0.0138-0.0875h-0.28516c0 0.0697 0.014 0.12985 0.0421 0.18065 0.0286 0.0503 0.0666 0.0916 0.11423 0.12396 0.0475 0.0319 0.10047 0.0556 0.15877 0.0713 0.0589 0.0147 0.11855 0.0227 0.17905 0.0227 0.0659 0 0.12561-7e-3 0.17901-0.0219 0.0534-0.0146 0.0994-0.0359 0.13772-0.064 0.0383-0.0286 0.0678-0.0635 0.0883-0.10451 0.0206-0.0411 0.0308-0.0881 0.0308-0.14097 0-0.0497-9e-3 -0.0943-0.0267-0.13367-0.0173-0.0394-0.043-0.0745-0.077-0.1053-0.0334-0.0313-0.0748-0.0591-0.12393-0.0834-0.0486-0.0248-0.1043-0.0472-0.1669-0.0672-0.0334-0.0108-0.0637-0.0219-0.0907-0.0332-0.0264-0.0114-0.0491-0.0233-0.068-0.0357-0.0183-0.0124-0.0326-0.0257-0.0429-0.0397-0.01-0.0146-0.0146-0.0308-0.0146-0.0486 0-0.0216 6e-3 -0.0413 0.0186-0.0591 0.0124-0.0184 0.0308-0.033 0.0551-0.0438 0.0243-0.0112 0.0543-0.0162 0.0899-0.0162 0.0367 0 0.0672 6e-3 0.0915 0.0195 0.0243 0.013 0.0424 0.0308 0.0543 0.0535 0.0126 0.0227 0.0186 0.0489 0.0186 0.0786h0.28271c0-0.0745-0.0189-0.13902-0.0567-0.19362-0.0373-0.0551-0.0892-0.0975-0.15555-0.12718-0.0659-0.0303-0.14204-0.0454-0.22844-0.0454-0.0654 0-0.12556 8e-3 -0.18066 0.0235-0.0551 0.0151-0.1032 0.0373-0.1442 0.0664-0.0405 0.0286-0.0721 0.0634-0.0948 0.10451-0.0227 0.0405-0.034 0.0861-0.034 0.1369 0 0.053 0.0111 0.0994 0.0332 0.13935 0.0221 0.0394 0.0521 0.074 0.0899 0.10369 0.0378 0.0291 0.0807 0.0548 0.1288 0.0769 0.0481 0.0216 0.0981 0.041 0.14986 0.0583 0.0442 0.0146 0.0799 0.0286 0.10694 0.0421 0.0276 0.013 0.0486 0.0259 0.0632 0.0389 0.0146 0.0129 0.025 0.027 0.03 0.0421 5e-3 0.0145 8e-3 0.031 8e-3 0.0494z"/></clipPath><clipPath id="clipPath15"><path class="powerclip" d="m101.11 143.01h11.775v12.581h-11.775zm5.5963 6.6024-0.0397 0.27787h0.20579l0.39775-1.1795h-0.31838zm-0.22278-0.90167h-0.31679l0.39534 1.1795h0.2082l-0.0413-0.27787z"/></clipPath></defs><g transform="translate(-102.02 -145.46)"><g transform="matrix(3.7795 0 0 3.7795 -283.56 -404.3)"><g fill="#00c5ff" stroke-width=".070004"><path id="Rectangle 190 (Stroke)" d="m102.81 145.99c-0.14613 0-0.26459 0.11846-0.26459 0.26458v4.4979c0 0.14613 0.11846 0.26458 0.26459 0.26458h3.175c0.14613 0 0.26458-0.11845 0.26458-0.26458v-0.52917h0.52917v0.52917c0 0.43839-0.35537 0.79375-0.79375 0.79375h-3.175c-0.43838 0-0.79375-0.35536-0.79375-0.79375v-4.4979c0-0.43837 0.35537-0.79375 0.79375-0.79375h1.95l2.0188 1.7304v1.4446h-0.52917v-1.0583h-1.3229c-0.29226 0-0.52916-0.23691-0.52916-0.52917v-1.0583zm2.1167 0.31068 0.87226 0.74765h-0.87226z" clip-rule="evenodd" fill-rule="evenodd"/><g><path id="Vector" d="m105.12 148.01h-0.61702c-0.71268 0-1.2904 0.57769-1.2904 1.2904 0 0.71267 0.57768 1.2904 1.2904 1.2904h0.6227z" clip-path="url(#clipPath8)"/><path transform="translate(-.0034348)" d="m106.11 148.01h-0.99115l6e-3 2.5807h1.0268z" clip-path="url(#clipPath14)"/><path transform="translate(-.0050432)" d="m106.11 148.01 0.0413 2.5807h1.7332v-2.5807zm0.71106 1.5586 2e-3 0.32142-0.18397 1e-3h-6e-3l-2e-3 -0.32143z" clip-path="url(#clipPath15)"/></g></g><path d="m106.65 149.57 0.15607-1e-3 2e-3 0.32241-0.18506 1e-3 -2e-3 -0.32456 0.029-1.9e-4z" fill="none" stroke-width=".14001"/></g></g></svg>
