<svg width="7" height="7" viewBox="0 0 7 7" fill="none" xmlns="http://www.w3.org/2000/svg">
<g clip-path="url(#clip0_5_20)">
<path d="M3.17384 6.21771C1.49622 6.21771 0.131134 4.85249 0.131134 3.1749C0.131134 1.49741 1.49609 0.132294 3.17384 0.132294C4.85148 0.132294 6.21655 1.4973 6.21655 3.1749C6.21655 4.8527 4.85159 6.21771 3.17384 6.21771Z" stroke="#00C5FF" stroke-width="0.264583"/>
<path d="M2.38138 2.31831C2.37788 2.08252 2.44952 1.89858 2.59662 1.76671C2.74371 1.63484 2.93392 1.56897 3.16694 1.56897C3.41919 1.56897 3.6158 1.63984 3.75701 1.78158C3.89822 1.92339 3.96876 2.12012 3.96876 2.37193C3.96876 2.5402 3.92454 2.69617 3.83631 2.83991C3.74801 2.98366 3.46454 3.11516 3.32995 3.23438C3.26155 3.30061 3.21864 3.36368 3.20112 3.42324C3.18363 3.4829 3.17501 3.70264 3.17501 3.81792" stroke="#00C5FF" stroke-width="0.264583" stroke-linecap="round"/>
<path d="M3.1762 4.78103C3.32299 4.78103 3.44198 4.66204 3.44198 4.51526C3.44198 4.36847 3.32299 4.24948 3.1762 4.24948C3.02942 4.24948 2.91043 4.36847 2.91043 4.51526C2.91043 4.66204 3.02942 4.78103 3.1762 4.78103Z" fill="#00C5FF"/>
</g>
<defs>
<clipPath id="clip0_5_20">
<rect width="6.34884" height="6.35" fill="white"/>
</clipPath>
</defs>
</svg>
