<svg xmlns="http://www.w3.org/2000/svg" viewBox="0 0 7.408 7.408" height="27.998" width="27.998">
  <g fill="none">
    <path d="M3.704 7.408a3.704 3.704 0 100-7.408 3.704 3.704 0 000 7.408z" fill="#00c5ff"/>
    <path d="M4.355 5.143v-.165c.491-.029.996-.125 1.457.04a6.515 6.515 0 01-.34-1.674c-.032-.46-.016-.932-.164-1.369-.167-.49-.55-.91-1.035-1.09-.486-.18-1.065-.106-1.471.216-.143.113-.27.275-.256.456-.246-.084-.52.091-.636.325-.115.233-.11.505-.094.765.048.76.165 1.54-.041 2.274l1.278.039v.183c-.885.124-1.644.495-2.128 1.008a3.694 3.694 0 002.778 1.256c1.107 0 2.1-.486 2.779-1.256-.483-.512-1.242-.883-2.127-1.008z" fill="#caf3ff"/>
  </g>
</svg>
