<svg version="1.1" viewBox="0 0 20 18" xml:space="preserve" xmlns="http://www.w3.org/2000/svg"><g transform="translate(-102.3 -146.12)"><g transform="translate(96.304 139.12)" fill="none" stroke-width=".26458"><g id="Filters" clip-rule="evenodd" fill="#00c5ff" fill-rule="evenodd" stroke-width=".26458"><path id="Union" d="m10.171 11h-3.1707c-0.55228 0-1-0.4477-1-1 0-0.55228 0.44772-1 1-1h3.1707c0.4118-1.1652 1.5231-2 2.8293-2s2.4175 0.83481 2.8293 2h9.1707c0.5523 0 1 0.44772 1 1 0 0.5523-0.4477 1-1 1h-9.1707c-0.4118 1.1652-1.5231 2-2.8293 2s-2.4175-0.8348-2.8293-2zm3.8293-1c0-0.55228-0.4477-1-1-1s-1 0.44772-1 1c0 0.5523 0.4477 1 1 1s1-0.4477 1-1z"/><path d="m15.171 17h-8.1707c-0.55229 0-1-0.4477-1-1s0.44771-1 1-1h8.1707c0.4118-1.1652 1.5231-2 2.8293-2s2.4175 0.8348 2.8293 2h4.1707c0.5523 0 1 0.4477 1 1s-0.4477 1-1 1h-4.1707c-0.4118 1.1652-1.5231 2-2.8293 2s-2.4175-0.8348-2.8293-2zm3.8293-1c0-0.5523-0.4477-1-1-1s-1 0.4477-1 1 0.4477 1 1 1 1-0.4477 1-1z"/><path d="m9.1707 23h-2.1707c-0.55228 0-1-0.4477-1-1s0.44772-1 1-1h2.1707c0.41183-1.1652 1.5231-2 2.8293-2s2.4175 0.8348 2.8293 2h10.171c0.5523 0 1 0.4477 1 1s-0.4477 1-1 1h-10.171c-0.4118 1.1652-1.5231 2-2.8293 2s-2.4175-0.8348-2.8293-2zm3.8293-1c0-0.5523-0.4477-1-1-1s-1 0.4477-1 1 0.4477 1 1 1 1-0.4477 1-1z"/></g></g></g></svg>
