<svg version="1.1" viewBox="0 0 17.999 19.79" xml:space="preserve" xmlns="http://www.w3.org/2000/svg"><g transform="matrix(.94085 0 0 .94161 -100.63 -132.19)" stroke-width="2.1249"><g transform="matrix(1.0622,0,0,1.0515,99.527,134.08)" fill="none" stroke-width="2.0106"><path id="Vector" d="m23.384 7h-14.769c-0.33846 0-0.61538 0.2893-0.61538 0.64289l1.6e-4 3.2094c0 0.1607 0.05538 0.315 0.16 0.4307l5.8396 5.717v7.3578c0 0.5143 0.5539 0.8165 0.9539 0.5336l2.7694-1.8578c0.1723-0.1222 0.2769-0.3214 0.2769-0.5336l0.0087-5.5 5.8313-5.717c0.1046-0.1157 0.16-0.27 0.16-0.4307l-2e-4 -3.2094c0-0.35359-0.2769-0.64289-0.6153-0.64289z" stroke="#00c5ff" stroke-width="2.0106"/></g></g></svg>
