<svg width="24" height="24" version="1.1" viewBox="0 0 6.35 6.35" xml:space="preserve" xmlns="http://www.w3.org/2000/svg"><g transform="translate(-93.469 -128.86)"><path d="m95.056 128.86c-0.876 0-1.587 0.71-1.587 1.587v3.175c0 0.878 0.71 1.588 1.587 1.588h1.014v-0.905c-0.883 0.191-1.067-0.376-1.067-0.376-0.145-0.367-0.353-0.464-0.353-0.464-0.288-0.197 0.022-0.193 0.022-0.193 0.319 0.022 0.486 0.327 0.486 0.327 0.284 0.485 0.743 0.345 0.924 0.264 0.029-0.205 0.111-0.345 0.202-0.424-0.705-0.081-1.446-0.353-1.446-1.57 0-0.346 0.124-0.63 0.327-0.852-0.033-0.08-0.142-0.403 0.03-0.84 0 0 0.267-0.085 0.874 0.325 0.253-0.07 0.525-0.105 0.794-0.107 0.27 2e-3 0.542 0.037 0.796 0.107 0.606-0.41 0.872-0.325 0.872-0.325 0.173 0.437 0.064 0.76 0.031 0.84 0.204 0.222 0.327 0.506 0.327 0.852 0 1.22-0.743 1.488-1.45 1.567 0.114 0.098 0.218 0.292 0.218 0.588v1.186h0.574c0.877 0 1.588-0.71 1.588-1.588v-3.175c0-0.876-0.71-1.587-1.588-1.587z" clip-rule="evenodd" fill="#fff" fill-rule="evenodd"/></g></svg>
