<svg xmlns="http://www.w3.org/2000/svg" viewBox="0 0 6.35 6.35" height="24" width="24">
  <path d="M1.587 0C.711 0 0 .71 0 1.587v3.175C0 5.64.71 6.35 1.587 6.35h1.014v-.905c-.883.191-1.067-.376-1.067-.376-.145-.367-.353-.464-.353-.464-.288-.197.022-.193.022-.193.319.022.486.327.486.327.284.485.743.345.924.264.029-.205.111-.345.202-.424-.705-.081-1.446-.353-1.446-1.57 0-.346.124-.63.327-.852-.033-.08-.142-.403.03-.84 0 0 .267-.085.874.325.253-.07.525-.105.794-.107.27.002.542.037.796.107.606-.41.872-.325.872-.325.173.437.064.76.031.84.204.222.327.506.327.852 0 1.22-.743 1.488-1.45 1.567.114.098.218.292.218.588V6.35h.574c.877 0 1.588-.71 1.588-1.588V1.587C6.35.711 5.64 0 4.762 0z" clip-rule="evenodd" fill="#fff" fill-rule="evenodd"/>
</svg>
