<svg width="12.996" height="31.996" version="1.1" viewBox="0 0 3.4385 8.4656" xml:space="preserve" xmlns="http://www.w3.org/2000/svg"><g transform="translate(-94.702 -128.11)"><path d="m98.012 129.26a0.71591 0.71591 0 0 0-0.09499-0.92988 0.76791 0.76791 0 0 0-0.54093-0.21498c-0.15098 0-0.29996 0.043-0.42495 0.12399a0.74291 0.74291 0 0 0-0.28197 0.32996 0.70991 0.70991 0 0 0 0.16598 0.8029 0.7939 0.7939 0 0 0 0.8339 0.15998 0.75991 0.75991 0 0 0 0.34396-0.27197zm-1.6148 7.1801c0.45195-0.20998 0.8379-0.53394 1.1159-0.93589l-6e-3 3e-3c-0.45894 0.19297-1.4638 0.61692-1.0959-0.70292l1.0569-3.7915c0.19598-0.70091-0.92489-0.98988-1.6498-0.65392-0.45194 0.20998-0.8379 0.53394-1.1159 0.93689l7e-3 -3e-3c0.45794-0.19398 1.4628-0.61793 1.0949 0.70191l-1.0559 3.7915c-0.19598 0.70192 0.92389 0.99088 1.6488 0.65393z" fill="#00c5ff" stroke-width=".99988"/></g></svg>
