<svg version="1.1" viewBox="0 0 24 24" xml:space="preserve" xmlns="http://www.w3.org/2000/svg"><g transform="translate(-4,-4)" fill="none"><g id="Info"><path id="Vector" d="m17.679 19.692c-0.3482 0.2663-0.6964 0.3892-0.9422 0.4302-0.2253 0.0614-0.4301-0.1639-0.3686-0.3892l1.2493-4.465c0.2253-0.7783-0.3686-1.5566-1.1879-1.5566-1.5361 0-2.3758 0.9832-2.8674 1.5362-0.1024 0.1228-0.1024 0.2867-0.0205 0.4096 0.1024 0.1434 0.3072 0.1638 0.4301 0.0614 0.3482-0.2662 0.6964-0.3891 0.9422-0.4506 0.2253-0.0614 0.4301 0.1639 0.3686 0.3892l-1.2493 4.465c-0.2253 0.7783 0.3686 1.5565 1.1879 1.5565 1.5361 0 2.3759-0.9831 2.8674-1.5361 0.1024-0.1229 0.1024-0.2867 0.0205-0.4096-0.1024-0.1229-0.3072-0.1434-0.4301-0.041z" fill="#00c5ff"/><rect x="5" y="5" width="22" height="22" rx="11" stroke="#00c5ff" stroke-width="2"/><path d="m17.166 12.79c0.7466 0 1.3518-0.6052 1.3518-1.3518 0-0.7465-0.6052-1.3518-1.3518-1.3518-0.7465 0-1.3517 0.6053-1.3517 1.3518 0 0.7466 0.6052 1.3518 1.3517 1.3518z" fill="#00c5ff"/></g></g></svg>
