<svg xmlns="http://www.w3.org/2000/svg" viewBox="0 0 3.44 8.467" height="32" width="13">
  <g fill="#00c5ff">
    <path d="M3.31 1.145a.716.716 0 00-.095-.93A.768.768 0 002.674 0c-.151 0-.3.043-.425.124a.743.743 0 00-.282.33.71.71 0 00.166.803.794.794 0 00.834.16.76.76 0 00.344-.272zM1.695 8.326c.452-.21.838-.534 1.116-.936l-.006.003c-.459.193-1.464.617-1.096-.703l1.057-3.792c.196-.701-.925-.99-1.65-.654-.452.21-.838.534-1.116.937l.007-.003c.458-.194 1.463-.618 1.095.702L.046 7.672c-.196.702.924.991 1.649.654z"/>
  </g>
</svg>
