<svg version="1.1" viewBox="0 0 214.34 153.74" xml:space="preserve" xmlns="http://www.w3.org/2000/svg"><g transform="translate(-345.15 -558.44)"><g transform="translate(344.61 557.82)" fill="#00c5ff"><path d="m58.389 2.9693-53.78 31.05c-3.8052 2.1969-3.7881 5.7688 0.03821 7.9779l138.56 80c3.826 2.209 10.013 2.219 13.818 0.022l53.779-31.05c3.806-2.1969 3.789-5.7688-0.038-7.9779l-138.56-80c-3.8263-2.2091-10.013-2.219-13.818-0.02206zm-54.646 30.55c-4.2809 2.4715-4.2616 6.4899 0.04299 8.9751l138.56 80c4.305 2.485 11.265 2.497 15.546 0.025l53.78-31.05c4.28-2.4716 4.261-6.4899-0.043-8.9752l-138.56-80c-4.3047-2.4853-11.265-2.4964-15.546-0.02482z" clip-rule="evenodd" fill-rule="evenodd"/><path d="m127.09 120.26-0.924-0.533c-2.378-1.373-4.306-0.248-4.306 2.513v6c0 2.762 1.928 6.114 4.306 7.487l0.924 0.533c2.378 1.373 4.306 0.247 4.306-2.514v-6c0-2.761-1.928-6.113-4.306-7.486zm-0.924-1.533c-2.853-1.648-5.167-0.297-5.167 3.016v6c0 3.314 2.314 7.336 5.167 8.984l0.924 0.533c2.854 1.647 5.167 0.297 5.167-3.017v-6c0-3.313-2.313-7.336-5.167-8.983z" clip-rule="evenodd" fill-rule="evenodd"/><path d="m4.6421 71.999 138.56 80c3.826 2.209 10.013 2.219 13.818 0.022l53.78-31.05c1.895-1.094 3.064-2.529 3.064-3.967h1c1e-3 1.619-1.064 3.235-3.198 4.467l-53.78 31.05c-4.281 2.472-11.24 2.46-15.545-0.025l-138.56-80c-2.1762-1.2564-3.2572-2.9047-3.2409-4.5469h1.01c-0.01803 1.4624 1.1542 2.9308 3.0921 4.0497z"/><g clip-rule="evenodd" fill-rule="evenodd"><path d="m213.88 117.01v-30.03h1v30.03z"/><path d="m150 154.03v-30.029h1v30.029z"/><path d="m1.5547 67.953v-30.029h-1l-1e-6 30.029z"/></g><path d="m149.82 104.64-7.245-4.183 1.518-0.8763 7.359 4.2483c2.545 1.47 2.645 2.882 0.299 4.236-0.644 0.372-1.266 0.63-1.865 0.775l-0.952-0.788c0.521-0.137 1.017-0.342 1.489-0.614 0.713-0.412 1.046-0.83 0.999-1.256-0.046-0.438-0.58-0.952-1.602-1.542z"/><path d="m160.41 98.867-4.123 2.38 2.252 2.694-1.552 0.896-7.048-8.6293 1.811-1.0456 14.965 4.059-1.604 0.9259zm-4.922 1.56 3.502-2.0213-4.321-1.1604c-0.585-0.1649-1.449-0.4382-2.594-0.8201l-0.051 0.0299c0.545 0.5141 1.019 1.0067 1.421 1.4779z"/><path d="m168.65 98.065-10.818-6.2457c0.929-0.7119 1.922-1.3733 2.98-1.984 2.104-1.2149 4.13-1.8573 6.079-1.9273 2.05-0.0909 3.918 0.3504 5.604 1.3238 1.795 1.0362 2.662 2.1809 2.602 3.434-0.083 1.2664-1.275 2.5635-3.574 3.8912-1.139 0.6573-2.096 1.1599-2.873 1.508zm-8.256-6.5191 8.697 5.021c0.296-0.1209 0.824-0.4004 1.583-0.8386 1.609-0.9165 2.431-1.8558 2.466-2.8181s-0.692-1.8736-2.183-2.734c-1.315-0.7728-2.751-1.1436-4.306-1.1122-1.544 0.0247-3.092 0.4852-4.644 1.3814-0.702 0.405-1.239 0.7718-1.613 1.1005z"/><path d="m180.13 84.163 1.175 0.6783-4.502 2.599 3.965 2.2892 5.036-2.9078 1.191 0.6877-6.554 3.784-10.997-6.3492 6.295-3.6347 1.191 0.6877-4.777 2.7583 3.475 2.0066z"/><g clip-rule="evenodd" fill-rule="evenodd"><path d="m61.838 12.978-39.894 23.033c-2.3783 1.3731-2.3676 3.6055 0.0239 4.9862l70.148 40.5c2.3915 1.3807 6.2581 1.3869 8.6364 0.0138l39.894-23.033c2.379-1.3731 2.368-3.6055-0.023-4.9862l-70.148-40.5c-2.3914-1.3807-6.2581-1.3869-8.6363-0.0138zm-40.761 22.533c-2.8539 1.6477-2.841 4.3266 0.0287 5.9834l70.148 40.5c2.8697 1.6569 7.5097 1.6643 10.364 0.0166l39.895-23.033c2.853-1.6477 2.841-4.3266-0.029-5.9835l-70.148-40.5c-2.8698-1.6568-7.5097-1.6642-10.364-0.0165z"/><path d="m140.65 68.478-22.574 13.033c-2.379 1.3731-2.368 3.6055 0.023 4.9862l11.259 6.5c2.391 1.3807 6.258 1.3869 8.636 0.0138l22.574-13.033c2.378-1.3731 2.368-3.6055-0.024-4.9862l-11.258-6.5c-2.392-1.3807-6.258-1.3869-8.636-0.0138zm-23.44 12.533c-2.854 1.6477-2.842 4.3266 0.028 5.9834l11.259 6.5c2.869 1.6569 7.509 1.6643 10.363 0.0166l22.574-13.033c2.854-1.6477 2.841-4.3266-0.028-5.9835l-11.259-6.5c-2.87-1.6568-7.51-1.6642-10.363-0.0165z"/><path d="m101.54 18.116c-0.347 0.1566-0.685 0.3345-0.761 0.3785l-0.8659-0.5c0.1159-0.067 0.4919-0.264 0.8739-0.436 0.19-0.0856 0.401-0.174 0.594-0.2377 0.094-0.0312 0.208-0.0646 0.328-0.0862 0.076-0.0138 0.284-0.0479 0.511-0.0023l2.616 0.4052 0.01 2e-3c5e-3 2e-4 0.019 4e-4 0.044-0.0016 0.046-0.0039 0.11-0.0141 0.186-0.0329 0.122-0.0302 0.234-0.0721 0.311-0.1079l1.276-1.3997 0.066-0.0379c8e-3 -0.0048 0.017-0.0099 0.026-0.0151 0.179-0.1041 0.47-0.2736 0.984-0.2737h1.668c0.514 0 0.806 0.1695 0.984 0.2736 9e-3 0.0052 0.018 0.0103 0.027 0.0151l0.056 0.0328 1.444 1.4395c3e-3 0.0015 7e-3 0.0032 0.012 0.0053 0.037 0.0152 0.096 0.0342 0.17 0.0516 0.073 0.0172 0.146 0.0293 0.206 0.0354 0.032 0.0034 0.053 0.0041 0.063 0.0043l2.608-0.4041 0.02-0.0022c0.219-0.0254 0.453-0.0322 0.689 0.0067 0.24 0.0397 0.423 0.1169 0.569 0.2011l1.091 0.6296c0.243 0.1404 0.592 0.4355 0.337 0.7778l-0.681 1.4658c1e-3 0.0057 2e-3 0.0171 8e-3 0.0347 0.01 0.0339 0.032 0.076 0.065 0.1196 0.032 0.0437 0.07 0.0816 0.106 0.1097 0.027 0.0215 0.045 0.0305 0.049 0.0326l2.346 0.7688c0.22 0.0655 0.401 0.161 0.515 0.2922 0.108 0.1257 0.128 0.2534 0.128 0.3526v0.9629c0 0.2968-0.293 0.4651-0.474 0.5684-9e-3 0.0051-0.017 0.0102-0.026 0.015l-0.059 0.0339-2.43 0.7965c-4e-3 2e-3 -0.022 0.0111-0.05 0.0326-0.036 0.0281-0.073 0.0661-0.106 0.1097-0.032 0.0436-0.054 0.0857-0.065 0.1195-5e-3 0.0176-7e-3 0.029-7e-3 0.0347l0.686 1.4762c0.079 0.1311 0.02 0.251-4e-3 0.2952-0.038 0.0691-0.096 0.1348-0.149 0.1892-0.111 0.1112-0.264 0.2332-0.412 0.3429-0.298 0.2205-0.639 0.4376-0.755 0.5046l-0.866-0.5c0.076-0.044 0.384-0.2388 0.655-0.4395 0.136-0.1009 0.248-0.1918 0.315-0.2594 2e-3 -0.0023 4e-3 -0.0045 6e-3 -0.0067l-0.675-1.4542-4e-3 -0.0112c-0.068-0.1962 0.035-0.415 0.149-0.5698 0.117-0.1564 0.326-0.3576 0.649-0.4695l0.013-0.0044 2.301-0.7539c0.021-0.0122 0.038-0.0224 0.053-0.032 0.015-0.0097 0.025-0.0165 0.031-0.0209v-0.9598c0-0.0091-1e-3 -0.0166-1e-3 -0.0227l-2.397-0.7851c-0.323-0.1118-0.532-0.3132-0.648-0.4695-0.115-0.1549-0.218-0.3736-0.15-0.5698l4e-3 -0.0112 0.726-1.5625c-0.012-0.0094-0.028-0.0206-0.049-0.033l-1.091-0.6296c-0.022-0.0131-0.036-0.0189-0.042-0.0212-0.01-5e-4 -0.038-8e-4 -0.093 0.0049l-2.628 0.4072-0.02 0.0022c-0.336 0.0389-0.713-0.0194-0.968-0.0794-0.143-0.0336-0.288-0.0771-0.418-0.1302-0.113-0.0466-0.263-0.1204-0.361-0.2259l-1.364-1.3603c-0.022-0.0125-0.04-0.0226-0.057-0.0316-0.017-0.0088-0.029-0.0143-0.036-0.0177l-1.657 1e-4c-8e-3 0.0034-0.02 0.0089-0.037 0.0177-0.014 0.0078-0.03 0.0163-0.048 0.0266l-1.283 1.4069-0.065 0.0379c-0.188 0.1083-0.463 0.2161-0.753 0.288-0.267 0.066-0.672 0.1327-1.072 0.0606l-2.486-0.385c-3e-3 0.0012-7e-3 0.0025-0.011 0.0038-0.117 0.0387-0.275 0.103-0.45 0.1816z"/></g></g></g></svg>
