<svg version="1.1" viewBox="0 0 16 11.314" xml:space="preserve" xmlns="http://www.w3.org/2000/svg"><g transform="translate(-388.66 -555.6)"><g transform="translate(388.66 553.26)" fill="none"><circle cx="8" cy="8" r="2" fill="#00c5ff"/><g stroke="#00c5ff"><path d="m11.182 4.818c0.4178 0.41786 0.7493 0.91394 0.9755 1.4599 0.2261 0.54597 0.3425 1.1311 0.3425 1.7221s-0.1164 1.1761-0.3425 1.7221c-0.2262 0.54592-0.5577 1.042-0.9755 1.4599"/><path d="m13.303 2.6967c0.6964 0.69644 1.2489 1.5232 1.6258 2.4332 0.3769 0.90995 0.5709 1.8852 0.5709 2.8701s-0.194 1.9602-0.5709 2.8701c-0.3769 0.91-0.9294 1.7368-1.6258 2.4332"/><path d="m4.818 4.818c-0.41786 0.41786-0.74933 0.91394-0.97548 1.4599-0.22614 0.54597-0.34254 1.1311-0.34254 1.7221s0.1164 1.1761 0.34254 1.7221c0.22615 0.54592 0.55762 1.042 0.97548 1.4599"/><path d="m2.6967 2.6967c-0.69644 0.69644-1.2489 1.5232-1.6258 2.4332-0.37691 0.90995-0.5709 1.8852-0.5709 2.8701s0.19399 1.9602 0.5709 2.8701c0.37691 0.91 0.92936 1.7368 1.6258 2.4332"/></g></g></g></svg>
