<svg width="178" height="90.499" version="1.1" viewBox="0 0 47.096 23.945" xml:space="preserve" xmlns="http://www.w3.org/2000/svg"><g transform="translate(-38.939 -130.27)"><g transform="matrix(.26458 0 0 .26458 38.939 130.13)" fill="#00c5ff"><path d="m1 18.999 3e-6 63c0 4.4183 3.5817 8 8 8h160c4.418 0 8-3.5817 8-8v-63c0-4.4183-3.582-8-8-8h-160c-4.4183 0-8 3.5817-8 8zm-1 63c2.1727e-7 4.9706 4.0294 9 9 9h160c4.971 0 9-4.0294 9-9v-63c0-4.9705-4.029-9-9-9l-160 1e-5c-4.9706 0-9 4.0295-9 9z" clip-rule="evenodd" fill-rule="evenodd"/><path d="m155.46 67.814h-8.365v-1.7623h8.497c2.939 0 4.409 1.3618 4.409 4.0854 0 0.7476-0.1 1.3684-0.301 1.8624l-1.338-0.2403c0.163-0.4406 0.245-0.9346 0.245-1.4819 0-0.8278-0.226-1.4419-0.678-1.8425-0.465-0.4139-1.288-0.6208-2.469-0.6208z"/><path d="m155.8 55.857v4.7863l3.994 1.4019v1.8023l-12.699-4.586v-2.1028l12.699-4.606v1.8624zm-1.282 4.4258v-4.0653l-3.655 1.3418c-0.502 0.1735-1.275 0.4005-2.317 0.6809v0.06c0.829 0.2003 1.595 0.4206 2.298 0.6609z"/><path d="m159.76 50.266h-12.491c-0.176-1.255-0.264-2.4967-0.264-3.725 0-2.4432 0.528-4.2656 1.583-5.4672 1.092-1.2816 2.612-1.9225 4.559-1.9225 2.072 0 3.718 0.6475 4.936 1.9426 1.219 1.3217 1.828 3.3177 1.828 5.9879 0 1.3217-0.05 2.3831-0.151 3.1842zm-11.285-1.7624h10.042c0.05-0.2937 0.075-0.8811 0.075-1.7623 0.013-1.8558-0.452-3.2776-1.394-4.2656s-2.274-1.482-3.994-1.482c-1.533-0.0133-2.732 0.4473-3.599 1.3819-0.867 0.9212-1.3 2.283-1.3 4.0853 0 0.8144 0.057 1.4953 0.17 2.0427z"/><path d="m152.48 29.62h1.356v5.2269h4.578v-5.8477h1.376v7.6101h-12.699v-7.3097h1.376v5.5473h4.013z"/><g clip-rule="evenodd" fill-rule="evenodd"><path d="m13 27.999v45c0 2.7614 2.2386 5 5 5h71c2.7614 0 5-2.2386 5-5v-45c0-2.7614-2.2386-5-5-5h-71c-2.7614 0-5 2.2386-5 5zm-1 45c0 3.3137 2.6863 6 6 6h71c3.3137 0 6-2.6863 6-6v-45c0-3.3137-2.6863-6-6-6h-71c-3.3137 0-6 2.6863-6 6z"/><path d="m108 27.999v45c0 2.7614 2.239 5 5 5h15c2.761 0 5-2.2386 5-5v-45c0-2.7614-2.239-5-5-5h-15c-2.761 0-5 2.2386-5 5zm-1 45c0 3.3137 2.686 6 6 6h15c3.314 0 6-2.6863 6-6v-45c0-3.3137-2.686-6-6-6h-15c-3.314 0-6 2.6863-6 6z"/><path d="m41.561 9.681c-0.0441 0.35717-0.061 0.72987-0.061 0.81797h-1c0-0.1341 0.0201-0.5481 0.0686-0.94056 0.0241-0.19531 0.0576-0.40572 0.1052-0.58058 0.0232-0.08551 0.0556-0.18469 0.1031-0.27537 0.0303-0.05799 0.1161-0.21193 0.2928-0.29744l1.9156-1.1051 0.0078-0.00388c0.0031-0.00272 0.0113-0.01052 0.0236-0.02689 0.023-0.03066 0.0496-0.07758 0.0747-0.14033 0.0402-0.10067 0.0632-0.20734 0.0716-0.28747l-0.663-2.1362v-0.0758c0-0.00972 0-0.01979-1e-4 -0.03018-8e-4 -0.20739-0.0021-0.54511 0.2947-0.84192l0.9629-0.96292c0.2968-0.29679 0.6346-0.29549 0.842-0.29469 0.0104 4e-5 0.0204 8e-5 0.0301 8e-5h0.0656l2.2727 0.60612c0.0034-4.2e-4 0.0076-0.00102 0.0125-0.00185 0.0368-0.00621 0.0896-0.02121 0.1497-0.04652 0.0595-0.02503 0.1136-0.05492 0.1543-0.08336 0.0221-0.0154 0.0347-0.02654 0.0408-0.03217l1.1017-1.9098 9e-3 -0.01347c0.1016-0.15239 0.2295-0.29389 0.4047-0.39123 0.1785-0.099187 0.3614-0.12774 0.5299-0.12774h1.2592c0.2808 0 0.7771 0.093882 0.9726 0.58285l1.0725 1.859c6e-3 0.00549 0.0182 0.01602 0.0391 0.0304 0.0402 0.02762 0.0947 0.05712 0.1571 0.08205 0.0623 0.02495 0.122 0.04116 0.1708 0.04847 0.0374 0.00561 0.0569 0.00432 0.0612 0.00405l2.1235-0.58584c0.1925-0.06148 0.3923-0.07023 0.5891-0.00463 0.1885 0.06286 0.3277 0.17903 0.4269 0.27818l0.9629 0.96293c0.2968 0.29679 0.2955 0.63455 0.2947 0.84193-1e-4 0.0104-1e-4 0.02047-1e-4 0.03019v0.0677l-0.6068 2.1997c-3e-4 0.00434-0.0016 0.02382 4e-3 0.06127 0.0073 0.04878 0.0235 0.10851 0.0485 0.17088 0.0249 0.06231 0.0544 0.11687 0.082 0.15701 0.0143 0.02086 0.0249 0.03304 0.0303 0.03899l1.8723 1.0801c0.1767 0.08551 0.2625 0.23944 0.2928 0.29744 0.0475 0.09067 0.0799 0.18986 0.1031 0.27536 0.0476 0.17487 0.0811 0.38527 0.1052 0.58058 0.0485 0.39247 0.0686 0.80647 0.0686 0.94057h-1c0-0.0881-0.0169-0.4608-0.061-0.81798-0.0222-0.17951-0.0489-0.33467-0.0778-0.44093-1e-3 -0.00366-0.0019-0.00718-0.0029-0.01054l-1.8443-1.064-0.0134-0.00892c-0.2356-0.15691-0.3949-0.43516-0.4834-0.65627-0.0894-0.22345-0.1695-0.54574-0.0949-0.84404l0.0029-0.01174 0.5746-2.0822c-2e-4 -0.0242-6e-4 -0.04418-0.0015-0.06255-9e-4 -0.0185-0.0021-0.03077-0.0032-0.03859l-0.9597-0.95971v0c-0.0091-0.00909-0.0168-0.01638-0.0233-0.02215l-2.1685 0.59826c-0.2983 0.07461-0.6207-0.00566-0.8441-0.09503-0.2211-0.08846-0.4993-0.24776-0.6562-0.4832l-9e-3 -0.01348-1.1432-1.9816c-0.0161-0.00266-0.0367-0.0045-0.0614-0.0045h-1.2592c-0.0262 0-0.04 0.00206-0.0456 0.00318-0.0066 0.00552-0.0231 0.02144-0.049 0.05877l-1.11 1.9242-9e-3 0.01348c-0.1555 0.23327-0.4313 0.39244-0.6387 0.47977-0.1158 0.04877-0.2435 0.08933-0.3711 0.1109-0.1124 0.01898-0.2727 0.03178-0.4346-0.01734l-2.1477-0.57278c-0.0252 2e-4 -0.0458 6.3e-4 -0.0647 0.00155-0.0185 9.1e-4 -0.0308 0.00212-0.0386 0.00316l-0.9566 0.95657c-1e-3 0.00782-0.0023 0.02009-0.0032 0.03859-8e-4 0.01633-0.0012 0.03393-0.0014 0.05463l0.6664 2.1473v0.07581c0 0.21648-0.051 0.48303-0.1469 0.72267-0.088 0.22-0.255 0.5205-0.5581 0.67936l-1.82 1.0499c-1e-3 0.00337-0.0019 0.00688-0.0029 0.01055-0.0289 0.10625-0.0556 0.26142-0.0778 0.44093z"/></g><path d="m34.064 54.206 2.3525-2.9327-3.416-0.9668 0.6445-1.8906 3.3516 1.332-0.2041-3.749h2.084l-0.2256 3.8242 3.2871-1.3212 0.6338 1.9228-3.4697 0.9668 2.2773 2.8682-1.6865 1.1816-1.9766-3.1367-1.9658 3.04z"/><path d="m44.404 54.206 2.3526-2.9327-3.4161-0.9668 0.6446-1.8906 3.3515 1.332-0.2041-3.749h2.084l-0.2256 3.8242 3.2871-1.3212 0.6338 1.9228-3.4697 0.9668 2.2773 2.8682-1.6865 1.1816-1.9765-3.1367-1.9659 3.04z"/><path d="m54.744 54.206 2.3526-2.9327-3.416-0.9668 0.6445-1.8906 3.3516 1.332-0.2041-3.749h2.0839l-0.2255 3.8242 3.2871-1.3212 0.6338 1.9228-3.4698 0.9668 2.2774 2.8682-1.6865 1.1816-1.9766-3.1367-1.9658 3.04z"/><path d="m65.084 54.206 2.3525-2.9327-3.416-0.9668 0.6445-1.8906 3.3516 1.332-0.2041-3.749h2.084l-0.2256 3.8242 3.2871-1.3212 0.6338 1.9228-3.4697 0.9668 2.2773 2.8682-1.6865 1.1816-1.9766-3.1367-1.9658 3.04z"/></g></g></svg>
