<svg version="1.1" viewBox="0 0 178 90" xml:space="preserve" xmlns="http://www.w3.org/2000/svg"><g transform="translate(-363.38 -590.58)"><g transform="translate(363.38 590.58)" fill="none"><g fill="#00c5ff"><g fill-opacity=".3"><path d="m1 18.95v62.099c0 4.394 3.5817 7.9559 8 7.9559h160c4.418 0 8-3.562 8-7.9559v-62.099c0-4.3939-3.582-7.9558-8-7.9558h-160c-4.4183 0-8 3.5619-8 7.9559zm-1 62.099c2.1607e-7 4.9432 4.0294 8.9504 9 8.9504h160c4.971 0 9-4.0072 9-8.9504v-62.099c0-4.9431-4.029-8.9503-9-8.9503l-160 1e-5c-4.9706 0-9 4.0072-9 8.9504z" clip-rule="evenodd" fill-rule="evenodd"/><path d="m155.46 67.838h-8.365v-1.7526h8.497c2.939 0 4.409 1.3542 4.409 4.0628 0 0.7435-0.1 1.3609-0.301 1.8522l-1.338-0.239c0.163-0.4381 0.245-0.9294 0.245-1.4738 0-0.8232-0.226-1.4339-0.678-1.8322-0.465-0.4116-1.288-0.6174-2.469-0.6174z"/><path d="m155.8 55.947v4.7599l3.994 1.3942v1.7924l-12.699-4.5608v-2.0911l12.699-4.5807v1.8522zm-1.282 4.4015v-4.043l-3.655 1.3344c-0.502 0.1726-1.275 0.3983-2.317 0.6771v0.0598c0.829 0.1991 1.595 0.4182 2.298 0.6572z"/><path d="m159.76 50.386h-12.491c-0.176-1.248-0.264-2.4828-0.264-3.7043 0-2.4298 0.528-4.2421 1.583-5.4371 1.092-1.2746 2.612-1.9119 4.559-1.9119 2.072 0 3.718 0.6439 4.936 1.9318 1.219 1.3145 1.828 3.2994 1.828 5.9549 0 1.3144-0.05 2.37-0.151 3.1666zm-11.285-1.7526h10.042c0.05-0.2921 0.075-0.8763 0.075-1.7526 0.013-1.8455-0.452-3.2596-1.394-4.2421s-2.274-1.4738-3.994-1.4738c-1.533-0.0132-2.732 0.4448-3.599 1.3742-0.867 0.9162-1.3 2.2705-1.3 4.0629 0 0.8099 0.057 1.487 0.17 2.0314z"/><path d="m152.48 29.855h1.356v5.1981l4.578-1e-4v-5.8154h1.376v7.568h-12.699v-7.2693h1.376v5.5168h4.013z"/></g><path d="m13 26.967v46.066c0 2.7462 2.2386 4.9724 5 4.9724h79c2.7614 0 5-2.2262 5-4.9724v-46.066c0-2.7462-2.2386-4.9724-5-4.9724h-79c-2.7614 0-5 2.2262-5 4.9724zm-1 46.066c0 3.2954 2.6863 5.9669 6 5.9669h79c3.314 0 6-2.6715 6-5.9669v-46.066c0-3.2954-2.686-5.9669-6-5.9669h-79c-3.3137 0-6 2.6715-6 5.9669z" clip-rule="evenodd" fill-rule="evenodd"/><rect x="26" y="39" width="63" height="1"/><rect x="37" y="45" width="41" height="1"/></g><path d="m12.5 63.5h45v15h-39.5c-3.0376 0-5.5-2.4624-5.5-5.5z" stroke="#00c5ff"/><g fill="#00c5ff"><path d="m57.5 63.5h45v9.5c0 3.0376-2.462 5.5-5.5 5.5h-39.5z" stroke="#00c5ff"/><path d="m113 36.967v26.066c0 2.7462 2.239 4.9724 5 4.9724h13c2.761 0 5-2.2262 5-4.9724v-26.066c0-2.7462-2.239-4.9724-5-4.9724h-13c-2.761 0-5 2.2262-5 4.9724zm-1 26.066c0 3.2954 2.686 5.9669 6 5.9669h13c3.314 0 6-2.6715 6-5.9669v-26.066c0-3.2954-2.686-5.9669-6-5.9669h-13c-3.314 0-6 2.6715-6 5.9669z" clip-rule="evenodd" fill-opacity=".3" fill-rule="evenodd"/><path d="m41.061 9.1819c-0.0441 0.35722-0.061 0.72997-0.061 0.81806h-1c0-0.13417 0.0201-0.54816 0.0686-0.94066 0.0241-0.19533 0.0576-0.40575 0.1052-0.58063 0.0232-0.08551 0.0556-0.1847 0.1031-0.27538 0.0303-0.058 0.1161-0.21195 0.2928-0.29746l1.9156-1.1052 0.0078-0.00388c0.0031-0.00272 0.0113-0.01052 0.0236-0.02688 0.023-0.03067 0.0496-0.0776 0.0747-0.14035 0.0402-0.10068 0.0632-0.20736 0.0716-0.28749l-0.663-2.1363v-0.07581c0-0.00972 0-0.01979-1e-4 -0.03018-8e-4 -0.20741-0.0021-0.54515 0.2947-0.84198l0.9629-0.963c0.2968-0.29682 0.6346-0.29551 0.842-0.29471 0.0104 4e-5 0.0204 8e-5 0.0301 8e-5h0.0656l2.2727 0.60616c0.0034-4.2e-4 0.0076-0.00101 0.0125-0.00184 0.0368-0.00621 0.0896-0.02122 0.1497-0.04653 0.0595-0.02503 0.1136-0.05492 0.1543-0.08337 0.0221-0.0154 0.0347-0.02654 0.0408-0.03217l1.1017-1.9099 9e-3 -0.013475c0.1016-0.1524 0.2295-0.29392 0.4047-0.39126 0.1785-0.099194 0.3614-0.12775 0.5299-0.12775l1.2592-5.5043e-8c0.2808-1.2275e-8 0.7771 0.093889 0.9726 0.58289l1.0725 1.8592c6e-3 0.00549 0.0182 0.01602 0.0391 0.0304 0.0402 0.02762 0.0947 0.05713 0.1571 0.08206 0.0623 0.02495 0.122 0.04116 0.1708 0.04847 0.0374 0.00561 0.0569 0.00432 0.0612 0.00405l2.1235-0.58589c0.1925-0.06148 0.3923-0.07023 0.5891-0.00462 0.1885 0.06287 0.3277 0.17904 0.4269 0.2782l0.9629 0.963c0.2968 0.29682 0.2955 0.63461 0.2947 0.842-1e-4 0.0104-1e-4 0.02047-1e-4 0.03019v0.06771l-0.6068 2.1999c-3e-4 0.00433-0.0016 0.02382 4e-3 0.06127 0.0073 0.04878 0.0235 0.10852 0.0485 0.17089 0.0249 0.06231 0.0544 0.11688 0.082 0.15702 0.0143 0.02087 0.0249 0.03305 0.0303 0.039l1.8723 1.0802c0.1767 0.08552 0.2625 0.23946 0.2928 0.29746 0.0475 0.09068 0.0799 0.18988 0.1031 0.27539 0.0476 0.17488 0.0811 0.3853 0.1052 0.58062 0.0485 0.3925 0.0686 0.8065 0.0686 0.94067h-1c0-0.08809-0.0169-0.46085-0.061-0.81806-0.0222-0.17953-0.0489-0.33471-0.0778-0.44097-1e-3 -0.00367-0.0019-0.00718-0.0029-0.01054l-1.8443-1.0641-0.0134-0.00893c-0.2356-0.15692-0.3949-0.43519-0.4834-0.65632-0.0894-0.22347-0.1695-0.54579-0.0949-0.8441l0.0029-0.01175 0.5746-2.0824c-2e-4 -0.02421-6e-4 -0.04418-0.0015-0.06256-9e-4 -0.0185-0.0021-0.03077-0.0032-0.03859l-0.9597-0.95979v0c-0.0091-0.00908-0.0168-0.01637-0.0233-0.02215l-2.1685 0.59831c-0.2983 0.07462-0.6207-0.00566-0.8441-0.09504-0.2211-0.08847-0.4993-0.24778-0.6562-0.48324l-9e-3 -0.01347-1.1432-1.9818c-0.0161-0.00267-0.0367-0.0045-0.0614-0.0045h-1.2592c-0.0262 0-0.04 0.00206-0.0456 0.00317-0.0066 0.00552-0.0231 0.02145-0.049 0.05878l-1.11 1.9243-9e-3 0.01347c-0.1555 0.23329-0.4313 0.39248-0.6387 0.47981-0.1158 0.04878-0.2435 0.08934-0.3711 0.11091-0.1124 0.01899-0.2727 0.03178-0.4346-0.01734l-2.1477-0.57283c-0.0252 2e-4 -0.0458 6.3e-4 -0.0647 0.00156-0.0185 9e-4 -0.0308 0.00211-0.0386 0.00315l-0.9566 0.95665c-1e-3 0.00782-0.0023 0.02009-0.0032 0.0386-8e-4 0.01633-0.0012 0.03392-0.0014 0.05463l0.6664 2.1475v0.07581c0 0.2165-0.051 0.48307-0.1469 0.72273-0.088 0.22002-0.255 0.52054-0.5581 0.67942l-1.82 1.05c-1e-3 0.00336-0.0019 0.00688-0.0029 0.01054-0.0289 0.10627-0.0556 0.26144-0.0778 0.44097z" clip-rule="evenodd" fill-opacity=".3" fill-rule="evenodd"/></g></g></g></svg>
