<svg width="18.975" height="22.675" version="1.1" viewBox="0 0 5.0204 5.9994" xml:space="preserve" xmlns="http://www.w3.org/2000/svg"><defs><clipPath id="clipPath4"><rect transform="matrix(0,1,1,0,0,0)" x="-.19" y="-.66" width="6.3499" height="6.3499" fill="#fff"/></clipPath><clipPath id="clipPath5"><rect transform="matrix(0,1,1,0,0,0)" x="-.19" y="-.66" width="6.3499" height="6.3499" fill="#fff"/></clipPath></defs><path d="m1.4302 2.6145c0.29385 0.31598 0.67502 0.55333 1.0932 0.66145 0.14712 0.027505 0.21812-0.23111 0.063118-0.26334-0.38026-0.072578-0.70953-0.3056-0.97114-0.58332 0.48219-0.45768 0.85575-1.0324 1.0583-1.6669 0.019341-0.12669-0.12543-0.17009-0.22637-0.15875h-0.9907v-0.47624c0.047891-0.15943-0.2699-0.16532-0.23812 0.008453v0.46779c-0.35898 8.2778e-4 -0.71807-0.001655-1.077 0.00124-0.14847 0.029774-0.13492 0.30143 0.03556 0.26334h2.1791c-0.1696 0.42619-0.40155 0.83081-0.71883 1.1648-0.066898 0.072445-0.13771 0.14111-0.2072 0.21103-0.151-0.19789-0.31452-0.38678-0.44179-0.60192-0.080834-0.075908-0.077581-0.26067-0.21746-0.24474-0.16179-0.012873-0.10345 0.20605-0.030726 0.28205 0.13068 0.25272 0.32428 0.46218 0.4964 0.68574 0.0013429 0.039488-0.080814 0.065905-0.11114 0.10166-0.29731 0.23714-0.64099 0.42586-1.0104 0.51923-0.18515 0.022504-0.12407 0.33306 0.053565 0.28985 0.13686-0.006077 0.26565-0.069727 0.39419-0.11323 0.30814-0.12755 0.60686-0.2957 0.84774-0.52861l0.019606-0.019606z" clip-path="url(#clipPath5)" fill="#00c5ff" stroke-width=".26458"/><path d="m4.9226 6.0012c0.12647-0.043928 0.09688-0.17227 0.049588-0.26509-0.37812-1.0141-0.75624-2.0281-1.1344-3.0422-0.038553-0.099512-0.18692-0.086964-0.23812 0-0.39054 1.012-0.7813 2.0239-1.1717 3.036-0.035537 0.14944 0.23231 0.24065 0.2752 0.07809 0.10481-0.27075 0.20961-0.5415 0.31442-0.81225h1.4287c0.12426 0.31557 0.2555 0.62889 0.37537 0.94587 0.021415 0.030223 0.060722 0.065324 0.10087 0.059531zm-1.8256-1.2964c0.20284-0.52916 0.40569-1.0583 0.60853-1.5875 0.20284 0.52916 0.40569 1.0583 0.60853 1.5875h-1.2171z" clip-path="url(#clipPath4)" fill="#00c5ff" stroke-width=".26458"/></svg>
