<svg xmlns="http://www.w3.org/2000/svg" viewBox="0 0 8.467 8.467" height="32" width="32">
  <g class="currentLayer">
    <g class="selected">
      <path d="M4.002 8.457C2.619 8.397 1.338 7.44.945 6.137c-.304-1.006-.14-1.974.35-2.894.359-.67.874-1.216 1.412-1.744C3.177 1.04 3.67.6 4.1.104c.07-.08.127-.169.24-.037.546.643 1.2 1.183 1.782 1.792.541.568 1.019 1.176 1.298 1.915C8.047 5.44 7.52 7.24 5.8 8.115c-.555.28-1.065.386-1.797.342z" fill="#46beae"/>
      <path d="M5.689 4.571c.052-.359-.198-.738-.685-.903l.127-.508-.385-.094-.124.492c-.1-.025-.206-.048-.308-.071l.125-.496-.386-.095-.127.508-.698-.17-.102.407s.286.065.279.069c.156.039.184.14.18.221l-.43 1.712c-.02.046-.067.116-.176.09.004.006-.281-.068-.281-.068l-.19.435.696.174-.139.554.385.095.137-.548a8.945 8.945 0 00.307.078l-.137.545.385.096.14-.553c.656.122 1.156-.047 1.278-.534.1-.398.01-.69-.277-.903.19-.061.365-.252.406-.533zm-.79 1.191c-.118.473-.923.218-1.184.154l.21-.838c.26.065 1.097.192.974.684zm.118-1.226c-.109.43-.779.213-.997.16l.19-.76c.22.054.919.152.807.6z" fill="#fff"/>
    </g>
  </g>
</svg>
