<svg width="26.014" height="32" version="1.1" viewBox="0 0 6.8828 8.4667" xml:space="preserve" xmlns="http://www.w3.org/2000/svg"><g transform="translate(-62.918 -140.17)"><g class="selected" transform="matrix(.99996 0 0 .99996 62.127 140.17)"><path d="m4.002 8.457c-1.383-0.06-2.664-1.017-3.057-2.32-0.304-1.006-0.14-1.974 0.35-2.894 0.359-0.67 0.874-1.216 1.412-1.744 0.47-0.459 0.963-0.899 1.393-1.395 0.07-0.08 0.127-0.169 0.24-0.037 0.546 0.643 1.2 1.183 1.782 1.792 0.541 0.568 1.019 1.176 1.298 1.915 0.627 1.666 0.1 3.466-1.62 4.341-0.555 0.28-1.065 0.386-1.797 0.342z" fill="#46beae"/><path d="m5.689 4.571c0.052-0.359-0.198-0.738-0.685-0.903l0.127-0.508-0.385-0.094-0.124 0.492c-0.1-0.025-0.206-0.048-0.308-0.071l0.125-0.496-0.386-0.095-0.127 0.508-0.698-0.17-0.102 0.407s0.286 0.065 0.279 0.069c0.156 0.039 0.184 0.14 0.18 0.221l-0.43 1.712c-0.02 0.046-0.067 0.116-0.176 0.09 4e-3 6e-3 -0.281-0.068-0.281-0.068l-0.19 0.435 0.696 0.174-0.139 0.554 0.385 0.095 0.137-0.548a8.945 8.945 0 0 0 0.307 0.078l-0.137 0.545 0.385 0.096 0.14-0.553c0.656 0.122 1.156-0.047 1.278-0.534 0.1-0.398 0.01-0.69-0.277-0.903 0.19-0.061 0.365-0.252 0.406-0.533zm-0.79 1.191c-0.118 0.473-0.923 0.218-1.184 0.154l0.21-0.838c0.26 0.065 1.097 0.192 0.974 0.684zm0.118-1.226c-0.109 0.43-0.779 0.213-0.997 0.16l0.19-0.76c0.22 0.054 0.919 0.152 0.807 0.6z" fill="#fff"/></g></g></svg>
