<svg width="14" height="14" version="1.1" viewBox="0 0 3.7042 3.7042" xml:space="preserve" xmlns="http://www.w3.org/2000/svg"><g transform="translate(-63.722 -141.62)"><g transform="matrix(.26458 0 0 .26458 63.722 141.62)" clip-rule="evenodd" fill="#00c5ff" fill-rule="evenodd"><path d="m2 2h1.75c0.55228 0 1-0.44772 1-1 0-0.55228-0.44772-1-1-1h-2.25c-0.82843 0-1.5 0.67157-1.5 1.5v11c0 0.8284 0.67157 1.5 1.5 1.5h11c0.8284 0 1.5-0.6716 1.5-1.5v-2.25c0-0.55229-0.4477-1-1-1s-1 0.44771-1 1v1.75h-10z"/><path d="m6.6667 1c0-0.55228 0.44771-1 1-1h5.3333c0.5523 0 1 0.44772 1 1v5.3333c0 0.55229-0.4477 1-1 1s-1-0.44771-1-1v-2.9191l-6.2929 6.2929c-0.39053 0.39049-1.0237 0.39049-1.4142 0-0.39052-0.39053-0.39052-1.0237 0-1.4142l6.2929-6.2929h-2.9191c-0.55229 0-1-0.44772-1-1z"/></g></g></svg>
