<svg version="1.1" viewBox="0 0 19.722 24" xml:space="preserve" xmlns="http://www.w3.org/2000/svg"><g transform="translate(-102.36 -145.34)"><g transform="matrix(1.0062 0 0 1.0062 100.27 145.34)" fill="none" stroke-width=".26294"><g clip-rule="evenodd" fill-rule="evenodd" stroke-width=".26294"><path d="m6.5194 16.219c-0.42222 0-0.82363-0.246-0.99927-0.6558-0.59684-1.3921-0.89901-2.8712-0.89901-4.3959 0-5.6707 4.2716-10.468 9.9365-11.159 0.5958-0.071399 1.1363 0.34684 1.2097 0.93733 0.0733 0.59015-0.35 1.1275-0.9447 1.1999-4.5786 0.55867-8.0311 4.4369-8.0311 9.0217 0 1.2337 0.24453 2.4292 0.72609 3.553 0.23465 0.5472-0.02251 1.18-0.57398 1.4124-0.13881 0.0586-0.28273 0.0863-0.42427 0.0863z" fill="#2cccbf"/><g fill="#9ef2ed"><path d="m8.8625 10.336c-0.06064 0-0.12263-0.0075-0.18394-0.0235-0.39431-0.102-0.63143-0.50648-0.53015-0.90314 0.93766-3.6678 4.2222-6.2286 7.988-6.2286 1.9214 0 3.792 0.67941 5.2672 1.9137 0.313 0.26126 0.3561 0.72921 0.0959 1.044-0.2595 0.31515-0.7242 0.35847-1.0372 0.09687-1.2114-1.0133-2.7476-1.5716-4.3259-1.5716-3.0934 0-5.7912 2.1034-6.5612 5.115-0.08536 0.33526-0.38481 0.55726-0.71272 0.55726z"/><path d="m15.599 19.061c-0.8759-0.0593-1.7302-0.2551-2.5389-0.5832-0.3827-0.1553-0.5693-0.5969-0.417-0.9864 0.153-0.3892 0.5864-0.5791 0.9692-0.4241 0.6636 0.2694 1.3652 0.4304 2.0858 0.4792 0.9948 0.0674 1.9678-0.0799 2.892-0.4384 0.3851-0.1487 0.8159 0.0478 0.9623 0.4395 0.1465 0.3916-0.0466 0.8304-0.4314 0.9797-1.1266 0.4363-2.3111 0.6158-3.522 0.5337z"/><path d="m11.495 23.851c-0.0714 0-0.1441-0.0105-0.2158-0.0326-5.4218-1.6499-9.2088-6.9433-9.2088-12.805 0-2.5099 0.71491-4.9481 2.0675-7.0512 0.21995-0.34294 0.67717-0.44267 1.0212-0.22218 0.34368 0.21981 0.44362 0.67639 0.223 1.0193-1.1993 1.8647-1.8333 4.0275-1.8333 6.2541 0 5.2184 3.3563 9.9318 8.1618 11.394 0.3905 0.1191 0.6105 0.5312 0.4912 0.921-0.0973 0.3178-0.3899 0.5227-0.7068 0.5227z"/></g><path d="m16.021 21.943c-3.2272 0-6.1743-1.2096-8.1514-3.3632-0.31557-0.3439-0.28995-0.8755 0.05698-1.1883 0.34693-0.3122 0.88402-0.2872 1.1999 0.0567 1.7461 1.9015 4.4322 2.9256 7.358 2.803 0.4703-0.022 0.8641 0.3416 0.8837 0.8057 0.0195 0.4638-0.3446 0.8561-0.8136 0.8755-0.1783 7e-3 -0.357 0.0106-0.5337 0.0106z" fill="#2cccbf"/></g></g></g></svg>
