<svg width="20" height="24" version="1.1" viewBox="0 0 5.2916 6.3499" xml:space="preserve" xmlns="http://www.w3.org/2000/svg"><g transform="translate(-102.43 -145.33)"><g fill="#00c5ff"><path d="m102.96 147.44c-0.29068 0-0.5293 0.23862-0.5293 0.52929v2.6465c0 0.58292 0.47372 1.0586 1.0566 1.0586h3.1758c0.58293 0 1.0586-0.47567 1.0586-1.0586v-2.6465c0-0.29067-0.23863-0.52929-0.5293-0.52929zm0 0.26562h4.2324c0.14767 0 0.26367 0.11599 0.26367 0.26367v2.6465c0 0.43993-0.35303 0.79297-0.79297 0.79297h-3.1758c-0.43994 0-0.79297-0.35304-0.79297-0.79297v-2.6465c0-0.14768 0.11794-0.26367 0.26563-0.26367z" color="#000000" style="-inkscape-stroke:none"/><path d="m105.08 145.32c-0.72905 0-1.3223 0.59518-1.3223 1.3242v1.0586h2.6465v-1.0586c0-0.72904-0.59517-1.3242-1.3242-1.3242zm0 0.26562c0.58607 0 1.0586 0.47254 1.0586 1.0586v0.79297h-2.1172v-0.79297c0-0.58606 0.47253-1.0586 1.0586-1.0586z" color="#000000" style="-inkscape-stroke:none"/><path d="m105.08 149.03c-0.29068 0-0.5293 0.23862-0.52929 0.52929-1e-5 0.29068 0.23861 0.5293 0.52929 0.5293s0.5293-0.23862 0.5293-0.5293c0-0.29067-0.23862-0.52929-0.5293-0.52929zm0 0.26367c0.14768 0 0.26563 0.11796 0.26563 0.26562 0 0.14769-0.11795 0.26368-0.26563 0.26368s-0.26367-0.11599-0.26367-0.26368c0-0.14766 0.11599-0.26562 0.26367-0.26562z" color="#000000" style="-inkscape-stroke:none"/></g></g></svg>
