<svg width="156" height="202" version="1.1" viewBox="0 0 41.274 53.446" xml:space="preserve" xmlns="http://www.w3.org/2000/svg"><g transform="translate(-43.222 -120.22)"><g transform="matrix(1 0 0 1 43.223 120.22)"><path d="m34.925 26.987h-3.402v-12.914c0-5.772-4.762-10.7-10.886-10.7-6.123 0-10.885 4.928-10.885 10.7v10.216h-3.402v-10.216c0-7.76 6.123-14.073 14.287-14.073 8.165 0 14.288 6.314 14.288 14.073z" fill="#00c5ff"/><path d="m30.616 52.652h-19.956c-5.502 0-9.867-4.15-9.867-9.155v-13.969c0-5.006 4.365-9.155 9.867-9.155h19.953c5.502 0 9.867 4.15 9.867 9.155v13.97c0 5.006-4.365 9.154-9.865 9.154z" fill="#135579" stroke="#00c5ff" stroke-width="1.5875"/><path d="m18.256 34.174c0-1.193 1.066-2.16 2.382-2.16s2.38 0.967 2.38 2.16c0 0.936-0.656 1.734-1.575 2.033l1.2 4.539h-4.012l1.2-4.538c-0.918-0.3-1.575-1.097-1.575-2.034z" fill="#00c5ff"/></g></g></svg>
