<?xml version="1.0" encoding="UTF-8" standalone="no"?>
<svg
   xmlns:dc="http://purl.org/dc/elements/1.1/"
   xmlns:cc="http://creativecommons.org/ns#"
   xmlns:rdf="http://www.w3.org/1999/02/22-rdf-syntax-ns#"
   xmlns:svg="http://www.w3.org/2000/svg"
   xmlns="http://www.w3.org/2000/svg"
   width="5.2916665mm"
   height="6.3499999mm"
   viewBox="0 0 5.2916665 6.3499999"
   version="1.1"
   id="svg8">
  <defs
     id="defs2" />
  <metadata
     id="metadata5">
    <rdf:RDF>
      <cc:Work
         rdf:about="">
        <dc:format>image/svg+xml</dc:format>
        <dc:type
           rdf:resource="http://purl.org/dc/dcmitype/StillImage" />
        <dc:title></dc:title>
      </cc:Work>
    </rdf:RDF>
  </metadata>
  <g
     id="layer1"
     transform="translate(-4.1027223,-2.568032)">
    <g
       style="fill:none"
       id="g4535"
       transform="matrix(0.26458333,0,0,0.26458333,3.5735556,2.568032)">
      <path
         id="path4518"
         d="m 2.5,20 c 0,1.933 1.567,3.5 3.5,3.5 h 12 c 1.933,0 3.5,-1.567 3.5,-3.5 V 10 C 21.5,9.17157 20.8284,8.5 20,8.5 H 4 C 3.17157,8.5 2.5,9.17157 2.5,10 Z"
         style="stroke:#00c5ff" />
      <path
         id="path4520"
         d="m 7.5,5 c 0,-2.48528 2.01472,-4.5 4.5,-4.5 2.4853,0 4.5,2.01472 4.5,4.5 v 3.5 h -9 z"
         style="stroke:#00c5ff" />
      <path
         id="path4522"
         d="m 10.5,16 c 0,0.8284 0.6716,1.5 1.5,1.5 0.8284,0 1.5,-0.6716 1.5,-1.5 0,-0.8284 -0.6716,-1.5 -1.5,-1.5 -0.8284,0 -1.5,0.6716 -1.5,1.5 z"
         style="stroke:#00c5ff" />
    </g>
  </g>
</svg>
