<svg xmlns="http://www.w3.org/2000/svg" viewBox="0 0 41.275 53.446" height="202" width="156">
  <g fill="none">
    <path d="M34.925 26.987h-3.402V14.073c0-5.772-4.762-10.7-10.886-10.7-6.123 0-10.885 4.928-10.885 10.7v10.216H6.35V14.073C6.35 6.313 12.473 0 20.637 0c8.165 0 14.288 6.314 14.288 14.073z" fill="#00c5ff"/>
    <path d="M30.616 52.652H10.66c-5.502 0-9.867-4.15-9.867-9.155V29.528c0-5.006 4.365-9.155 9.867-9.155h19.953c5.502 0 9.867 4.15 9.867 9.155v13.97c0 5.006-4.365 9.154-9.865 9.154z" fill="#135579" stroke="#00c5ff" stroke-width="1.5874799999999998"/>
    <path d="M18.256 34.174c0-1.193 1.066-2.16 2.382-2.16s2.38.967 2.38 2.16c0 .936-.656 1.734-1.575 2.033l1.2 4.539h-4.012l1.2-4.538c-.918-.3-1.575-1.097-1.575-2.034z" fill="#00c5ff"/>
  </g>
</svg>
