<?xml version="1.0" encoding="UTF-8"?>
<!-- Created with Inkscape (http://www.inkscape.org/) -->
<svg width="20" height="24" version="1.1" viewBox="0 0 5.2917 6.35" xmlns="http://www.w3.org/2000/svg">
 <g transform="translate(-53.295 -63.26)">
  <g transform="translate(49.192 60.691)">
   <g transform="matrix(.26458 0 0 .26458 3.5736 2.568)" fill="none" stroke="#00c5ff">
    <path d="m2.5 20c0 1.933 1.567 3.5 3.5 3.5h12c1.933 0 3.5-1.567 3.5-3.5v-10c0-0.82843-0.6716-1.5-1.5-1.5h-16c-0.82843 0-1.5 0.67157-1.5 1.5z"/>
    <path d="m7.5 5c0-2.4853 2.0147-4.5 4.5-4.5 2.4853 0 4.5 2.0147 4.5 4.5v3.5h-9z"/>
    <path d="m10.5 16c0 0.8284 0.6716 1.5 1.5 1.5s1.5-0.6716 1.5-1.5-0.6716-1.5-1.5-1.5-1.5 0.6716-1.5 1.5z"/>
   </g>
  </g>
 </g>
</svg>
