<svg version="1.1" viewBox="0 0 24 24" xml:space="preserve" xmlns="http://www.w3.org/2000/svg"><g transform="translate(-101.61 -143.49)"><path d="m104.9 159.53h2.9366q0.77016 0 1.3053-0.54935 0.53518-0.54936 0.53518-1.3198v-4.3673q0-0.77023-0.53518-1.3053-0.53518-0.53518-1.3053-0.53518h-2.9366zm1.2058-1.2057v-5.6654h1.7308q0.31748 0 0.47622 0.15874t0.15874 0.47622v4.3673q0 0.31748-0.15874 0.49039-0.15874 0.17273-0.47622 0.17273zm6.049 1.2057h3.1558v-1.2057h-3.0174v-2.2385h2.0942v-1.2058h-2.0942v-2.2211h3.0174v-1.2058h-3.1558q-0.42973 0-0.74857 0.31862-0.31861 0.31861-0.31861 0.74853v5.9423q0 0.42973 0.31861 0.74857 0.31862 0.31861 0.74857 0.31861zm7.35-0.0113q0.42974 0 0.74279-0.30425 0.31295-0.30463 0.4252-0.73417l1.927-7.0298h-1.2808l-1.8144 6.5827-1.8721-6.5827h-1.2808l1.9558 7.0298q0.11225 0.42973 0.43994 0.73417 0.32768 0.30425 0.75719 0.30425zm-15.47 7.9702q-1.0356 0-1.7293-0.69377-0.69377-0.69373-0.69377-1.7293v-19.154q0-1.0356 0.69377-1.7293 0.69373-0.69374 1.7293-0.69374h19.154q1.0356 0 1.7293 0.69374 0.69373 0.69377 0.69373 1.7293v19.154q0 1.0356-0.69373 1.7293-0.69377 0.69377-1.7293 0.69377zm0-1.5h19.154q0.34659 0 0.63462-0.28875 0.28876-0.28838 0.28876-0.63462v-19.154q0-0.34659-0.28876-0.63462-0.28875-0.28838-0.63462-0.28838h-19.154q-0.34582 0-0.63462 0.28838-0.28838 0.28837-0.28838 0.63462v19.154q0 0.34582 0.28838 0.63462 0.28876 0.28875 0.63462 0.28875zm-0.92307-21v21z" fill="#00c5ff" stroke-width=".0066146"/></g></svg>
