<svg xmlns="http://www.w3.org/2000/svg" viewBox="0 0 7.407 7.408" height="28" width="27.996">
  <g fill="none">
    <path d="M3.704 7.407a3.704 3.704 0 100-7.407 3.704 3.704 0 000 7.407z" fill="#00c5ff"/>
    <path d="M4.965 5.24l-.03-.055a.261.261 0 01.037-.305h-.384v-.003c.262-.29.452-.703.524-1.18.107-.033.222-.17.286-.357.084-.24.05-.472-.075-.515-.055-.02-.119.001-.18.05V1.52a.38.38 0 00-.38-.38h-2.12a.38.38 0 00-.38.38v1.357c-.06-.05-.124-.07-.18-.05-.124.043-.158.274-.074.515.065.185.18.323.285.358.073.475.262.89.525 1.178v.004h-.384a.261.261 0 01.037.304l-.03.056c-.668.156-1.234.432-1.625.785a3.696 3.696 0 002.886 1.382c1.167 0 2.207-.54 2.886-1.382-.39-.353-.956-.63-1.624-.786z" fill="#caf3ff"/>
  </g>
</svg>
