<svg xmlns="http://www.w3.org/2000/svg" viewBox="0 0 7.408 7.409" height="28.002" width="27.999">
  <g fill="none">
    <path d="M7.408 3.704a3.704 3.704 0 10-7.408 0 3.704 3.704 0 007.408 0z" fill="#00c5ff"/>
    <path d="M4.474 5.142v-.225c.259-.227.461-.564.573-.964.01.005.02.009.03.01.13.023.271-.219.315-.539.043-.32-.028-.598-.159-.62-.038-.006-.076.01-.113.044l-.009-.056.045-.213c.047-.226.094-.465.02-.684a.891.891 0 00-.187-.305c-.254-.283-.622-.45-.999-.498a2.488 2.488 0 00-1.12.138c-.214.074-.46.238-.416.46-.11-.04-.234.046-.277.156-.042.11-.025.232-.008.348l.096.635a.122.122 0 00-.088-.024c-.131.023-.202.3-.159.62.043.32.185.56.315.539a.111.111 0 00.03-.01c.112.4.314.737.573.963v.22c-.9.093-1.69.347-2.255.705A3.698 3.698 0 003.706 7.41c1.24 0 2.337-.61 3.01-1.547-.559-.363-1.344-.622-2.242-.72z" fill="#caf3ff"/>
  </g>
</svg>
