<svg width="19.998" height="22.998" version="1.1" viewBox="0 0 5.2913 6.085" xml:space="preserve" xmlns="http://www.w3.org/2000/svg"><g transform="translate(-102.43 -145.46)"><g stroke-width=".26456"><path d="m102.56 145.99a0.39684 0.39684 0 0 1 0.39684-0.39685h4.233a0.39684 0.39684 0 0 1 0.39684 0.39685v0.79369a0.39684 0.39684 0 0 1-0.39684 0.39684h-4.233a0.39684 0.39684 0 0 1-0.39684-0.39684zm0 2.1165a0.39684 0.39684 0 0 1 0.39684-0.39684h4.233a0.39684 0.39684 0 0 1 0.39684 0.39684v0.79369a0.39684 0.39684 0 0 1-0.39684 0.39685h-4.233a0.39684 0.39684 0 0 1-0.39684-0.39685zm0 2.1165a0.39684 0.39684 0 0 1 0.39684-0.39685h4.233a0.39684 0.39684 0 0 1 0.39684 0.39685v0.79369a0.39684 0.39684 0 0 1-0.39684 0.39684h-4.233a0.39684 0.39684 0 0 1-0.39684-0.39684z" fill="none" stroke="#00c5ff"/><g fill="#00c5ff"><circle cx="106.8" cy="146.38" r=".13228"/><circle cx="106.8" cy="148.5" r=".13228"/><circle cx="106.8" cy="150.62" r=".13228"/><rect x="103.22" y="146.25" width="1.0583" height=".26456" rx=".13228"/><rect x="103.22" y="148.37" width="1.0583" height=".26456" rx=".13228"/><rect x="103.22" y="150.48" width="1.0583" height=".26456" rx=".13228"/></g></g></g></svg>
