<svg width="24" height="24" version="1.1" viewBox="0 0 6.35 6.35" xml:space="preserve" xmlns="http://www.w3.org/2000/svg"><g transform="translate(-93.704 -146.63)"><g transform="matrix(.26458 0 0 .26458 93.704 146.63)"><path d="m0 0h24v24h-24z" fill="none"/><path d="m19 2h-4.18c-0.42-1.16-1.52-2-2.82-2s-2.4 0.84-2.82 2h-4.18c-1.1 0-2 0.9-2 2v16c0 1.1 0.9 2 2 2h14c1.1 0 2-0.9 2-2v-16c0-1.1-0.9-2-2-2zm-7 0c0.55 0 1 0.45 1 1s-0.45 1-1 1-1-0.45-1-1 0.45-1 1-1zm7 18h-14v-16h2v3h10v-3h2z"/></g></g></svg>
