<svg width="81.422" height="19.596" version="1.1" viewBox="0 0 21.543 5.1849" xml:space="preserve" xmlns="http://www.w3.org/2000/svg"><defs><clipPath id="a"><rect width="82" height="20" fill="#fff"/></clipPath></defs><g transform="translate(-80.069 -104.73)"><g transform="matrix(.26458 0 0 .26458 79.916 104.62)" fill="none"><g clip-path="url(#a)" fill="#fff"><path d="m16.785 11.604c0 0.7-0.2894 1.4-0.7718 2-0.5788 0.6-1.1576 0.8-1.9294 0.8h-10.419v5.6h-3.0871v-13.697l2.7012-3.103h-2.7012v-2.8h13.506c0.6753 0 1.3506 0.3 1.9294 0.8 0.5788 0.6 0.7718 1.2 0.7718 2zm-3.0871 0v-8.4h-10.033v10.8l2.6138-2.4z"/><path d="m36.658 20.004h-10.819c-1.4839 0-2.6869-1.2211-2.6869-2.7273v-10.97l2.7012-3.103h-2.7012v-2.8h10.533l2.9732 2.8h-10.419v8l2.6138-2.4h7.805v2.8h-10.419v5.6h10.419z"/><path d="m58.461 20.004h-3.0871v-2.4l-2.6138 2.4h-7.805c-0.6753 0-1.3506-0.3-1.9294-0.8-0.5789-0.5-0.7718-1.2-0.7718-2v-14c0-0.7 0.2894-1.4 0.7718-2 0.5788-0.6 1.1576-0.8 1.9294-0.8h10.524l2.9817 2.8h-13.12v14h10.033v-5.6h-5.0164l2.9997-2.8h5.1038z"/><path d="m77.957 6.0027h4.3412l-13.804 14h-4.3412z"/><path d="m73.233 11.429-5.5209-5.4261h-4.3412l5.5209 5.4261z"/><path d="m76.806 15.098h-4.3412l5.0104 4.9008h4.3411z"/></g></g></g></svg>
