<svg width="28" height="28" version="1.1" viewBox="0 0 7.4083 7.4083" xml:space="preserve" xmlns="http://www.w3.org/2000/svg"><g transform="translate(-96.639 -152.65)"><g transform="matrix(.26458 0 0 .26458 96.639 152.65)" fill="#0f4766"><path d="m7 7v4h4v-4zm-1-2a1 1 0 0 0-1 1v6a1 1 0 0 0 1 1h6a1 1 0 0 0 1-1v-6a1 1 0 0 0-1-1zm11 2v4h4v-4zm-1-2a1 1 0 0 0-1 1v6a1 1 0 0 0 1 1h6a1 1 0 0 0 1-1v-6a1 1 0 0 0-1-1zm-9 12v4h4v-4zm-1-2a1 1 0 0 0-1 1v6a1 1 0 0 0 1 1h6a1 1 0 0 0 1-1v-6a1 1 0 0 0-1-1z" clip-rule="evenodd" fill-rule="evenodd"/><path d="m15 16a1 1 0 0 1 1-1h2a1 1 0 0 1 1 1v2a1 1 0 0 1-1 1h-2a1 1 0 0 1-1-1zm4 4a1 1 0 0 1 1-1h2a1 1 0 0 1 1 1v2a1 1 0 0 1-1 1h-2a1 1 0 0 1-1-1z"/><path d="m0 3a3 3 0 0 1 3-3h4a1 1 0 0 1 0 2h-4a1 1 0 0 0-1 1v4a1 1 0 0 1-2 0zm20-2a1 1 0 0 1 1-1h4a3 3 0 0 1 3 3v4a1 1 0 1 1-2 0v-4a1 1 0 0 0-1-1h-4a1 1 0 0 1-1-1zm-19 19a1 1 0 0 1 1 1v4a1 1 0 0 0 1 1h4a1 1 0 1 1 0 2h-4a3 3 0 0 1-3-3v-4a1 1 0 0 1 1-1zm26 0a1 1 0 0 1 1 1v4a3 3 0 0 1-3 3h-4a1 1 0 1 1 0-2h4a1 1 0 0 0 1-1v-4a1 1 0 0 1 1-1z" clip-rule="evenodd" fill-rule="evenodd"/></g></g></svg>
