<svg width="44" height="44" viewBox="0 0 44 44" fill="none" xmlns="http://www.w3.org/2000/svg">
<path fill-rule="evenodd" clip-rule="evenodd" d="M2 9C2 8.44772 2.44772 8 3 8H37C37.5523 8 38 8.44772 38 9V11H6C5.44772 11 5 11.4477 5 12C5 12.5523 5.44772 13 6 13H38V18H36C34.3431 18 33 19.3431 33 21V26C33 27.6569 34.3431 29 36 29H38V36C38 36.5523 37.5523 37 37 37H3C2.44771 37 2 36.5523 2 36V9ZM40 18V12V9C40 7.34315 38.6569 6 37 6H3C1.34315 6 0 7.34315 0 9V36C0 37.6569 1.34314 39 3 39H37C38.6569 39 40 37.6569 40 36V29H41C42.6569 29 44 27.6569 44 26V21C44 19.3431 42.6569 18 41 18H40ZM35 21C35 20.4477 35.4477 20 36 20H41C41.5523 20 42 20.4477 42 21V26C42 26.5523 41.5523 27 41 27H36C35.4477 27 35 26.5523 35 26V21ZM38.5 25C39.3283 25 40 24.3283 40 23.5C40 22.6715 39.3283 22 38.5 22C37.6715 22 37 22.6715 37 23.5C37 24.3283 37.6715 25 38.5 25ZM12 26C13.1046 26 14 25.1046 14 24C14 22.8954 13.1046 22 12 22C10.8954 22 10 22.8954 10 24C10 25.1046 10.8954 26 12 26ZM14.9242 26.7293C15.5916 26.0146 16 25.055 16 24C16 21.7909 14.2091 20 12 20C9.79086 20 8 21.7909 8 24C8 25.055 8.40844 26.0146 9.07582 26.7293C7.18519 27.7241 5.74892 29.6538 5.22053 32C5.07657 32.6392 5 33.3094 5 34H19C19 33.3094 18.9234 32.6392 18.7795 32C18.2511 29.6538 16.8148 27.7241 14.9242 26.7293ZM12 28C9.98596 28 7.99611 29.5516 7.27935 32H16.7206C16.0039 29.5516 14.014 28 12 28Z" fill="white"/>
</svg>
