<svg version="1.1" viewBox="0 0 30 35.822" xml:space="preserve" xmlns="http://www.w3.org/2000/svg"><defs><clipPath id="clip0_4139_26356"><rect width="36" height="36" fill="#fff"/></clipPath></defs><g transform="translate(-381.66 -543.35)"><g transform="translate(378.66 543.35)" fill="#fff"><g clip-path="url(#clip0_4139_26356)" fill="#fff"><path d="m28.192 8.6503 0.7-0.71417zm0 18.019 0.7 0.7141zm-5.3792-22.232c-0.5321-0.14786-1.0834 0.16365-1.2312 0.69578-0.1479 0.53212 0.1636 1.0834 0.6957 1.2312zm4.6792 4.9266c2.2483 2.2036 3.5076 5.188 3.5076 8.2954h2c0-3.6511-1.48-7.1484-4.1076-9.7238zm3.5076 8.2954c0 3.1075-1.2593 6.0918-3.5076 8.2954l1.4 1.4283c2.6276-2.5754 4.1076-6.0727 4.1076-9.7237zm-3.5076 8.2954c-2.2489 2.2042-5.3034 3.4461-8.4924 3.4461v2c3.7066 0 7.2654-1.443 9.8924-4.0178zm-5.2147-19.59c1.9558 0.54346 3.755 1.5689 5.2147 2.9996l1.4-1.4283c-1.7055-1.6716-3.8036-2.8659-6.0792-3.4982z"/><path d="m7.8076 26.152-0.69997 0.7141zm0-18.019-0.69997-0.71418zm5.3792 22.232c0.5321 0.1478 1.0834-0.1637 1.2312-0.6958 0.1479-0.5321-0.1636-1.0834-0.6957-1.2312zm-4.6792-4.9266c-2.2483-2.2036-3.5076-5.188-3.5076-8.2954h-2c0 3.651 1.48 7.1483 4.1076 9.7237zm-3.5076-8.2954c0-3.1075 1.2593-6.0919 3.5076-8.2955l-1.3999-1.4284c-2.6277 2.5754-4.1076 6.0727-4.1076 9.7238zm3.5076-8.2955c2.2489-2.2042 5.3034-3.4461 8.4924-3.4461v-2c-3.7066 0-7.2654 1.443-9.8924 4.0177zm5.2147 19.59c-1.9558-0.5435-3.755-1.5689-5.2147-2.9996l-1.3999 1.4283c1.7055 1.6716 3.8036 2.866 6.0792 3.4983z"/><path d="m12.996 10.198 3.9014-5.8974-5.8974-3.9014" stroke="#fff" stroke-linecap="round" stroke-linejoin="round" stroke-width="2"/><path d="m23.967 34.822-5.545-4.3879 4.388-5.545" stroke="#fff" stroke-linecap="round" stroke-linejoin="round" stroke-width="2"/></g></g></g></svg>
