<svg width="24.561" height="24.578" version="1.1" viewBox="0 0 6.4984 6.5029" xml:space="preserve" xmlns="http://www.w3.org/2000/svg"><g transform="translate(-93.833 -143.5)"><g transform="matrix(.26458 0 0 .26458 93.645 143.32)" fill="none"><circle cx="13" cy="13" r="4.5" stroke="#86a2be"/><path d="m9.146 0.804a1.5 1.5 0 0 1 1.713 0.446l1.265 1.548a0.5 0.5 0 0 0 0.387 0.184h1.11a0.5 0.5 0 0 0 0.38-0.175l1.323-1.544a1.5 1.5 0 0 1 1.695-0.416l1.52 0.607c0.57 0.227 0.944 0.779 0.944 1.393v2.297a0.5 0.5 0 0 0 0.153 0.36l0.932 0.897a0.5 0.5 0 0 0 0.416 0.135l1.841-0.255a1.5 1.5 0 0 1 1.59 0.903l0.737 1.753a1.5 1.5 0 0 1-0.504 1.798l-1.53 1.104a0.5 0.5 0 0 0-0.207 0.406v1.423a0.5 0.5 0 0 0 0.175 0.38l1.642 1.406a1.5 1.5 0 0 1 0.41 1.713l-0.604 1.46a1.5 1.5 0 0 1-1.386 0.927h-2.263a0.5 0.5 0 0 0-0.355 0.147l-0.85 0.853a0.5 0.5 0 0 0-0.141 0.414l0.226 1.826a1.5 1.5 0 0 1-0.92 1.572l-1.786 0.733a1.5 1.5 0 0 1-1.75-0.463l-1.066-1.36a0.5 0.5 0 0 0-0.393-0.193h-1.562a0.5 0.5 0 0 0-0.403 0.205l-1.01 1.376a1.5 1.5 0 0 1-1.78 0.5l-1.977-0.815a1.5 1.5 0 0 1-0.92-1.54l0.188-1.826a0.5 0.5 0 0 0-0.11-0.367l-0.715-0.878a0.5 0.5 0 0 0-0.388-0.184h-2.321a1.5 1.5 0 0 1-1.386-0.926l-0.61-1.472a1.5 1.5 0 0 1 0.393-1.697l1.533-1.357a0.5 0.5 0 0 0 0.17-0.374v-1.413a0.5 0.5 0 0 0-0.188-0.39l-1.496-1.205a1.5 1.5 0 0 1-0.448-1.735l0.668-1.63a1.5 1.5 0 0 1 1.498-0.927l1.905 0.14a0.5 0.5 0 0 0 0.378-0.133l0.999-0.933a0.5 0.5 0 0 0 0.158-0.365v-2.238a1.5 1.5 0 0 1 0.949-1.395l1.77-0.7zm0.938 1.078a0.5 0.5 0 0 0-0.57-0.148l-1.772 0.7a0.5 0.5 0 0 0-0.316 0.465v2.237a1.5 1.5 0 0 1-0.476 1.096l-0.998 0.933a1.5 1.5 0 0 1-1.134 0.4l-1.906-0.14a0.5 0.5 0 0 0-0.5 0.309l-0.667 1.629a0.5 0.5 0 0 0 0.15 0.58l1.496 1.203a1.5 1.5 0 0 1 0.56 1.168v1.414a1.5 1.5 0 0 1-0.506 1.124l-1.535 1.356a0.5 0.5 0 0 0-0.13 0.566l0.609 1.471a0.5 0.5 0 0 0 0.462 0.309h2.321a1.5 1.5 0 0 1 1.163 0.553l0.716 0.878a1.5 1.5 0 0 1 0.329 1.101l-0.189 1.825a0.5 0.5 0 0 0 0.307 0.514l1.976 0.814a0.5 0.5 0 0 0 0.594-0.166l1.01-1.377a1.5 1.5 0 0 1 1.21-0.613h1.56a1.5 1.5 0 0 1 1.181 0.576l1.066 1.36a0.5 0.5 0 0 0 0.584 0.155l1.786-0.733a0.5 0.5 0 0 0 0.306-0.524l-0.226-1.826a1.5 1.5 0 0 1 0.426-1.243l0.85-0.853a1.5 1.5 0 0 1 1.063-0.441h2.263a0.5 0.5 0 0 0 0.462-0.309l0.604-1.46a0.5 0.5 0 0 0-0.136-0.571l-1.643-1.407a1.5 1.5 0 0 1-0.524-1.14v-1.422a1.5 1.5 0 0 1 0.622-1.216l1.53-1.105a0.5 0.5 0 0 0 0.167-0.599l-0.738-1.753a0.5 0.5 0 0 0-0.53-0.3l-1.841 0.255a1.5 1.5 0 0 1-1.246-0.405l-0.932-0.897a1.5 1.5 0 0 1-0.46-1.08v-2.299a0.5 0.5 0 0 0-0.315-0.465l-1.52-0.607a0.5 0.5 0 0 0-0.565 0.14l-1.322 1.543a1.5 1.5 0 0 1-1.139 0.524h-1.11a1.5 1.5 0 0 1-1.161-0.551l-1.265-1.549z" clip-rule="evenodd" fill="#86a2be" fill-rule="evenodd"/></g></g></svg>
