<svg version="1.1" viewBox="0 0 17 17" xml:space="preserve" xmlns="http://www.w3.org/2000/svg"><g transform="translate(-102.7 -146.25)"><g transform="translate(102.2 145.75)" fill="none" stroke-width=".26458"><path d="m9.9728 0.73567c-1.6775-0.42761-3.451-0.27012-5.0266 0.44642-1.5756 0.71655-2.8588 1.9492-3.6367 3.4938-0.77792 1.5446-1.0038 3.3083-0.63998 4.9987 0.36376 1.6903 1.2952 3.2057 2.6398 4.2949 1.3445 1.0892 3.0235 1.6869 4.7548 1.6943 1.6596 2e-4 3.2687-0.5449 4.5818-1.5443l2.9855 2.9803c0.0821 0.1046 0.1834 0.1927 0.2987 0.2594 0.1294 0.0749 0.2733 0.1212 0.422 0.1358s0.2989-0.0028 0.4403-0.0511c0.1414-0.0482 0.2709-0.1263 0.3797-0.2288 0.1088-0.1026 0.1943-0.2273 0.2507-0.3658 0.0565-0.1384 0.0826-0.2874 0.0764-0.4369-0.0061-0.1494-0.0443-0.2958-0.1119-0.4291-0.0627-0.1239-0.1495-0.2338-0.2551-0.3236l-2.9933-2.9882c0.9492-1.2459 1.4912-2.7584 1.545-4.3306 0.0592-1.728-0.475-3.4241-1.5138-4.8073-1.0387-1.3832-2.5197-2.3703-4.1972-2.7979zm-5.8001 3.4628c1.0319-1.0301 2.4316-1.609 3.8913-1.609 1.0885 0 2.1525 0.32223 3.0574 0.92585 0.905 0.60361 1.6101 1.4615 2.0265 2.465 0.4164 1.0035 0.5253 2.1077 0.3131 3.1729-0.2123 1.0652-0.7362 2.0439-1.5057 2.812-0.7695 0.7682-1.7501 1.2915-2.8176 1.5035-1.0676 0.212-2.1742 0.1031-3.1798-0.3127s-1.8649-1.1199-2.4695-2.0231c-0.60453-0.9032-0.92715-1.965-0.92715-3.051 0-1.4564 0.57954-2.8533 1.6114-3.8834z" clip-rule="evenodd" fill="#00c5ff" fill-rule="evenodd" stroke-width=".26458"/></g></g></svg>
