<svg version="1.1" viewBox="0 0 24 24" xml:space="preserve" xmlns="http://www.w3.org/2000/svg"><g transform="translate(-102.83 -146.38)"><path d="m126.83 151.52v16.442q0 1.0356-0.69373 1.7293-0.69377 0.69377-1.7293 0.69377h-19.154q-1.0356 0-1.7293-0.69377-0.69377-0.69373-0.69377-1.7293v-19.154q0-1.0356 0.69377-1.7293 0.69373-0.69374 1.7293-0.69374h16.442zm-1.5 0.64036-4.275-4.275h-15.802q-0.40366 0-0.66346 0.25966-0.25966 0.25965-0.25966 0.66346v19.154q0 0.40365 0.25966 0.66342 0.25965 0.25965 0.66346 0.25965h19.154q0.40365 0 0.66342-0.25965 0.25965-0.25966 0.25965-0.66342zm-10.5 13.033q1.2404 0 2.1202-0.8798 0.87976-0.87984 0.87976-2.1202 0-1.2404-0.87976-2.1202-0.87987-0.87984-2.1202-0.87984-1.2404 0-2.1202 0.87984-0.87976 0.8798-0.87976 2.1202 0 1.2404 0.87976 2.1202 0.8798 0.8798 2.1202 0.8798zm-7.8462-10.154h11.135v-4.5h-11.135zm-2.6539-2.8789v16.725-21z" fill="#00c5ff" stroke-width=".007"/></g></svg>
