<svg width="26" height="26" fill="none" xmlns="http://www.w3.org/2000/svg">
  <circle cx="13" cy="13" r="4.5" stroke="#86A2BE"/>
  <path fill-rule="evenodd" clip-rule="evenodd" d="M9.146.804a1.5 1.5 0 011.713.446l1.265 1.548a.5.5 0 00.387.184h1.11a.5.5 0 00.38-.175l1.323-1.544a1.5 1.5 0 011.695-.416l1.52.607c.57.227.944.779.944 1.393v2.297a.5.5 0 00.153.36l.932.897a.5.5 0 00.416.135l1.841-.255a1.5 1.5 0 011.59.903l.737 1.753a1.5 1.5 0 01-.504 1.798l-1.53 1.104a.5.5 0 00-.207.406v1.423a.5.5 0 00.175.38l1.642 1.406a1.5 1.5 0 01.41 1.713l-.604 1.46a1.5 1.5 0 01-1.386.927h-2.263a.5.5 0 00-.355.147l-.85.853a.5.5 0 00-.141.414l.226 1.826a1.5 1.5 0 01-.92 1.572l-1.786.733a1.5 1.5 0 01-1.75-.463l-1.066-1.36a.5.5 0 00-.393-.193h-1.562a.5.5 0 00-.403.205l-1.01 1.376a1.5 1.5 0 01-1.78.5l-1.977-.815a1.5 1.5 0 01-.92-1.54l.188-1.826a.5.5 0 00-.11-.367l-.715-.878a.5.5 0 00-.388-.184H2.852a1.5 1.5 0 01-1.386-.926l-.61-1.472a1.5 1.5 0 01.393-1.697l1.533-1.357a.5.5 0 00.17-.374v-1.413a.5.5 0 00-.188-.39L1.268 10.72A1.5 1.5 0 01.82 8.985l.668-1.63a1.5 1.5 0 011.498-.927l1.905.14a.5.5 0 00.378-.133l.999-.933a.5.5 0 00.158-.365V2.899a1.5 1.5 0 01.949-1.395l1.77-.7zm.938 1.078a.5.5 0 00-.57-.148l-1.772.7a.5.5 0 00-.316.465v2.237a1.5 1.5 0 01-.476 1.096l-.998.933a1.5 1.5 0 01-1.134.4l-1.906-.14a.5.5 0 00-.5.309l-.667 1.629a.5.5 0 00.15.58l1.496 1.203a1.5 1.5 0 01.56 1.168v1.414a1.5 1.5 0 01-.506 1.124L1.91 16.208a.5.5 0 00-.13.566l.609 1.471a.5.5 0 00.462.309h2.321a1.5 1.5 0 011.163.553l.716.878a1.5 1.5 0 01.329 1.101l-.189 1.825a.5.5 0 00.307.514l1.976.814a.5.5 0 00.594-.166l1.01-1.377a1.5 1.5 0 011.21-.613h1.56a1.5 1.5 0 011.181.576l1.066 1.36a.5.5 0 00.584.155l1.786-.733a.5.5 0 00.306-.524l-.226-1.826a1.5 1.5 0 01.426-1.243l.85-.853a1.5 1.5 0 011.063-.441h2.263a.5.5 0 00.462-.309l.604-1.46a.5.5 0 00-.136-.571l-1.643-1.407a1.5 1.5 0 01-.524-1.14v-1.422a1.5 1.5 0 01.622-1.216l1.53-1.105a.5.5 0 00.167-.599l-.738-1.753a.5.5 0 00-.53-.3l-1.841.255a1.5 1.5 0 01-1.246-.405l-.932-.897a1.5 1.5 0 01-.46-1.08V2.846a.5.5 0 00-.315-.465l-1.52-.607a.5.5 0 00-.565.14L14.76 3.457a1.5 1.5 0 01-1.139.524h-1.11a1.5 1.5 0 01-1.161-.551l-1.265-1.549z" fill="#86A2BE"/>
</svg>
