<svg width="20.998" height="23.997" version="1.1" viewBox="0 0 5.5556 6.3492" xml:space="preserve" xmlns="http://www.w3.org/2000/svg"><g transform="translate(-91.753 -144.43)"><path d="m96.25 149.19a0.53 0.53 0 1 0 0 1.059 0.53 0.53 0 0 0 0-1.059zm-1.058 0.53c0-0.087 0.01-0.172 0.03-0.252l-1.693-1.088a1.058 1.058 0 1 1 0-1.553l1.693-1.089a1.06 1.06 0 0 1 1.028-1.31 1.058 1.058 0 1 1-0.777 1.777l-1.657 1.066a1.057 1.057 0 0 1 0 0.664l1.658 1.065a1.058 1.058 0 1 1-0.282 0.72zm0.529-4.234a0.53 0.53 0 1 1 1.058 0 0.53 0.53 0 0 1-1.058 0zm-3.44 2.117a0.53 0.53 0 1 1 1.058 0 0.53 0.53 0 0 1-1.058 0z" clip-rule="evenodd" fill="#00c5ff" fill-rule="evenodd"/></g></svg>
