<svg width="21.998" height="25.154" version="1.1" viewBox="0 0 5.8203 6.6554" xml:space="preserve" xmlns="http://www.w3.org/2000/svg"><g transform="translate(-94.143 -143.37)"><g transform="matrix(1 0 0 1 93.349 143)" clip-rule="evenodd" fill="#004160" fill-rule="evenodd"><path d="m3.44 1.225v3.464c0 0.125 0.118 0.227 0.264 0.227s0.265-0.102 0.265-0.227v-3.464l1.231 1.232a0.265 0.265 0 1 0 0.374-0.374l-1.589-1.59a0.397 0.397 0 0 0-0.561 0l-1.59 1.59a0.265 0.265 0 0 0 0.373 0.374z"/><path d="m1.058 3.593c0.146 0 0.265 0.118 0.265 0.264v2.381c0 0.147 0.118 0.265 0.265 0.265h4.232a0.265 0.265 0 0 0 0.264-0.265v-2.38a0.265 0.265 0 1 1 0.53 0v2.38a0.794 0.794 0 0 1-0.794 0.794h-4.232a0.794 0.794 0 0 1-0.794-0.794v-2.38c0-0.147 0.118-0.265 0.264-0.265z"/></g></g></svg>
