<svg width="182" height="202" version="1.1" viewBox="0 0 48.155 53.447" xml:space="preserve" xmlns="http://www.w3.org/2000/svg"><g transform="translate(-74.547 -121.1)"><g transform="matrix(.99999 0 0 .99999 74.547 121.1)"><path d="m41.132 1.67s-9.124-1.379-17.055-1.67c-7.914 0-17.055 1.67-17.055 1.67 0 7.532-7.022 7.663-7.022 7.663s1.226 19.158 4.793 28.787 19.284 15.327 19.284 15.327 15.718-5.698 19.285-15.326c3.566-9.628 4.793-28.786 4.793-28.786s-7.023-0.132-7.023-7.664z" fill="#00c5ff"/><path d="m24.077 49.117c-5.643-2.454-13.082-6.92-15.046-12.217-2.515-6.79-3.83-18.96-4.333-24.67 3.135-1.324 5.474-3.814 6.37-7.211 3.195-0.463 8.316-1.08 12.917-1.089 4.695 0.177 9.868 0.754 13.122 1.168 0.847 3.121 3.004 5.72 6.348 7.131-0.504 5.712-1.82 17.888-4.333 24.67-1.96 5.294-9.391 9.76-15.045 12.218z" fill="#135579"/><path d="m24.077 51.714-0.95-0.413c-2.935-1.277-6.376-3.091-9.372-5.314-2.94-2.182-5.735-4.964-6.956-8.26-2.647-7.143-3.975-19.645-4.473-25.288l-0.152-1.729 1.598-0.674c2.511-1.06 4.3-2.998 4.993-5.624l0.402-1.524 1.56-0.226c3.228-0.467 8.481-1.104 13.254-1.113h0.047l0.047 2e-3c4.8 0.18 10.055 0.768 13.333 1.185l1.58 0.201 0.417 1.538c0.655 2.414 2.306 4.434 4.976 5.56l1.598 0.675-0.152 1.729c-0.498 5.645-1.828 18.152-4.472 25.288-1.22 3.294-4.011 6.075-6.951 8.257-2.995 2.222-6.436 4.038-9.377 5.317z" clip-rule="evenodd" fill="#135579" fill-rule="evenodd"/></g></g></svg>
