<svg width="29" height="27" fill="none" xmlns="http://www.w3.org/2000/svg">
  <rect x="2" y="2" width="12" height="12" rx="1" fill="#00C5FF"/>
  <rect x="15" y="13" width="12" height="12" rx="1" fill="#00C5FF"/>
  <path fill-rule="evenodd" clip-rule="evenodd" d="M17.5 3H21a3 3 0 013 3v1.707l-.207-.207-1.06-1.06a.5.5 0 10-.708.707l2.121 2.121a.5.5 0 00.708 0l.01-.011 1.05-1.05 1.06-1.06a.5.5 0 10-.706-.708L25 7.707V6a4 4 0 00-4-4h-3.5a.5.5 0 000 1zM11.5 24H8a3 3 0 01-3-3v-1.707l.207.207 1.06 1.06a.5.5 0 10.708-.707l-2.121-2.121a.5.5 0 00-.708 0l-.01.011-1.05 1.05-1.061 1.06a.5.5 0 10.707.708L4 19.293V21a4 4 0 004 4h3.5a.5.5 0 000-1z" fill="#00C5FF"/>
</svg>
