<svg width="29" height="27" fill="none" xmlns="http://www.w3.org/2000/svg">
  <path fill-rule="evenodd" clip-rule="evenodd" d="M13 3H3v10h10V3zM3 2a1 1 0 00-1 1v10a1 1 0 001 1h10a1 1 0 001-1V3a1 1 0 00-1-1H3zM26 14H16v10h10V14zm-10-1a1 1 0 00-1 1v10a1 1 0 001 1h10a1 1 0 001-1V14a1 1 0 00-1-1H16zM17.5 3H21a3 3 0 013 3v1.707l-.207-.207-1.06-1.06a.5.5 0 10-.708.707l2.121 2.121a.5.5 0 00.708 0l.01-.011 1.05-1.05 1.06-1.06a.5.5 0 10-.706-.708L25 7.707V6a4 4 0 00-4-4h-3.5a.5.5 0 000 1zM11.5 24H8a3 3 0 01-3-3v-1.707l.207.207 1.06 1.06a.5.5 0 10.708-.707l-2.121-2.121a.5.5 0 00-.708 0l-.01.011-1.05 1.05-1.061 1.06a.5.5 0 10.707.708L4 19.293V21a4 4 0 004 4h3.5a.5.5 0 000-1z" fill="#68839E"/>
</svg>
