<svg xmlns="http://www.w3.org/2000/svg" viewBox="0 0 5.556 5.821" height="22" width="21">
  <defs>
    <clipPath id="a">
      <path fill="#fff" d="M0 0h22v22H0z"/>
    </clipPath>
  </defs>
  <g clip-path="url(#a)" clip-rule="evenodd" fill="#fff" fill-rule="evenodd" transform="matrix(.26458 0 0 .26458 -.132 0)">
    <path d="M6 7a1 1 0 00-1 1v10.586l-2.793-2.793a1 1 0 00-1.414 1.414l4.5 4.5a1 1 0 001.414 0l4.5-4.5a1 1 0 00-1.414-1.414L7 18.586V8a1 1 0 00-1-1zM16 15a1 1 0 01-1-1V3.414l-2.793 2.793a1 1 0 11-1.414-1.414l4.5-4.5a1 1 0 011.414 0l4.5 4.5a1 1 0 01-1.414 1.414L17 3.414V14a1 1 0 01-1 1z"/>
  </g>
</svg>
