<svg xmlns="http://www.w3.org/2000/svg" viewBox="0 0 6.35 6.35" height="24" width="24">
  <path d="M1.587 0C.711 0 0 .71 0 1.587v3.175C0 5.64.71 6.35 1.587 6.35h3.175c.877 0 1.588-.71 1.588-1.588V1.587C6.35.711 5.64 0 4.762 0zM4.2 4.75a.184.184 0 01-.171-.022c-.313-.222-.864-.626-.864-.626l-.478.45a.134.134 0 01-.125.032.135.135 0 01-.093-.088c-.117-.344-.341-1.021-.341-1.021s-.48-.152-.845-.262a.128.128 0 01-.091-.117.128.128 0 01.083-.124c.444-.164 1.238-.46 1.973-.736l1.482-.553a.124.124 0 01.123.022.12.12 0 01.04.117c-.06.28-.167.803-.278 1.338-.116.562-.235 1.138-.303 1.46a.18.18 0 01-.112.13zm-1.611-.506l-.26-.855 1.837-1.172a.044.044 0 01.057.01.043.043 0 01-.005.058L2.646 3.703z" clip-rule="evenodd" fill="#fff" fill-rule="evenodd"/>
</svg>
