<svg width="29" height="27" viewBox="0 0 29 27" fill="none" xmlns="http://www.w3.org/2000/svg">
<path fill-rule="evenodd" clip-rule="evenodd" d="M28 13.5C28 20.9558 21.9558 27 14.5 27C7.04416 27 1 20.9558 1 13.5C1 6.04416 7.04416 0 14.5 0C21.9558 0 28 6.04416 28 13.5ZM11.8536 14.1464C12.0488 14.3417 12.0488 14.6583 11.8536 14.8536L10.7071 16H19.5C19.7761 16 20 16.2239 20 16.5C20 16.7761 19.7761 17 19.5 17H10.7071L11.8536 18.1464C12.0488 18.3417 12.0488 18.6583 11.8536 18.8536C11.6583 19.0488 11.3417 19.0488 11.1464 18.8536L9.14645 16.8536C8.95118 16.6583 8.95118 16.3417 9.14645 16.1464L11.1464 14.1464C11.3417 13.9512 11.6583 13.9512 11.8536 14.1464ZM17.1464 8.85355C16.9512 8.65829 16.9512 8.34171 17.1464 8.14645C17.3417 7.95118 17.6583 7.95118 17.8536 8.14645L19.8536 10.1464C20.0488 10.3417 20.0488 10.6583 19.8536 10.8536L17.8536 12.8536C17.6583 13.0488 17.3417 13.0488 17.1464 12.8536C16.9512 12.6583 16.9512 12.3417 17.1464 12.1464L18.2929 11H9.5C9.22386 11 9 10.7761 9 10.5C9 10.2239 9.22386 10 9.5 10H18.2929L17.1464 8.85355Z" fill="#00C5FF"/>
</svg>
