<svg version="1.1" viewBox="0 0 23.001 22.335" xml:space="preserve" xmlns="http://www.w3.org/2000/svg"><g transform="translate(-236.36 -181.19)"><g transform="matrix(.95121 0 0 .94997 11.556 9.1144)"><g clip-rule="evenodd" fill="#00c5ff" fill-rule="evenodd" stroke-width="1.052"><path d="m248.98 195.03c-0.57883 0-1.048-0.47921-1.048-1.0704v-5.3519c0-0.59117 0.46921-1.0704 1.048-1.0704 0.57884 0 1.048 0.4792 1.048 1.0704v5.3519c0 0.59117-0.46921 1.0704-1.048 1.0704z"/><path d="m247.93 193.96c0-0.59116 0.46921-1.0704 1.048-1.0704h4.1922c0.57884 0 1.048 0.47921 1.048 1.0704 0 0.59117-0.46921 1.0704-1.048 1.0704h-4.1922c-0.57883 0-1.048-0.47921-1.048-1.0704z"/><path d="m237.84 190.99c0.0749 0.28557 0.36225 0.45501 0.64181 0.37848l3.5791-0.9795c0.27955-0.0764 0.44544-0.36992 0.37054-0.65539-0.0749-0.28557-0.36225-0.45501-0.64179-0.37848l-3.073 0.84099-0.82339-3.1384c-0.0749-0.28558-0.36225-0.45502-0.6418-0.37849-0.27955 0.0765-0.44544 0.37003-0.37054 0.6555z" stroke="#00c5ff" stroke-linecap="round" stroke-linejoin="round"/></g><path d="m238.46 189.65v0.72956h0.7097v-0.72956z" fill="#00c5ff" stroke="#00c5ff" stroke-width="2.104"/><path d="m238.86 190.12c0.64354-2.4529 2.12-4.5922 4.1656-6.0357 2.0456-1.4436 4.5271-2.0973 7.0012-1.8445 2.4741 0.25284 4.7796 1.3958 6.5046 3.2247s2.7572 4.2246 2.9121 6.759c0.1549 2.5344-0.57758 5.0426-2.0664 7.0764-1.489 2.0337-3.6374 3.4606-6.0615 4.0258-2.424 0.56505-4.966 0.23152-7.1715-0.94097-2.2055-1.1726-3.931-3.1077-4.8682-5.4599" fill="none" stroke="#00c5ff" stroke-width="2.104"/></g></g></svg>
