<svg xmlns="http://www.w3.org/2000/svg" viewBox="0 0 6.35 6.35" height="24" width="24">
  <path d="M1.587 0C.711 0 0 .71 0 1.587v3.175C0 5.64.71 6.35 1.587 6.35h3.175c.877 0 1.588-.71 1.588-1.588V1.587C6.35.711 5.64 0 4.762 0zM2.62 4.813c1.411 0 2.208-1.192 2.16-2.261.149-.107.278-.241.38-.394-.137.06-.283.101-.437.12a.763.763 0 00.334-.42c-.147.086-.31.15-.483.184a.76.76 0 00-1.295.693 2.157 2.157 0 01-1.566-.794.761.761 0 00.235 1.015.758.758 0 01-.344-.095.761.761 0 00.61.755.762.762 0 01-.344.013.762.762 0 00.71.527c-.32.25-.722.363-1.125.315a2.15 2.15 0 001.165.342z" clip-rule="evenodd" fill="#fff" fill-rule="evenodd"/>
</svg>
