<svg width="19.209" height="19.213" version="1.1" viewBox="0 0 5.0824 5.0834" xml:space="preserve" xmlns="http://www.w3.org/2000/svg"><g transform="translate(-106.26 -141.55)"><path d="m108.57 141.78a0.13436 0.13436 0 0 1 0.19001-0.19001l2.5401 2.5411a0.13401 0.13401 0 1 1-0.18901 0.19001zm0.59003 2.1401-2.4441 2.4471h2.2171a0.13351 0.13351 0 1 1 0 0.26702h-2.4071a0.26801 0.26801 0 0 1-0.26801-0.27002v-2.4041a0.13401 0.13401 0 0 1 0.26801 0v2.2181l2.4461-2.4471a0.13436 0.13436 0 1 1 0.19001 0.19001z" clip-rule="evenodd" fill="#b3ff85" fill-rule="evenodd"/></g></svg>
