<svg width="9.9962" height="10" version="1.1" viewBox="0 0 2.6448 2.6458" xml:space="preserve" xmlns="http://www.w3.org/2000/svg"><g transform="translate(-107.11 -143.84)"><path d="m107.19 144.75c0.046 0 0.084 0.037 0.084 0.082v1.3719l0.68396-0.68396 1e-3 -2e-3 1.5119-1.5119h-1.3709a0.082995 0.082995 0 0 1 0-0.16599h1.4879c0.091 0 0.16498 0.074 0.16498 0.16599v1.4869a0.082495 0.083501 0 0 1-0.16498 0v-1.3699l-0.68496 0.68396-1e-3 1e-3 -1.5119 1.5129h1.3709a0.081995 0.082995 0 0 1 0 0.16499h-1.4869a0.16599 0.16599 0 0 1-0.16599-0.16599v-1.4879c0-0.046 0.037-0.083 0.082-0.083z" clip-rule="evenodd" fill="#ffe24b" fill-rule="evenodd" stroke-width=".99994"/></g></svg>
