<svg width="15" height="16.001" version="1.1" viewBox="0 0 3.9688 4.2336" xml:space="preserve" xmlns="http://www.w3.org/2000/svg"><g transform="translate(-109.14 -143.44)"><g transform="matrix(.26458 0 0 .26458 109.14 143.44)" fill="none"><path d="m13.928 0h-12.855c-1.012 0-1.373 0.646-0.803 1.435l4.857 6.725a0.634 0.634 0 0 1 0.103 0.317l-6e-3 4.322a0.81 0.81 0 0 0 0.284 0.566l3.397 2.446c0.47 0.363 0.855 0.19 0.855-0.383v-6.952c0-0.096 0.047-0.239 0.104-0.317l4.865-6.725c0.57-0.789 0.21-1.434-0.801-1.434z" fill="#78aecc"/></g></g></svg>
