<svg version="1.1" viewBox="0 0 22 20.004" xml:space="preserve" xmlns="http://www.w3.org/2000/svg"><g transform="translate(-102.04 -145.85)"><g transform="matrix(1.0002 0 0 1.0002 102.04 145.85)" fill="#ffb43d" stroke-width=".26454"><path d="m1.5824 18.948h18.831c0.4026 0 0.6563-0.4328 0.4594-0.7836l-9.4157-16.843c-0.2012-0.35832-0.7175-0.35832-0.9187 0l-9.4157 16.843c-0.19695 0.3508 0.05679 0.7836 0.45934 0.7836zm0 1.0524c-1.2077 0-1.9689-1.2986-1.378-2.3508l9.4157-16.843c0.60359-1.075 2.1525-1.075 2.7561 0l9.4157 16.843c0.5908 1.0522-0.1704 2.3508-1.3781 2.3508z" clip-rule="evenodd" fill-rule="evenodd"/><path d="m12.009 6.8847-0.4862 6.5577c-0.0482 0.6497-1.0024 0.6497-1.0505 0l-0.48626-6.5577c-0.02262-0.30507 0.21906-0.56504 0.52526-0.56504h0.9724c0.3063 0 0.5479 0.25997 0.5253 0.56504z" clip-rule="evenodd" fill-rule="evenodd"/><path d="m12.052 15.791c0 0.5813-0.4717 1.0525-1.0536 1.0525s-1.0536-0.4712-1.0536-1.0525c0-0.5812 0.47166-1.0525 1.0536-1.0525s1.0536 0.4713 1.0536 1.0525z"/></g></g></svg>
