<svg width="24" height="24" version="1.1" viewBox="0 0 6.35 6.35" xml:space="preserve" xmlns="http://www.w3.org/2000/svg"><g transform="translate(-102.03 -142.61)"><path d="m103.61 142.61c-0.876 0-1.587 0.71-1.587 1.587v3.175c0 0.878 0.71 1.588 1.587 1.588h3.175c0.877 0 1.588-0.71 1.588-1.588v-3.175c0-0.876-0.71-1.587-1.588-1.587zm-0.793 3.175a2.388 2.388 0 0 1 2.381-2.381 2.388 2.388 0 0 1 2.381 2.381 2.388 2.388 0 0 1-2.381 2.381 2.388 2.388 0 0 1-2.381-2.381zm3.738-0.238h0.524c-0.071-0.572-0.38-1.072-0.88-1.357 0.19 0.357 0.332 0.833 0.356 1.357zm-1.595 0v-1.597c-0.31 0.215-0.595 0.81-0.667 1.596zm0 2.072v-1.596h-0.667c0.072 0.81 0.357 1.381 0.667 1.596zm0.476-1.596v1.597c0.31-0.215 0.595-0.81 0.667-1.596zm0-2.072v1.596h0.667c-0.072-0.81-0.357-1.381-0.667-1.596zm-1.62 1.596c0.048-0.524 0.168-1 0.358-1.357a1.829 1.829 0 0 0-0.857 1.357zm0.025 0.476h-0.524c0.071 0.572 0.38 1.072 0.88 1.357a3.25 3.25 0 0 1-0.356-1.357zm2.738 0c-0.048 0.524-0.167 1-0.357 1.357 0.476-0.285 0.786-0.785 0.881-1.357z" clip-rule="evenodd" fill="#fff" fill-rule="evenodd"/></g></svg>
