<svg xmlns="http://www.w3.org/2000/svg" viewBox="0 0 6.35 6.35" height="24" width="24">
  <path d="M1.587 0C.711 0 0 .71 0 1.587v3.175C0 5.64.71 6.35 1.587 6.35h3.175c.877 0 1.588-.71 1.588-1.588V1.587C6.35.711 5.64 0 4.762 0zM.794 3.175A2.388 2.388 0 013.175.794a2.388 2.388 0 012.381 2.381 2.388 2.388 0 01-2.381 2.381A2.388 2.388 0 01.794 3.175zm3.738-.238h.524c-.071-.572-.38-1.072-.88-1.357.19.357.332.833.356 1.357zm-1.595 0V1.34c-.31.215-.595.81-.667 1.596zm0 2.072V3.413H2.27c.072.81.357 1.381.667 1.596zm.476-1.596V5.01c.31-.215.595-.81.667-1.596zm0-2.072v1.596h.667c-.072-.81-.357-1.381-.667-1.596zm-1.62 1.596c.048-.524.168-1 .358-1.357a1.829 1.829 0 00-.857 1.357zm.025.476h-.524c.071.572.38 1.072.88 1.357a3.25 3.25 0 01-.356-1.357zm2.738 0c-.048.524-.167 1-.357 1.357.476-.285.786-.785.881-1.357z" clip-rule="evenodd" fill="#fff" fill-rule="evenodd"/>
</svg>
