<svg width="106" height="106" viewBox="0 0 106 106" fill="none" xmlns="http://www.w3.org/2000/svg">
<circle cx="53" cy="53" r="53" fill="white"/>
<path d="M53 13C30.9077 13 13 30.9077 13 53C13 75.0923 30.9077 93 53 93C75.0923 93 93 75.0923 93 53C93 30.9077 75.0923 13 53 13ZM53 19.1538C71.6615 19.1538 86.8462 34.3385 86.8462 53C86.8462 71.6615 71.6615 86.8462 53 86.8462C34.3385 86.8462 19.1538 71.6615 19.1538 53C19.1538 34.3385 34.3385 19.1538 53 19.1538Z" fill="black"/>
<path d="M46.3396 67.997L46.3428 68L73 42.2857L68.5576 38L46.3396 59.4377L37.4392 50.8511L33 55.1338L46.3365 68L46.3396 67.997Z" fill="black"/>
</svg>
