<svg width="34" height="34" viewBox="0 0 34 34" fill="none" xmlns="http://www.w3.org/2000/svg">
<circle cx="17" cy="17" r="17" fill="#191919"/>
<path d="M14.5613 23.7367C14.5613 23.4242 14.5613 23.11 14.5613 22.7974C14.5613 22.0459 14.5613 21.2928 14.5613 20.5414C14.5613 19.6353 14.5613 18.7276 14.5613 17.8215C14.5613 17.0368 14.5613 16.2537 14.5613 15.469C14.5613 15.0866 14.5663 14.7043 14.5613 14.3219C14.5613 14.3169 14.5613 14.3119 14.5613 14.3053C14.5613 14.1141 14.4782 13.9112 14.3419 13.7766C14.2122 13.6469 13.9994 13.5488 13.8132 13.5571C13.6204 13.5654 13.4192 13.6286 13.2845 13.7766C13.1499 13.9229 13.0651 14.1024 13.0651 14.3053C13.0651 14.6178 13.0651 14.932 13.0651 15.2446C13.0651 15.996 13.0651 16.7492 13.0651 17.5006C13.0651 18.4067 13.0651 19.3144 13.0651 20.2205C13.0651 21.0052 13.0651 21.7883 13.0651 22.573C13.0651 22.9553 13.0601 23.3377 13.0651 23.7201C13.0651 23.7251 13.0651 23.7301 13.0651 23.7367C13.0651 23.9279 13.1482 24.1307 13.2845 24.2654C13.4142 24.3951 13.627 24.4932 13.8132 24.4849C14.0061 24.4765 14.2072 24.4134 14.3419 24.2654C14.4766 24.1208 14.5613 23.9396 14.5613 23.7367Z" fill="white"/>
<path d="M16.5414 19.9509C16.174 20.3183 15.8066 20.6857 15.4392 21.0532C14.854 21.6384 14.2688 22.2236 13.6836 22.8088C13.5506 22.9418 13.4176 23.0748 13.2846 23.2078C13.637 23.2078 13.9895 23.2078 14.3419 23.2078C13.9745 22.8404 13.6071 22.473 13.2397 22.1055C12.6545 21.5203 12.0693 20.9351 11.4841 20.3499C11.3511 20.2169 11.2181 20.0839 11.0851 19.9509C10.9487 19.8146 10.7476 19.7315 10.5564 19.7315C10.3735 19.7315 10.154 19.8129 10.0277 19.9509C9.89635 20.0939 9.79993 20.2801 9.80824 20.4796C9.81655 20.6774 9.88471 20.8653 10.0277 21.0083C10.3951 21.3757 10.7625 21.7431 11.1299 22.1105C11.7151 22.6957 12.3004 23.2809 12.8856 23.8661C13.0186 23.9991 13.1516 24.1321 13.2846 24.2651C13.5705 24.5511 14.056 24.5511 14.3419 24.2651C14.7093 23.8977 15.0768 23.5303 15.4442 23.1629C16.0294 22.5777 16.6146 21.9925 17.1998 21.4073C17.3328 21.2743 17.4658 21.1413 17.5988 21.0083C17.7351 20.872 17.8182 20.6708 17.8182 20.4796C17.8182 20.2967 17.7368 20.0773 17.5988 19.9509C17.4558 19.8196 17.2696 19.7232 17.0701 19.7315C16.8723 19.7398 16.6861 19.8063 16.5414 19.9509Z" fill="white"/>
<path d="M20.0908 10.5562C20.0908 10.8688 20.0908 11.183 20.0908 11.4956C20.0908 12.247 20.0908 13.0001 20.0908 13.7516C20.0908 14.6577 20.0908 15.5654 20.0908 16.4715C20.0908 17.2562 20.0908 18.0392 20.0908 18.8239C20.0908 19.2063 20.0859 19.5887 20.0908 19.9711C20.0908 19.9761 20.0908 19.9811 20.0908 19.9877C20.0908 20.1789 20.174 20.3817 20.3103 20.5164C20.44 20.6461 20.6528 20.7441 20.839 20.7358C21.0318 20.7275 21.233 20.6643 21.3677 20.5164C21.5023 20.3701 21.5871 20.1905 21.5871 19.9877C21.5871 19.6751 21.5871 19.3609 21.5871 19.0484C21.5871 18.2969 21.5871 17.5438 21.5871 16.7923C21.5871 15.8863 21.5871 14.9785 21.5871 14.0725C21.5871 13.2878 21.5871 12.5047 21.5871 11.72C21.5871 11.3376 21.5921 10.9552 21.5871 10.5729C21.5871 10.5679 21.5871 10.5629 21.5871 10.5562C21.5871 10.365 21.504 10.1622 21.3677 10.0276C21.238 9.89788 21.0252 9.79979 20.839 9.80811C20.6461 9.81642 20.445 9.87959 20.3103 10.0276C20.1756 10.1722 20.0908 10.3534 20.0908 10.5562Z" fill="white"/>
<path d="M24.6263 13.2845C24.2588 12.917 23.8914 12.5496 23.524 12.1822C22.9388 11.597 22.3536 11.0118 21.7684 10.4266C21.6354 10.2936 21.5024 10.1606 21.3694 10.0276C21.0834 9.74163 20.598 9.74163 20.312 10.0276C19.9446 10.395 19.5772 10.7624 19.2098 11.1298C18.6246 11.715 18.0394 12.3002 17.4542 12.8855C17.3211 13.0185 17.1881 13.1515 17.0551 13.2845C16.9188 13.4208 16.8357 13.6219 16.8357 13.8131C16.8357 13.996 16.9172 14.2155 17.0551 14.3418C17.1981 14.4732 17.3843 14.5696 17.5838 14.5613C17.7817 14.553 17.9695 14.4848 18.1125 14.3418C18.4799 13.9744 18.8473 13.607 19.2148 13.2396C19.8 12.6544 20.3852 12.0692 20.9704 11.4839C21.1034 11.3509 21.2364 11.2179 21.3694 11.0849C21.0169 11.0849 20.6645 11.0849 20.312 11.0849C20.6794 11.4524 21.0469 11.8198 21.4143 12.1872C21.9995 12.7724 22.5847 13.3576 23.1699 13.9428C23.3029 14.0758 23.4359 14.2088 23.5689 14.3418C23.7052 14.4781 23.9064 14.5613 24.0976 14.5613C24.2804 14.5613 24.4999 14.4798 24.6263 14.3418C24.7576 14.1988 24.854 14.0126 24.8457 13.8131C24.8357 13.6153 24.7692 13.4274 24.6263 13.2845Z" fill="white"/>
</svg>
