<svg width="24" height="24" viewBox="0 0 24 24" fill="none" xmlns="http://www.w3.org/2000/svg">
<path d="M23.5 12C23.5 18.3513 18.3513 23.5 12 23.5C5.64873 23.5 0.5 18.3513 0.5 12C0.5 5.64873 5.64873 0.5 12 0.5C18.3513 0.5 23.5 5.64873 23.5 12Z" stroke="#D04BFF" stroke-linecap="round" stroke-linejoin="round"/>
<path d="M12.7119 14.1973H11.4404C11.445 13.7598 11.4837 13.402 11.5566 13.124C11.6341 12.8415 11.7594 12.584 11.9326 12.3516C12.1058 12.1191 12.3359 11.8548 12.623 11.5586C12.8327 11.3444 13.0241 11.1439 13.1973 10.957C13.375 10.7656 13.5186 10.5605 13.6279 10.3418C13.7373 10.1185 13.792 9.85189 13.792 9.54199C13.792 9.22754 13.735 8.95638 13.6211 8.72852C13.5117 8.50065 13.3477 8.3252 13.1289 8.20215C12.9147 8.0791 12.6481 8.01758 12.3291 8.01758C12.0648 8.01758 11.8141 8.06543 11.5771 8.16113C11.3402 8.25684 11.1488 8.40495 11.0029 8.60547C10.8571 8.80143 10.7819 9.05892 10.7773 9.37793H9.5127C9.52181 8.86296 9.64941 8.4209 9.89551 8.05176C10.1462 7.68262 10.4834 7.40007 10.9072 7.2041C11.3311 7.00814 11.805 6.91016 12.3291 6.91016C12.9079 6.91016 13.4001 7.01497 13.8057 7.22461C14.2158 7.43424 14.528 7.73503 14.7422 8.12695C14.9564 8.51432 15.0635 8.97461 15.0635 9.50781C15.0635 9.91797 14.9792 10.2962 14.8105 10.6426C14.6465 10.9844 14.4346 11.3057 14.1748 11.6064C13.915 11.9072 13.6393 12.1943 13.3477 12.4678C13.097 12.7002 12.9284 12.9622 12.8418 13.2539C12.7552 13.5456 12.7119 13.86 12.7119 14.1973ZM11.3857 16.3643C11.3857 16.1592 11.4495 15.986 11.5771 15.8447C11.7048 15.7035 11.8893 15.6328 12.1309 15.6328C12.377 15.6328 12.5638 15.7035 12.6914 15.8447C12.819 15.986 12.8828 16.1592 12.8828 16.3643C12.8828 16.5602 12.819 16.7288 12.6914 16.8701C12.5638 17.0114 12.377 17.082 12.1309 17.082C11.8893 17.082 11.7048 17.0114 11.5771 16.8701C11.4495 16.7288 11.3857 16.5602 11.3857 16.3643Z" fill="#D04BFF"/>
</svg>
