<svg width="639.98" height="479.98" version="1.1" viewBox="0 0 169.33 127" xml:space="preserve" xmlns="http://www.w3.org/2000/svg" xmlns:xlink="http://www.w3.org/1999/xlink"><g transform="translate(-2.7502 -58.464)"><g transform="matrix(.26457 0 0 .26457 2.7502 58.464)"><path d="m0 320h640v160h-640z"/><path d="m0 160h640v160h-640z" fill="#fff"/><path d="m0 0h640v160h-640z" fill="#ce1126"/><g transform="matrix(.8 0 0 .8 -40 0)" fill="#fff" stroke="#c09300"><path d="m450.8 302.4 68.5 63.6-4.9-115.5c-0.7-17.5-15.9-13.5-27-7.2-11.1 7.2-24 7.2-37.4 2.5-13.5 4.7-26.3 4.7-37.4-2.5-11-6.3-26.3-10.3-27 7.2l-4.9 115.5z" stroke-linejoin="round" stroke-width="1.3"/><path id="a" d="m393.5 246.5-4.8 112.3-8 7.2 4.9-115.5a24 24 0 0 1 7.9-4zm9.6 8-4 94-8 8.2 4.8-108.5c1.6 1.6 6.3 5.5 7.2 6.3zm8.7 7.2-3.1 78.4-6.5 6.3 4-89.4c1.6 1.5 4.8 3.8 5.6 4.7zm9.5 4-3.1 66.8-6.3 5.1 3.1-74.3c1.6 0.7 4.7 2.4 6.3 2.4zm8.8 0-2.3 55.7-6.5 6.3 2.5-61.3c1.5 0 5.6 0 6.3-0.7z" fill="#c09300" stroke="none"/><use transform="matrix(-1,0,0,1,900,0)" width="100%" height="100%" xlink:href="#a"/><path d="m453.2 315 9.6 43.8-3.2 3.2-3.3-2.5-5.4-39 2.3 39-3.2 4-3.1-4 2.3-39-5.5 39-3.3 2.5-3.2-3.2 9.6-43.7h6.4z" fill="#c09300" stroke-width="1.1"/><g id="b" fill="none" stroke-linejoin="round" stroke-width="1.3"><path d="m428.5 295.8-19.1 67.7 26.3 4 11.1-50.9z" fill="#fff" stroke-width="1.2"/><path d="m422.2 319 2.3 5.5 12.4-11.8"/><path d="m430.8 305 2.6 24.3 7.9-10.4m-3.2 4 4.3 15m1.7-5.5-8.7 13.2m2.7 13.2-2.8-13.2-2.4-13.4-5.9 7.9-2.5-9.1-8.2 8.4 4.1 15.2 5.8-9.4 3.1 9.6 6-9.2"/><path d="m415 362 5.3-7.5 3.4 11.5 4.8-8 3.1 9.6"/></g><use transform="matrix(-1,0,0,1,900,0)" width="100%" height="100%" xlink:href="#b"/><g stroke-linecap="round" stroke-linejoin="round" stroke-width="1.3"><path d="m450 393.8c20 0 39-1.6 50.2-4.7 4.7-0.9 4.7-3.3 4.7-6.5 4.8-1.6 2.4-7.2 5.7-7.2-3.4 1-4-5.5-8-4.7 0-5.6-5.7-6.3-10.4-4.7-9.5 3.1-26.3 3.9-42.2 3.9-16-0.8-32.6-0.8-42.2-4-4.7-1.5-10.3-0.8-10.3 4.8-4-0.8-4.7 5.6-8 4.7 3.3 0 0.8 5.7 5.6 7.2 0 3.2 0 5.6 4.8 6.5 11 3.1 30.2 4.7 50.1 4.7z" stroke-width="2.4"/><path d="m422.9 363.5c6.4 0.9 13.6 1.6 19.2 0.9 3.2 0 5.5 5.5-0.9 6.3-5.5 0.7-14.3 0-19-0.8a231 231 0 0 1-18.4-4c-5.6-2.4-1.6-7 1.6-6.4a105.3 105.3 0 0 0 17.5 4zm54.2 0c-6.4 0.9-13.6 1.6-19 0.9-3.4 0-5.7 5.5 0.7 6.3 5.6 0.7 14.3 0 19-0.8 4-0.8 12.8-2.3 18.4-4 5.6-2.4 1.6-7-1.6-6.4a105.2 105.2 0 0 1-17.5 4z"/><path d="m403 360.4c-4.8-0.9-7 4.7-5.5 7.9 0.7-1.6 4-1.6 4.7-3.2 0.9-2.4-0.7-2.4 0.9-4.7zm19.2 14.7c0-3.2 3.1-2.8 3.1-6 0-1.5-0.8-4-2.4-4a3.4 3.4 0 0 0-3.2 3.2c-0.7 3.1 2.5 3.6 2.5 6.8zm22.7-9.1c4.7 0 4.2 6.3 2 9.5 0-2.3-4-3.2-4-4.8 0-2.4 3.6-2.4 2-4.7zm52-5.6c4.9-0.9 7.2 4.7 5.6 7.9-0.7-1.6-4-1.6-4.7-3.2-0.9-2.4 0.7-2.4-0.9-4.7zm-18.9 14.6c0-3.2-3.2-2.8-3.2-6 0-1.5 0.8-4 2.4-4a3.4 3.4 0 0 1 3.2 3.2c0.7 3.1-2.5 3.6-2.5 6.8zm-23-9c-4.7 0-4.2 6.3-2 9.5 0-2.3 4-3.2 4-4.8 0-2.4-3.6-2.4-2-4.7z"/><path d="m404.7 362c1.6 0 4 0.7 4.7 1.6zm7.9 2.4c0.8 0 4 0.7 5.5 1.6zm28.6 3.2c-1.5 0-4.7 0-5.5 0.7l5.5-0.8zm-8.7 0c-0.9-0.9-4-0.9-5.6 0zm62.8-5.6a8 8 0 0 0-4.7 1.6zm-7.8 2.4c-1 0-4 0.7-5.6 1.6zm-28.7 3.2c1.5 0 4.7 0 5.6 0.7l-5.6-0.8zm8.7 0c0.9-0.9 4-0.9 5.6 0z" stroke-width=".9"/><g fill="#c09300" stroke="none"><path d="m403.3 374.6c-0.5-0.1-0.8-0.6-0.6-1 0.1-0.7 0.6-1 1-0.8 0.4 0 0.9 0.6 0.9 0.8l-0.4 0.7-0.2 0.1c0 0.2-0.4 0.2-0.7 0.2zm55 3.9c-0.2 0-0.6-0.5-0.6-0.7 0-0.4 0.6-1 1-1l0.8 0.4c0.3 0.3 0.3 0.9-0.1 1.2-0.2 0.2-0.8 0.2-1.1 0zm0.3 2.5c-0.4-0.2-0.5-0.4-0.6-0.8 0-0.5 0-0.6 0.5-0.9l0.4-0.2 0.4 0.2c0.4 0.2 0.7 0.4 0.7 0.8 0 0.3-0.3 0.6-0.7 0.8-0.3 0.2-0.4 0.2-0.7 0z"/><path d="m407.8 370c-0.4 0-0.9 0.4-1.2 0.6-0.6 0.1-1.4 0.5-2 0-0.6-0.1-1.4 0-1.5 0.8 0.1 0.7 1 1 1.6 0.6 0.4-0.5 1.5-0.9 1.7 0-0.5 0.8-0.4 1.7-0.8 2.4 0 0.5-0.3 0.9-0.5 1.3-0.5 0-1 0-1.4 0.3a2 2 0 0 0-1.6 0.8c-0.4 0.6-0.8 1.2-0.9 2 0.1 0.6 1 0.8 1.6 0.9l2 0.6 3.2 0.9c1.6 0.5 3.2 0.7 4.8 1.1l0.5 0.1c0.7 0.2 1-0.5 1-1l1-3.6c0.2-0.5 0.5-1.5-0.4-1.3-0.5 0.3-1 0.8-1.6 0.8-0.9 0-0.4 1 0 1.3 0 0.6-0.2 1.3-0.5 1.8-0.6 0.3-1.2 0-1.8-0.2-0.5 0-1.7-0.3-1.2-1l0.5-1.8c0.3-0.6 0.3-1.3 0.5-2-0.4-0.7-1 0.3-1.5 0.4-0.4 0.2-1.6 0.3-1 1 0.6 0.4 0.2 1.1 0 1.7 0 0.7-0.8 1-1.4 0.7-0.6 0-1.5-0.5-1-1.1l0.5-1.8 0.7-2c0-0.7 0.3-1.2 0.6-1.8 0-0.7 0.5-1.3 0.5-2 0-0.3-0.2-0.4-0.4-0.4zm-3.7 7.3a0.3 0.3 0 0 1 0.3 0c0.2 0.2 0.2 0.4 0 0.6l-0.3 0.2c-0.5 0-0.6-0.1-0.6-0.3 0-0.1 0-0.2 0.3-0.3a1.4 1.4 0 0 1 0.4-0.2zm-1 5c-0.5-0.4-0.4-0.7 0.3-1.3 0.4-0.2 0.5-0.2 0.9 0.1 0.6 0.5 0.6 0.8 0 1.3-0.2 0.2-0.3 0.2-0.5 0.2-0.3 0-0.4 0-0.7-0.2zm3 1a0.9 0.9 0 0 1-0.6-1.1c0.2-0.4 0.3-0.5 0.9-0.5 0.7 0 0.8 0.1 0.9 0.7 0 0.4 0 0.5-0.3 0.7a1 1 0 0 1-0.8 0.2zm89.2 0c-0.2-0.1-0.3-0.2-0.3-0.5 0-0.4 0.2-0.7 0.8-0.9 0.6-0.3 1-0.3 1.2 0.2 0.3 0.6 0.3 0.8-0.1 1.2-0.2 0.3-0.3 0.3-0.8 0.3s-0.6 0-0.8-0.2zm-85 1.2c-0.4 0-0.6-0.4-0.6-0.8 0-0.3 0-0.4 0.2-0.6l0.6-0.2 0.6 0.1c0.5 0.4 0.6 0.8 0.3 1.2s-0.6 0.4-1.2 0.3zm21.8 1-0.2-0.3c0-0.6 0-1.1 0.2-1.7 0.1-0.5 0-1 0.2-1.5l0.4-2.8c0-0.5 0-1 0.2-1.4 0.1-0.8 0-1.5 0.2-2.2 0-0.3 0.3-1 0.6-0.6 0.4 0.6 0.9 1 1.4 1.5 0.4 0.3 0 0.7-0.3 0.8-0.4 0.1-0.5 0.6-0.5 1l-0.2 1.2c0 0.7 0 1.3-0.2 2l-0.1 1.8-0.2 1.2c0 0.4 0 0.9-0.4 1.1-0.3 0.2-0.8 0.2-1-0.1zm29.7-9.8-1.3 1.2c-0.6 0.5 0.5 0.7 0.6 1.1 0.2 0.6 0.2 1.2 0.2 1.8 0.2 0.6 0.3 1.1 0.2 1.7 0 0.7-0.8 0.5-1.2 0.9-0.5 0.2-0.7 0.7-1 1a4.2 4.2 0 0 0-0.4 1.6c0 0.5-0.3 1 0 1.4l0.1 0.2h0.5l1.5-0.1c1.2-0.2 2.5-0.2 3.7-0.3l2.2-0.2c0.6 0.1 0.9-0.5 0.9-1-0.4-0.7-0.1-1.4-0.4-2-0.2-0.8-0.1-1.5-0.2-2.2 0-0.6-0.7-0.8-1-0.4-0.4 0.4-1 0.5-1.2 0.9-0.3 0.6 0.6 0.6 0.8 1l0.1 1.5c0.1 0.6-0.5 0.6-1 0.7-0.5 0.2-1.2 0.3-1.5-0.3-0.2-0.5-0.2-1-0.2-1.5 0-1-0.3-1.8-0.3-2.7 0-1-0.3-2.1-0.3-3.2 0-0.5-0.1-1.2-0.8-1.1zm-0.6 8.2h0.3v0.8l-0.3 0.1a3.3 3.3 0 0 1-0.4 0.1 2.5 2.5 0 0 1-0.2 0c-0.2-0.2-0.2-0.5 0.1-0.8zm-30-9.2c-0.3 0-0.8 0.7-1.2 0.6-0.9 0.1-0.8 1-0.1 1.3v0.8c0.1 0.8-0.4 1.5-0.3 2.3 0 0.8-0.3 1.7-0.3 2.6-0.3 0.9-0.3 1.8-0.4 2.7-0.1 0.8-0.7 0.5-1.2 0.3v-1c0.1-0.9-0.5-1.1-1.2-1.2-0.7 0-1-0.5-0.8-1.1 0.3-0.4 1-0.3 1.5-0.3 1 0.2 0.9-1.1 0.4-1.6-0.4-0.6-1.2-1-1.4-1.6 0-0.8-0.5-1.7-1.2-2.1-1.1-0.1-2 0.8-2.3 1.8-0.5 0-1 0.2-1.4 0.4-0.7 0.2-1.7 1.4-0.7 1.9 0.5 0.1 2.2 0.5 1.4 1.2-0.4 0.8-1.2 0.8-1.9 0.6-0.7 0-1.5-0.4-1.5-1.2-0.1-0.8-0.1-1.6-0.4-2.3-0.2-0.8-1.1-0.6-1.2 0.2-0.7 0.5-0.6 1.4-0.1 2 0.3 0.7 0 1.6-0.3 2.2-0.2 1-1.2 1-1.9 1.2-0.3 0.2-1.6 0-1.1 0.7a4 4 0 0 0 2.4 0.3c0.8 0 1.5-0.7 2-1.4 0.5-0.5 1.4-0.2 2.2-0.2 0.7 0 1.5 0.5 2.3 0.1 0.2-0.5 1.2-1.5 1.5-0.5 0 0.9 0.7 1.3 1.5 1.2 0.9 0 0.5 0.6 0.5 1.2 0 0.9 0.7 1.4 1.5 1.8h0.8c0.7-0.3 1.5-0.6 1.8-1.4 0.3-0.7 0.3-1.5 0.5-2.2 0.2-1.1 0.4-2.3 0.4-3.4 0.3-1 0.2-2.1 0.4-3.2l0.3-2.3c0-0.5-0.2-0.5-0.5-0.4zm-6.7 4.1c0.1 0 0.2 0.2 0.2 0.5 0 0.4 0.2 0.7 0.5 0.8v0.3l-0.8 0.2c-0.5 0-0.9-0.2-1.2-0.5l-0.2-0.2 0.3-0.2 0.5-0.5c0.3-0.3 0.5-0.4 0.7-0.4zm66-7.9a8.4 8.4 0 0 0-1.7 0.3c-1 0-1.5 1-0.5 1.6 0.6 1.5 1.5-0.4 2.5-0.2 1.4 0.2 1.5 1.8 1.8 3 0 1.1 0.4 2.2 0.7 3.3 1 1.1-0.7 1.8-1.4 1-0.6-0.7-2-1.5-2.7-0.6-0.9 0.4-1 1.6-1.7 2-1.2 0.3-1.3-1.2-2-1.8-0.6-0.9-1.7-1-2.6-1.2-0.4-0.9-0.2-2.4-1-3-0.8 0.3-2.2 1.7-1 2.4 1 1-0.5 1.4-1 2-0.8 0.9-1 2-1 3-1.3 0.7-1.5-0.8-1.7-1.7 0-1.1-1-0.8-1.7-0.4-1 0.4-1.4 1.3-2 2v2c0.2 0.9 1.2 0.5 1.8 0.4 1-0.4 1.4 0.7 0.6 1.3-0.6 0.6-2.2 0.3-2 1.4h1.6c1-0.3 2.2-1.1 2.3-2.3 0.2-1 1.7-0.9 2.5-1.1 1-0.3 2.3-0.4 2.6 1 0.7 0.7 2.2 1.5 3 0.5a2.4 2.4 0 0 0 1.1-2.3c-0.1-0.8 1.3-0.8 1.7-0.3 0.5 0.8 2.1 0.6 2.9 0 0.8-0.5 1-1.6 2.2-1.6l5.4-1.5c1.4-0.3-0.2-1.2-0.6-1.8-1-0.5-2 1.7-3.2 0.6-1-0.7-0.9-2-1.2-3.1-0.3-1.4-0.2-3-1.2-4-0.6-0.7-1.6-0.9-2.5-0.9zm-6.8 9.5c0.1 0 0.3 0 0.5 0.2 0.4 0.2 0.7 0.6 0.7 1 0 0.2 0 0.2-0.3 0.3l-0.5 0.2c-0.2 0-0.7-0.3-0.7-0.5v-0.4c-0.2-0.4-0.2-0.4 0-0.6zm6.5 0.4c0.4 0 0.6 0 0.8 0.3 0.1 0.4 0 0.6-0.4 0.8l-0.5 0.2-0.4-0.3c-0.2-0.1-0.3-0.2-0.3-0.4 0-0.3 0.4-0.6 0.8-0.7zm-9 0c0.2 0 0.3 0 0.4 0.2 0.2 0.2 0.3 0.3 0.3 0.6v0.6c0 0.3 0 0.2-0.6 0.2s-0.7 0-0.7-0.6c0-0.4 0-0.5 0.3-0.7 0.1-0.2 0.3-0.2 0.4-0.2zm-5.4 1.5a0.6 0.6 0 0 1 0.4 0.4c0 0.3 0 0.5-0.2 0.6-0.3 0.1-0.8 0.2-1 0a0.6 0.6 0 0 1 0-0.1c-0.2-0.1-0.2-0.2 0-0.3v-0.1l0.2-0.3a0.5 0.5 0 0 1 0.6-0.2zm9.2 1.2 0.5 0.1v0.6h-1.2l-0.1-0.2c0-0.2 0-0.3 0.2-0.4zm-17.1 4.8c-0.1 0-0.3-0.1-0.1-0.2 0.1-0.3 0.5-0.4 0.8-0.6a3.4 3.4 0 0 0 1.4-1c0-0.4 0.4-0.6 0.4-1l-0.1-1.4a1.8 1.8 0 0 0-0.8-1c-0.3-0.1-0.7-0.2-0.8-0.6 0-0.3 0.3-0.6 0.4-0.9l0.6-1.2c0.3-0.3 0.7 0 0.8 0.2l0.5 1c0.3 0.3 0.5 0.6 0.6 1 0.2 0.4 0.4 0.7 0.4 1l0.2 1.3c0 0.5 0 1.1-0.2 1.6l-0.6 0.8c-0.3 0.3-0.6 0.6-1 0.7-0.3 0.1-0.5 0.4-0.9 0.4h-1.5zm-6.9 0.4c-0.2-0.2-0.3-0.3-0.3-0.6s0-0.3 0.3-0.6c0.4-0.4 0.6-0.4 1.4 0 0.7 0.4 1 0.4 1 0.1 0.1-0.2 0.5-0.5 1-0.5a0.8 0.8 0 0 1 0.5 0.2c0.2 0.2 0.3 0.3 0.3 0.7 0 0.5 0 0.5-0.3 0.8-0.3 0.2-0.3 0.2-0.7 0.2a0.9 0.9 0 0 1-0.8-0.6c0-0.2 0-0.3-0.2-0.1l-0.2 0.1c-0.2 0-0.6 0.3-0.8 0.5l-0.5 0.1c-0.4 0-0.4 0-0.7-0.3zm-19.8-8.9c-0.7 0-1.4 0.6-1.5 1.3 0.2 0.7 0.8 1.5 0.4 2.2 0.3 1-0.8 1.4-1.5 0.9-0.4-1-0.6-2-1.3-3-0.8-0.2-1.1 1.1-1.7 1.6 0.3 0.7 1.1 1.4 1.2 2.3 0.2 1-0.4 2-1.1 2.4-0.7 0.7-1.7 0.5-2.5 0.6-1 0.6 0.7 0.8 1.2 0.8 1 0.1 2.1 0 3-0.8 0.7-0.3 0.6-1.7 1.5-1.8l4.8 0.3c0.8 0.2 2.1-0.1 2.7 0.5 0 1 1 1.8 1.9 2.2 0.5 0.2 1-0.5 1.5-0.6 1-0.3 0.7-1.5 1.3-2h5c0.2 0 0.3-0.5 0.6-0.7l-0.2-1.9c-0.3-0.8 0-1.8-0.5-2.5-0.9-0.2-1.6 0.5-2.4 0.6-1 0.4-1.7 1.3-1.8 2.3-0.5 0.9-1.4-0.2-1-1l-0.1-1c-0.5-0.5-1.4-0.3-2.1-0.4l-3-0.2c-1 0-1.9 0.1-2.7-0.1-1 0-1-1-1-1.8a1 1 0 0 0-0.7-0.2zm2 3.7 1 0.1h1.3c1 0.2 2 0.2 3 0.2 0.2 0 0.4 0.2 0.6 0.4v2c0 0.3 0 0.7-0.2 0.8a0.7 0.7 0 0 1-0.2 0.2 1 1 0 0 1-0.7-0.5v-1.4a1.3 1.3 0 0 0-0.7-0.3l-2.6-0.1-2-0.1c-0.3-0.1-0.7 0-0.9-0.4-0.2-0.2 0.1-0.6 0.4-0.7a2.3 2.3 0 0 1 1-0.2zm11.3 0.3c0.1 0 0.2 0 0.2 0.3l0.2 0.5c0 0.1 0 0.2-0.2 0.2-0.5 0.2-1 0.2-1.2 0 0-0.1 0-0.5 0.2-0.6z"/></g></g><path d="m450 327.2c32.6-25 29.8-61.8 29.8-61.8l-2.5 0.2c-6.9 0-23.2-4-27-8.9-4 4.5-20.8 9-27.6 9l-2.5-0.3s-2.9 36.7 29.8 61.8z" stroke-width="1.1"/><path d="m477.2 268h-0.8c-6.2 0-20.6-3.1-26.2-7.9-5.8 4.4-20.5 8-26.6 8a4.7 4.7 0 0 1-0.8-0.1 73.1 73.1 0 0 0 2.6 18.7 71 71 0 0 0 24.6 37.1 71.2 71.2 0 0 0 24.6-37.2 73.1 73.1 0 0 0 2.6-18.6z" stroke-width=".9"/><path d="m439.4 265a62.2 62.2 0 0 1-16.6 3l0.1 4.1a72.8 72.8 0 0 0 2.5 14.5 71 71 0 0 0 14 26.8zm20.6 0v49.2a71.1 71.1 0 0 0 14.6-27.6 73 73 0 0 0 2.5-14.5l0.1-4h-0.8c-3.8 0-10.4-1.2-16.4-3.2z" fill="#c09300" stroke="none"/><g stroke-width="1.3"><path d="m462.3 253c0.7 0.1-0.9-3.5-0.9-3.5 1.8 1.8 8.4 2.3 8.4 2.3-4-1.8-8-15.1-7.5-25.8 0.4-10.6-1.5-14.8-3-16.4-2-2-8.5-3.8-12.7-4-2.5-0.1-2 1.8-2 1.8-4.5-1.1-9-1.6-11-0.2-1.8 1.2-2.2 7.5-0.8 6.4 3.3-2.7 6.2-0.2 8.2 2.7 1.8 2.5 1.7 9.7-0.9 18.2a60 60 0 0 1-10 17.7c4 0 9.6-3.5 9.6-3.5l-1.3 5.5c4.2-2 7.5-5.1 7.5-5.1l4 4.2c1.3-1.8 4-4.2 4-4.2s3.3 3.5 8.4 4z" stroke-width="1.2"/><path d="m446.1 227.6s-2.2 16.4-6.4 21m10-21.5s-1 16.7-3.8 22m6.9-21.3s0 18.2 1 21.3m3-20.4s0.8 15.3 4.6 20.8" fill="none"/><path d="m442 219.6a8 8 0 0 0-1-3.3c-2-3-4.9-5.4-8.2-2.7 0 0 1.1-3.5 3.6-3.6 1.8-0.1 6.1 1.4 9.9 7.8 0 0-2.8-0.6-3.5 0-1.2 1-0.7 1.8-0.7 1.8z" fill="#c09300" stroke-width=".3"/><path d="m432.4 209.3c0.3-1 0.7-1.8 1.3-2.1 2-1.4 6.4-1 10.9 0.2 0 0-0.4-1.9 2-1.8 4.2 0.2 10.6 2 12.6 4a7.9 7.9 0 0 1 1.5 2.4c-1-1.4-3.8-1.3-4.5-1.2-1 0.1-1.7 0-3.1 0.4-0.7 0.2-1.7 0.4-2.3 0.8-0.4 0.4-0.8 1.6-1.4 1.6-1 0-1-0.2-1.3-0.5-0.3-0.5-0.5-1.1-0.9-1-1 0.1-2.8-0.7-5-2.5-2.3-1.8-3.2-2.2-6-2-3 0.2-3.8 1.9-3.8 1.9z" fill="#c09300" stroke-width=".3"/><circle cx="448.8" cy="210.7" r="1.2" stroke="none"/></g></g></g></g></svg>
