<svg width="1024" height="1024" version="1.1" viewBox="0 0 270.93 270.93" xml:space="preserve" xmlns="http://www.w3.org/2000/svg"><defs><linearGradient id="a" x2="220.37" y2="1138.5" gradientUnits="userSpaceOnUse"><stop stop-color="#005474" offset="0"/><stop stop-color="#063752" offset="1"/></linearGradient></defs><g transform="translate(27.887 6.4871)"><g transform="matrix(.26458 0 0 .26458 -27.887 -6.4871)"><rect width="1024" height="1024" fill="#fff"/><path d="m0 0h1024v1024h-1024z" fill="url(#a)"/><path d="m829.07 728.87-32.33-29.356c-28.126 44.909-65.934 82.87-110.62 111.07-44.687 28.198-95.107 45.91-147.52 51.823-52.415 5.914-105.48-0.124-155.26-17.665-49.78-17.54-94.999-46.134-132.3-83.661-27.623-27.691-50.433-59.851-67.48-95.141 108.23 128.74 386.89 101.51 557.32-16.976l-49.196-44.209c139.15-56.946 170.8-135.46 171.48-136.88 18.693 88.359 6.66 180.5-34.085 261z" clip-rule="evenodd" fill="#94e7ff" fill-rule="evenodd"/><path d="m148.06 511c-0.156-85.111 30.301-167.4 85.743-231.67l0.353-0.356c1.76-2.122 3.868-4.6 5.622-6.722 3.514-3.892 7.028-7.78 10.895-11.673 32.602-32.879 71.327-58.964 113.96-76.762s88.329-26.959 134.48-26.959 91.851 9.161 134.48 26.959c42.63 17.798 81.354 43.883 113.96 76.762 157.76 158.8-45.328 363.59-294.82 355.81v69.326l-214.71-154.94 214.7-154.89v70.029c70.98-10.966 196.43-43.151 159.53-132.99-49.898-124.15-405.16-95.493-464.19 198.07z" clip-rule="evenodd" fill="#00c5ff" fill-rule="evenodd"/></g></g></svg>
