<?xml version="1.0" encoding="UTF-8" standalone="no"?>
<svg
   xmlns:dc="http://purl.org/dc/elements/1.1/"
   xmlns:cc="http://creativecommons.org/ns#"
   xmlns:rdf="http://www.w3.org/1999/02/22-rdf-syntax-ns#"
   xmlns:svg="http://www.w3.org/2000/svg"
   xmlns="http://www.w3.org/2000/svg"
   xmlns:sodipodi="http://sodipodi.sourceforge.net/DTD/sodipodi-0.dtd"
   xmlns:inkscape="http://www.inkscape.org/namespaces/inkscape"
   width="128"
   height="128"
   viewBox="0 0 128 128"
   fill="none"
   version="1.1"
   id="svg17"
   sodipodi:docname="icon_linux.svg"
   inkscape:version="1.0.2 (e86c870879, 2021-01-15)">
  <metadata
     id="metadata21">
    <rdf:RDF>
      <cc:Work
         rdf:about="">
        <dc:format>image/svg+xml</dc:format>
        <dc:type
           rdf:resource="http://purl.org/dc/dcmitype/StillImage" />
        <dc:title></dc:title>
      </cc:Work>
    </rdf:RDF>
  </metadata>
  <sodipodi:namedview
     pagecolor="#ffffff"
     bordercolor="#666666"
     borderopacity="1"
     objecttolerance="10"
     gridtolerance="10"
     guidetolerance="10"
     inkscape:pageopacity="0"
     inkscape:pageshadow="2"
     inkscape:window-width="2556"
     inkscape:window-height="1383"
     id="namedview19"
     showgrid="false"
     inkscape:zoom="4.8945048"
     inkscape:cx="39.606047"
     inkscape:cy="34.344666"
     inkscape:window-x="0"
     inkscape:window-y="0"
     inkscape:window-maximized="1"
     inkscape:current-layer="svg17"
     inkscape:document-rotation="0" />
  <rect
     width="128"
     height="128"
     fill="#ffffff"
     id="rect2"
     x="0"
     y="0"
     style="stroke-width:0.125" />
  <path
     d="M 0,0 H 127.99999 V 128 H 0 Z"
     fill="url(#paint0_linear)"
     id="path4"
     style="fill:url(#paint0_linear);stroke-width:0.125" />
  <path
     fill-rule="evenodd"
     clip-rule="evenodd"
     d="m 103.63424,91.109251 -4.041245,-3.669502 c -3.51575,5.613627 -8.24175,10.358752 -13.827502,13.883501 -5.585872,3.52475 -11.88837,5.73875 -18.440122,6.47788 -6.551872,0.73925 -13.184875,-0.0155 -19.407499,-2.20813 C 41.695373,103.4005 36.042997,99.826251 31.379749,95.135376 27.926872,91.674 25.075624,87.654 22.944749,83.242749 36.473373,99.335376 71.305747,95.931125 92.609245,81.120752 L 86.459744,75.594624 C 103.8535,68.476373 107.80937,58.661749 107.89487,58.484875 c 2.33662,11.044874 0.8325,22.562501 -4.26063,32.624376 z"
     fill="#94e7ff"
     id="path6"
     style="stroke-width:0.125" />
  <path
     fill-rule="evenodd"
     clip-rule="evenodd"
     d="M 18.507249,63.875125 C 18.487739,53.236251 22.294874,42.949752 29.225125,34.916749 l 0.04413,-0.04451 c 0.22,-0.265254 0.483501,-0.575003 0.702749,-0.840251 0.439251,-0.486501 0.878501,-0.972504 1.361877,-1.459128 4.075248,-4.109875 8.915872,-7.370498 14.244622,-9.595248 5.328752,-2.224751 11.041125,-3.369876 16.810125,-3.369876 5.769,0 11.481373,1.145125 16.810248,3.369876 5.328749,2.22475 10.169251,5.485373 14.244627,9.595248 19.720627,19.849376 -5.666,45.449125 -36.852624,44.476627 v 8.665762 L 29.752136,66.348381 56.58976,46.986755 v 8.753626 C 65.462259,54.369629 81.143381,50.346507 76.531381,39.116755 70.294123,23.598499 25.886499,27.180128 18.507249,63.875125 Z"
     fill="#00c5ff"
     id="path8"
     style="stroke-width:0.125" />
  <defs
     id="defs15">
    <linearGradient
       id="paint0_linear"
       x1="0"
       y1="0"
       x2="220.368"
       y2="1138.51"
       gradientUnits="userSpaceOnUse"
       gradientTransform="scale(0.125)">
      <stop
         stop-color="#005474"
         id="stop10" />
      <stop
         offset="1"
         stop-color="#063752"
         id="stop12" />
    </linearGradient>
  </defs>
</svg>
