<svg xmlns="http://www.w3.org/2000/svg" xmlns:xlink="http://www.w3.org/1999/xlink" viewBox="0 0 270.933 270.933" height="1024" width="1024">
  <defs>
    <linearGradient id="a">
      <stop offset="0" stop-color="#1f4e6e"/>
      <stop offset="1" stop-color="#113250"/>
    </linearGradient>
    <linearGradient gradientTransform="translate(-.007 .019)" gradientUnits="userSpaceOnUse" y2="112.613" x2="112.895" y1="-78.976" x1="-78.694" id="b" xlink:href="#a"/>
  </defs>
  <g transform="matrix(1.00003 0 0 1.00005 118.084 118.917)">
    <ellipse cx="17.382" cy="16.549" rx="135.462" ry="135.46" fill="url(#b)"/>
    <g clip-rule="evenodd" fill-rule="evenodd">
      <path d="M116.567 4.245c-.193.407-9.077 22.95-48.147 39.295l13.814 12.69C34.378 90.25-43.86 98.06-74.248 61.106A97.82 100.672 0 00-55.303 88.42a98.67 101.546 0 0037.148 24.02 98.66 101.536 0 0085.014-9.81 98.66 101.536 0 0031.064-31.888l9.078 8.432a109.935 113.14 0 009.566-74.929z" fill="#94e7ff"/>
      <path d="M15.695-85.037a98.55 101.424 0 00-71.097 29.775 91.923 94.603 0 00-3.062 3.35l-1.58 1.93-.099.103a98.29 101.155 0 00-24.071 66.5C-67.64-67.653 32.112-75.882 46.117-40.236 56.478-14.45 21.256-5.203 1.324-2.057v-20.107l-60.282 44.473L1.328 66.783V46.884C71.383 49.115 128.405-9.68 84.11-55.267a98.55 101.424 0 00-68.415-29.77z" fill="#00c5ff"/>
    </g>
  </g>
</svg>
